<svg xmlns="http://www.w3.org/2000/svg" xml:space="preserve" style="fill-rule:evenodd;clip-rule:evenodd;stroke-linejoin:round;stroke-miterlimit:2" viewBox="0 0 800 800"><path d="m66 3 2-1c6 0 6-1 10 2q4 2 4 4h89c2 2 37 1 221 1l77 1 76-1c7-5 15 0 17 3 6 11-3 11-3 19v217l-1 6v114q0 2 3 3c13 13-2 28-13 24q-2-2-4 1l-29 30v1l-1 1-1 1h-1v2h-2v1q-4 2-2 5c0 7 1 8-4 12l-5 4c-15 1-13-5-16-7H314l-50-1H117l-87 1q-3-3-3 2l-2 2-1 1v1c-4 0-3 2-5 2-7 0-9 1-16-10l-1-2v-3l1-2 1-2q2-3 3-7c1-132-2-132 1-144V83c0-3-9-7-3-17 4-8 12-6 13-8l1 1 25-25c12-12 15-12 13-16l1-8 1-1V7h2V6zm261 374-227-1c-10 0-12 1-15-3-3-6-8-6-9-8l1-83 1-205h39l362 2c3 0 3 5 8 8s3 5 3 11l-1 279c-1 2-12 0-162 0m131 58-396-2H28c-3 0 0-2 0-2 39-38 38-41 44-40 9 2 9-5 14-5l396 2c5 0 7-2 7 2 0 37 0 38-2 40q-4 6-9 4zm1-367L79 66c-2-1-1-2-1-31 0-6-2-7 2-11q2-3 6-4c223-1 223 1 447 1 1 0 6 0 6 2l-42 39c-2 1-6-1-13 4-2 2-2 2-25 2m57 310q-17 1-17-2l1-280c0-1 0-9 2-10 11-10 2-15 5-18l39-37c4-3 2 2 2 58l-2 281-5 6c-1 2-14 2-25 2M19 239v-87c1-66 1-67 3-68 6-3 4-6 8-7h34q4 0 3 7l-1 283c0 5-3 5-4 11 0 5-1 5-16 20-23 23-26 27-28 26zM59 34q6-7 8-6v37c-1 2-2 1-35 1-7 0 0-3 27-32m440 391c1-16-1-36 1-37l34 1c1 1 0 1-20 23l-11 11q-2 3-4 2" style="fill:#fbc83e;fill-opacity:.99" transform="translate(119 173)"/><path d="m327 377-227-1c-10 0-12 1-15-3-3-6-8-6-9-8l1-83 1-205h39l362 2c3 0 3 5 8 8s3 5 3 11l-1 279c-1 2-12 0-162 0M458 435l-396-2H28c-3 0 0-2 0-2 39-38 38-41 44-40 9 2 9-5 14-5l396 2c5 0 7-2 7 2 0 37 0 38-2 40q-4 6-9 4zM459 68 79 66c-2-1-1-2-1-31 0-6-2-7 2-11q2-3 6-4c223-1 223 1 447 1 1 0 6 0 6 2l-42 39c-2 1-6-1-13 4-2 2-2 2-25 2M516 378q-17 1-17-2l1-280c0-1 0-9 2-10 11-10 2-15 5-18l39-37c4-3 2 2 2 58l-2 281-5 6c-1 2-14 2-25 2" style="fill:#fac73d;fill-opacity:.5" transform="translate(119 173)"/><path d="M19 239v-87c1-66 1-67 3-68 6-3 4-6 8-7h34q4 0 3 7l-1 283c0 5-3 5-4 11 0 5-1 5-16 20-23 23-26 27-28 26z" style="fill:#fbc73e;fill-opacity:.5" transform="translate(119 173)"/><path d="M59 34q6-7 8-6v37c-1 2-2 1-35 1-7 0 0-3 27-32" style="fill:#fac73d;fill-opacity:.51" transform="translate(119 173)"/><path d="M499 425c1-16-1-36 1-37l34 1c1 1 0 1-20 23l-11 11q-2 3-4 2" style="fill:#fbc73e;fill-opacity:.5" transform="translate(119 173)"/></svg>