<svg xmlns="http://www.w3.org/2000/svg" xml:space="preserve" style="fill-rule:evenodd;clip-rule:evenodd;stroke-linejoin:round;stroke-miterlimit:2" viewBox="0 0 800 800"><path d="M205 19c11 19 48 23 52 24-3 5 2 0 3 0h1q6 8 10 0c5-1 4-2 10-2 3 0-3 36 9 51 25 32 60 14 65 11 58-32 23 25 24 64 1 46 42 49 46 49 44-2 37-42 38-74 0-1 1-19 11-10 17 13-6 30 18 81 8 15 77 60 112 25l3 13c3 9 2 10 5 57-9-1-21-6-46 6-39 20-60 172-83 175-24 3 7-49 18-122 8-46-37-62-59-51-31 14-24 50-22 63 1 4 9 47-17 53-22 5-20-38-20-60v-7c-1-9 0-30-4-41-6-20-26-38-27-38-14-10-27-12-29-12-1-1-2-5-6 0-12 1-13-1-23 5-4 2-31 16-38 44-14 63 57 88 56 140 0 8-8 17-10 17-16 1-44-26-47-28-25-21-66 3-70 39-7 72 47 75 97 88 18 5 12 23 12 33-27-2-40-1-94-18-7-3-36-15-52-25v-1c12 5 18-37 18-41 4-29-11-59-35-60l-15-1c-3 0-10-27-37-40-9-3-37 2-45 20-15-28-25-69-26-73-7-41-6-55-6-76s3-21 3-40c17 25 18 46 61 57 5 1-28 38 7 68 18 17 71 24 78-27q6 1 1-5c-1-15-1-15-8-30-1-4-2-20 13-27 12-6 12-5 25-10 7 6 7 0 7 0 45 0 32-72-13-75-1 0-10 2-9-1 10-14 25-21 29-60h2s2-4-2-1c0-6 3-43-38-40-8 0-60 8-62 67-1 20 5 83-9 55-21-43-54-38-67-25 5-18 26-58 35-69l2-1c3-6 14-15 14-21l3-3c5 0 3-3 3-4l2-2q0 2 2 0c4-4 4-4 6-9l3-3 1 1c13-9 13-12 13-14l2-2c5 2 3-1 3-2l2-2q4 0 5-2c3-2 4-1 4-5l2-2a323 323 0 0 1 83-44" style="fill:#f8f6f4;fill-opacity:1" transform="translate(96 90)"/><path d="M317 274h6c2 0 15 2 29 12 1 0 21 18 27 38 4 11 3 32 4 41q-3 4 0 7c0 22-2 65 20 60 26-6 18-49 17-53-2-13-9-49 22-63 22-11 67 5 59 51-11 73-42 125-18 122 23-3 44-155 83-175 25-12 37-7 46-6l-1 14c0 52-22 102-23 104l-1 3-2 3-5 10-16 26c-10 17-11 16-17 25l-11 15-28 28q-3 1-4 4l-1 1c-9 5-8 6-16 12-6 4-6 3-11 8l-3 2-3 2-3 2-5 3-3 2q-3 0-4 2l-2 1-5 3-4 2q-2 0-3 2c-13 6-48 20-59 21h-6q-2 0-2 2h-1l-4 1-5 1c-20 5-65 5-70 5 0-10 6-28-12-33-50-13-104-16-97-88 4-36 45-60 70-39 3 2 31 29 47 28 2 0 10-9 10-17 1-52-70-77-56-140 7-28 34-42 38-44 10-6 11-4 23-5M205 19c23-7 23-5 37-9 39-13 131-9 183 16l2 1 26 12q1 3 4 3l2 1q2 3 6 4l4 2 3 2q3 3 11 8l1 1 7 5 5 3 1 1c2 3 1 3 5 3v1l5 5 12 10 1 1 2 1 1 2 1 1 2 1 1 3c23 28 24 27 28 34q5 8 7 8 0 2 2 3l1 3 2 4c2 4 1 4 5 6v1c1 6 2 6 5 11l1 2 1 2 1 1q2 6 6 12l8 21 10 33c-35 35-104-10-112-25-24-51-1-68-18-81-10-9-11 9-11 10-1 32 6 72-38 74-4 0-45-3-46-49-1-39 34-96-24-64-5 3-40 21-65-11-12-15-6-51-9-51-6 0-5 1-10 2h-14c-4-1-41-5-52-24M196 146zc-4 39-19 46-29 60-1 3 8 1 9 1 45 3 58 75 13 75h-7c-13 5-13 4-25 10-15 7-14 23-13 27 7 15 7 15 8 30l-1 5c-7 51-60 44-78 27-35-30-2-67-7-68-43-11-44-32-61-57 1 0 7-37 15-54 13-13 46-18 67 25 14 28 8-35 9-55 2-59 54-67 62-67 41-3 38 34 38 40" style="fill:#fbc93e;fill-opacity:1" transform="translate(96 90)"/><path d="M306 152c1 16 21 6 36 23 50 55-55 103-93 50-22-30 7-55 5-56s-21-5-31-17c-23-26 41-71 76-20 5 6 7 18 7 20" style="fill:#fac93e" transform="translate(96 90)"/><path d="M34 446c8-18 36-23 45-20 27 13 34 40 37 40l15 1c24 1 39 31 35 60 0 4-6 46-18 41l-1-1q-3-3-7-4c-1-1-13-11-21-15-4-6-16-14-18-15l-1-1-1-1-1-1c0-1-10-13-16-15l-1-2c-13-20-15-18-28-37l-2-2-3-5-2-3-3-5q0-4-4-7l-1-2-3-5z" style="fill:#fbc93e;fill-opacity:1" transform="translate(96 90)"/><path d="M271 43q-4 8-10 0z" style="fill:#f8f0da" transform="translate(96 90)"/><path d="M189 283s0 6-7 0z" style="fill:#f8efd7" transform="translate(96 90)"/><path d="M317 274c4-5 5-1 6 0z" style="fill:#f8edd1" transform="translate(96 90)"/><path d="M152 350q5 6-1 5z" style="fill:#f8eed3" transform="translate(96 90)"/><path d="m382 603-5 1-1-1z" style="fill:#edca6a;fill-opacity:.49" transform="translate(96 90)"/><path d="M577 227q2-5 2 0s0 4-2 0" style="fill:#fbd264" transform="translate(96 90)"/><path d="M374 605q-1-3 2-2l1 1z" style="fill:#e8d6a8;fill-opacity:.36" transform="translate(96 90)"/><path d="M383 365v7q-3-3 0-7" style="fill:#fad87b" transform="translate(96 90)"/><path d="M578 337c-2-1 1-2 1-1z" style="fill:#fad56e" transform="translate(96 90)"/><path d="M196 146c4-3 2 1 2 1z" style="fill:#f8f1dc" transform="translate(96 90)"/><path d="M257 43h3c-1 0-6 5-3 0" style="fill:#f8eed1" transform="translate(96 90)"/><path d="m578 167 1 2v2l-1-2z" style="fill:#d0c4a3;fill-opacity:.2" transform="translate(96 90)"/><path d="m473 563-3 2z" style="fill:#dbb943;fill-opacity:.21" transform="translate(96 90)"/></svg>