<?xml version="1.0" encoding="UTF-8" standalone="no"?>
<!DOCTYPE svg PUBLIC "-//W3C//DTD SVG 1.1//EN" "http://www.w3.org/Graphics/SVG/1.1/DTD/svg11.dtd">
<svg width="100%" height="100%" viewBox="0 0 800 800" version="1.1" xmlns="http://www.w3.org/2000/svg" xmlns:xlink="http://www.w3.org/1999/xlink" xml:space="preserve" xmlns:serif="http://www.serif.com/" style="fill-rule:evenodd;clip-rule:evenodd;stroke-linejoin:round;stroke-miterlimit:2;">
    <g transform="matrix(1,0,0,1,200,148)">
        <path d="M267,338C272.333,339.333 275.333,339.333 276,338L284,338C288,340 323,339 326,339C330,341 366,340 369,340C375,343 376,340 382,343L384,344L384,346L385,430C385,434 400,431 403,432C406,434 424,433 435,433C439,433 444,442 438,448L429,457L414,471L408,478C404.667,482 400.667,486 396,490L390,497C387,501 386,500 384,505L382,506L366,522L361,528C350,541 349,540 348,541C345,546 344,545 340,550L330,561L325,564L319,562C315.667,557.333 313.333,555 312,555L312,554L311,554L311,553L310,553C306.667,549 304.333,547 303,547L302,545L296,539L296,538L295,537L212,456C208,451 199,445 203,439C206,433 212,434 214,434L256,433L258,434L257,430C258,367 255,346 257,342L258,342L259,340C263,337 263,338 267,338" style="fill:rgb(251,200,61);fill-opacity:0.98;"/>
    </g>
    <g transform="matrix(1,0,0,1,200,148)">
        <path d="M182,484C226,484 226,485 227,486C230,488 234,497 223,499C221,499 209,501 204,500L171,499L58,499C51,497 40,503 29,494L22,489C21,487 13,484 6,464C6,460 5.333,455.333 4,450L5,433L4,402L4,318C4,271 5,271 3,267L3,130L2,119L3,43C3,41 5,31 13,22C15,20 16,21 18,16L23,13C24.333,12.333 26,11.333 28,10C31,8 49,2 59,5C61,5 104,6 108,4C112,3 185,5 190,3C194,2 268,4 273,2C275,2 286,1 289,5L365,86C368,89 367,89 371,91L378,99C382,104 379,105 379,135L380,161L379,183L380,188L380,278L381,283L380,325C377,330 365,329 365,321L364,303C363,299 365,213 363,208L363,114C362,113 361,115 346,115L333,116C329,117 311,115 306,117C296,120 279,108 275,97C272,87 274,87 274,72L273,49L273,19L241,19L236,20C200,20 159,19 155,21C151,22 77,20 72,22C65,24 49,18 34,26L25,33C20.333,42.333 18,48 18,50L18,61L19,69L19,72L20,191L20,236C20,261 19,325 21,330L21,376C21,398 20,447 22,457C24,467 31,475 33,476C43,487 48,482 55,484L123,484C143,485 145,484 146,483L167,484C173,484 173,482 178,484L182,484ZM291,34L305,49C317,60 316,61 317,62C321,64.667 323.333,67 324,69C329,71 328,74 331,76C336,78 335,81 338,82C340,83.333 341.667,85.333 343,88L351,95C351,95 356,98 351,98L335,99C302,99 302,102 297,98C287,88 292,83 291,77L290,51C290,36 289,35 291,34" style="fill:rgb(255,254,251);fill-opacity:0.95;"/>
    </g>
</svg>
