<svg xmlns="http://www.w3.org/2000/svg" xml:space="preserve" style="fill-rule:evenodd;clip-rule:evenodd;stroke-linejoin:round;stroke-miterlimit:2" viewBox="0 0 800 800"><path d="M288 14c0 88-1 90 3 90 25 1 30 6 30-2l11-81 9-5c8 2 8 5 4 38a402 402 0 0 0-8 54c-1 4 4 1 36 11 9 4 6-3 13-18 11-22 7-23 18-45 0 0 6-24 18-15 9 6-14 45-24 77-2 3-9 8 5 13 18 8 20 12 21 8s17-25 19-27c22-30 32-51 40-34 2 3 3 5-23 38-22 30-22 32-20 34 12 5 28 20 31 15 3-4 34-37 35-40 12-20 27 0 16 7-9 7-7 9-15 17l-14 16c-5 5-3 6-8 12-3 2 10 8 32 28 27 26 48 41 38 52-146 160-319 164-427 102-66-38-72-51-98-74 0 0-24-25-28-31-4-11 27-36 55-64 4-5 20-12 16-16l-34-39c-2-4-11-6-4-17 6-11 27 20 41 34 10 11 9 16 15 12 6-5 27-17 27-19-4-11-47-59-43-67 8-17 17 4 40 34l13 18c8 13 13 3 19 1 18-4 15-9 15-11l-29-71c-1-7 11-22 20 3l26 66c2 2 20-7 39-9 5 0 3-3-5-59-2-15-7-31 4-34 8-2 11 16 11 17l9 70c0 5 3 1 26 1 12 0 8-6 8-17l1-79c2-3 15-15 16 6M175 138l1 1c-1 1-10 7-16 15-27 33-28 46-29 51-18 58 0 90 7 112l15 29c6 8 16 13 8 12l-2-3-24-11c-20-10-27-17-32-20-24-13-72-61-74-64-3-5-11-8-4-15 65-70 90-79 150-107m216 6c20 10 23 7 79 44 10 7 39 31 41 35s31 25 27 28c-18 21-62 59-76 65-2 1-1 2-23 16-21 13-23 10-36 20q-3-2 0-3c69-111 2-194-13-204zm-216-6 6-3q3 0-5 4zm216 6-1 1-4-3c-3-3 5 1 5 2m12 205q-3 1 0 3c-11 7 0-3 0-3" style="fill:#fefdfb;fill-opacity:.98" transform="translate(121 150)"/><path d="M338 200c70 91-63 176-121 95a78 78 0 0 1 121-95" style="fill:#051e31" transform="translate(121 150)"/><path d="m175 138 6-3q3 0-5 4z" style="fill:#f8f7f5;fill-opacity:.32" transform="translate(121 150)"/><path d="m391 144-1 1-4-3c-3-3 5 1 5 2" style="fill:#f6f5f3;fill-opacity:.28" transform="translate(121 150)"/><path d="M403 349q-3 1 0 3c-11 7 0-3 0-3" style="fill:#e9e9e8;fill-opacity:.25" transform="translate(121 150)"/><path d="m159 355 2 3z" style="fill:#d8d8d6;fill-opacity:.45" transform="translate(121 150)"/></svg>