<svg xmlns="http://www.w3.org/2000/svg" xml:space="preserve" style="fill-rule:evenodd;clip-rule:evenodd;stroke-linejoin:round;stroke-miterlimit:2" viewBox="0 0 800 800"><path d="M556 149c-1 6-27 36-39 47l-11 10c-2 2-20 15-18 16 13 16 40 42 38 49-9 22-34-23-41-27-8-5-6-16-18-8l-23 14c-7 3 47 58 38 66-14 15-23-17-51-52-5-5-6-5-12-2-2 1-24 9-23 10 31 74 32 76 26 80-9 7-15-7-16-8-24-63-22-68-29-66-3 0-17 3-30 8l-9 1c-3 0 14 79 8 86-12 14-16-12-16-13l-7-56c-2-14-3-14-4-14l-29 2c-5 0 0 92-3 94-1 1-10 11-15-1 0-2 1-92-2-93l-31-2c-5 0-9 80-16 84-18 12-12-16-8-49l4-24c4-17-4-14-15-16-25-7-26-8-27-6-1 5-9 21-13 35-1 2-2 2-15 35-2 7-23 8-13-11l24-63c3-5-3-3-25-14-8-4-11 8-15 14-15 16-36 61-45 40-2-3-3-5 23-38 17-23 17-25 15-26l-28-18c-6-3-35 46-47 44-19-5 15-32 19-40 4-7 17-13 10-17-6-4-71-63-64-75 10-16 80-79 110-94 24-12 123-81 269-31 38 13 74 37 80 41 39 26 55 44 59 46l10 10c23 23 24 26 25 29zM279 276c-37-2-101 0-189-59-29-20-70-65-68-69 1-2 73-83 159-111 61-21 122-31 212 6 40 16 70 39 75 42s52 42 54 46c7 12 21 11 12 22-25 30-98 118-255 123" style="fill:#fffefb;fill-opacity:.96" transform="translate(121 251)"/></svg>