<?xml version="1.0" encoding="UTF-8" standalone="no"?>
<!DOCTYPE svg PUBLIC "-//W3C//DTD SVG 1.1//EN" "http://www.w3.org/Graphics/SVG/1.1/DTD/svg11.dtd">
<svg width="100%" height="100%" viewBox="0 0 800 800" version="1.1" xmlns="http://www.w3.org/2000/svg" xmlns:xlink="http://www.w3.org/1999/xlink" xml:space="preserve" xmlns:serif="http://www.serif.com/" style="fill-rule:evenodd;clip-rule:evenodd;stroke-linejoin:round;stroke-miterlimit:2;">
    <g transform="matrix(1,0,0,1,200,148)">
        <path d="M438,433L442,442L441,443L440,445L440,447L438,448C436,449 427,458 422,465L421,467C416,469 334,558 327,564L322,564L320,563L319,561L286,530C282,525 244,487 234,479L233,477L210,456L208,454L207,452C204,449 194,442 206,435L256,433C262,433 255,346 258,341C261,336 263,339 332,339C381,339 382,342 382,346C386,362 383,433 386,433C404,435 430,430 438,433" style="fill:rgb(251,201,62);fill-opacity:0.98;"/>
    </g>
    <g transform="matrix(1,0,0,1,200,148)">
        <path d="M274,46C272,36 273,22 273,20C272,17 190,21 114,21C35,21 28,20 19,47C18,50 21,370 21,376C24,454 14,458 36,479C40,484 41,483 136,483C225,483 231,481 232,492C233,503 217,501 215,501L113,500C43,500 29,504 14,480C1,458 6,449 4,373L3,257C5,107 1,107 2,94C4,75 -7,27 26,12C28,11 45,2 58,4C77,7 134,3 245,3C282,3 286,1 289,8C294,17 377,96 380,102L380,192L379,320C379,328 369,332 365,326C361,321 364,176 363,117C363,112 361,115 357,115C332,114 332,116 330,116C306,115 289,123 276,97C273,91 274,90 274,46M291,34L340,84L353,97C353,99 320,99 317,99C305,99 303,104 292,91C291,90 288,38 291,34" style="fill:rgb(255,254,251);fill-opacity:0.94;"/>
    </g>
    <g transform="matrix(1,0,0,1,200,148)">
        <path d="M192,214C193,213 201,202 214,202C255,202 263,275 232,296C191,324 159,255 192,214M216,219C247,230 232,277 224,282C194,303 182,227 216,219" style="fill:rgb(255,254,251);fill-opacity:0.96;"/>
    </g>
    <g transform="matrix(1,0,0,1,200,148)">
        <path d="M278,236C277.333,238 277.667,240 279,242C275,259 285,300 267,298C264.333,298 262.333,295.667 261,291C261,284 261,227 263,206C264,204 272,190 281,208C293,231 307,253 310,262L310,264C314,274 312,262 312,262C311,205 313,203 317,200C332,189 329,228 329,233L327,293C327,296 319,301 313,299C308,296 308,291 288,256L280,240C280.667,238 280,236.667 278,236" style="fill:rgb(255,253,251);fill-opacity:0.96;"/>
    </g>
    <g transform="matrix(1,0,0,1,200,148)">
        <path d="M106,282C103,268 115,265 124,280C133,296 171,280 149,261C144,256 121,248 119,232C115,196 183,200 174,224C172,230 164,232 160,224C154,214 118,224 146,239L156,244C161,247 179,267 170,283C161,302 129,319 106,282M103,220C90,220 88,218 88,223C88,233 93,290 89,295C65,324 24,268 45,257C59,251 53,284 72,286C77,287 72,267 72,225C72,215 52,225 47,214C45,207 55,200 71,204C79,206 119,199 113,215C110,221 103,220 103,220" style="fill:rgb(255,254,251);fill-opacity:0.96;"/>
    </g>
    <g transform="matrix(1,0,0,1,200,148)">
        <path d="M312,262C312,262 314,274 310,264L310,262L312,262Z" style="fill:rgb(255,254,249);fill-opacity:0.22;"/>
    </g>
</svg>
