<svg xmlns="http://www.w3.org/2000/svg" xml:space="preserve" style="fill-rule:evenodd;clip-rule:evenodd;stroke-linejoin:round;stroke-miterlimit:2" viewBox="0 0 800 800"><path d="M90 36q-3 3-1 6c1 17-2 21 3 23 5 3 16 15 9 18l-7-1q2-1-3-3v-2c-2-5-1 2-1 2q0 17 1 20c1 8-2 14 1 32 1 8-2 15 1 33 0 3-1 13 1 13 1 0 42-9 58-25q4-2 4-6c1-3 2-5 2-17 0-22 4-21 7-22 7-1 5 7 5 7 0 3-1 36-3 42 0 1 1 2-1 13-2 13-1 13-5 24-3 12-2 12-1 12 24 2 24-15 28-11 3 2-3 10-14 15-15 8-48-1-56 0-26 3-31 24-51 17 0-1-3-6 3-4 1 0 9 0 15-3l1-1q6-3 4-3s-61 8-69-7q-2-4-5-11c-1-7-1 2-4 10-1 5 0 13-9 9-4-3 5-26 6-35 1-2 2-2 11-31 1-1 12-6 8 9-5 14-10 24-5 24 17 1 62-1 62-6 1-8-1-18-1-19-1-7 2-16-1-33V96l-1-18c0-6 2-7-3-10l-8-6c-1-1-11-11-16-13-1-1-2-8 1-8 8 0 7 5 10 4 1-1 15-9 15-12 0-1-1-6 2-7 5-1 4 5 7 10m-9 21h-1c-8-8-15-9-11-11l2-1c3-2 10-9 10-6z" style="fill:#fffefb;fill-opacity:.98" transform="translate(312 261)"/><path d="M40 88c3 23-2 24-1 28l3 5c0 8-1 20 1 24 1 4-2 21 1 22 0 0 11-1 10 6q-1 6-9 4c-14 0-12-6-12-20l-1-12c-1-6 4-22-4-25-4-1-6-8 0-10 2 0 5-1 3-18l-1-4c0-23 1-23-1-26-1-6 1-18 6-20 7-1 7-2 15-2 1 0 3 8-2 9-10 1-7 5-9 11l1 4z" style="fill:#fffefb;fill-opacity:.96" transform="translate(312 261)"/><path d="m90 36 19 41c0 2 15 2 15 12 0 21-1 26 4 30 7 6-3 12-3 18-1 11 2 25-4 27-6 3-16 9-17 1-1-7 11-4 11-12 0-16-1-18 2-25 2-4-3-7-3-8 0-9 1-30-1-31-3-2-9-1-7-9 1-5-11-25-15-37q0-2-2-2v1q-2-3 1-6" style="fill:#fffefb;fill-opacity:.94" transform="translate(312 261)"/><path d="M89 10c0 5 2 8-7 8-5 0-3-21 5-15q2 4 2 7" style="fill:#fffefc;fill-opacity:.95" transform="translate(312 261)"/></svg>