<?xml version="1.0" encoding="UTF-8" standalone="no"?>
<!DOCTYPE svg PUBLIC "-//W3C//DTD SVG 1.1//EN" "http://www.w3.org/Graphics/SVG/1.1/DTD/svg11.dtd">
<svg width="100%" height="100%" viewBox="0 0 800 800" version="1.1" xmlns="http://www.w3.org/2000/svg" xmlns:xlink="http://www.w3.org/1999/xlink" xml:space="preserve" xmlns:serif="http://www.serif.com/" style="fill-rule:evenodd;clip-rule:evenodd;stroke-linejoin:round;stroke-miterlimit:2;">
    <g transform="matrix(1,0,0,1,199,147)">
        <path d="M331,341L334,342C354,367 442,450 442,459C441,475 422,466 388,467C384,467 386,470 386,553C386,560 384,559 380,560L375,560C357,562 330,562 326,562C267,562 265,566 258,558C257,556 261,470 258,468C258.667,467.333 258,467 256,467L255,468C251,466 251,467 235,467C231,466 232,465 228,467C226,465.667 223.667,465.333 221,466C222.333,466 221,465.667 217,465L206,465L205,463C195,459 202,452 202,450L216,437L218,435L232,423L233,421C243,413.667 247.667,409 247,407L249,406C254,403 266,391 267,389L294,364C318,344 320,333 331,341M350,381L350,383L352,384L354,386L380,413L398,432L417,450L415,452C376,451 376,451 374,453C368,460 373,541 371,544C370,546 281,547 275,547C270,547 276,462 273,457C271,454 271,453 236,451L233,451C224.333,451.667 221.333,451.333 224,450C225,448 240,435 243,434L244,433L245,431C250,425 257,420 258,419L260,418L261,417C264,411 266,412 267,410L275,404L276,402L296,383L313,367C322,361 322,352 328,359L350,381ZM417,450L419,453C419.667,454.333 418.333,454 415,452L417,450ZM233,451L236,451L233,451Z" style="fill:rgb(251,200,61);fill-opacity:0.98;"/>
    </g>
    <g transform="matrix(1,0,0,1,199,147)">
        <path d="M331,341L334,342L346,356C352,360 353,364 358,369L363,372C364,376 379,389 382,393C384,397 390,400 391,401C393.667,405 399.667,411.667 409,421C416,429 418,429 420,431C423,438 443,451 442,460C440,473 426,468 425,468C391,468 391,465 387,467L386,541C386,556 388,559 380,560L375,560C357,562 335,560 329,562L287,562L265,563C261,562.333 258.333,559.333 257,554L258,495L259,490C260,469 260,469 258,468C258.667,467.333 258.333,467 257,467L255,468L235,467L233,466C231.667,465.333 230,465.667 228,467C226,465.667 223.667,465.333 221,466C222.333,466 221,465.667 217,465L206,465C199,460 200,459 200,458C200,455.333 200.667,452.667 202,450L216,437L217,437L217,436L218,436L218,435L219,434L232,423L232,422L235,419C243.667,411.667 247.667,407.667 247,407L248,407L249,406L255,401C264,393 263,392 264,391C268,390 279,378 279,377C283,375 288.333,370.333 295,363L309,350C322,339 322,335 331,341" style="fill:rgb(251,200,61);fill-opacity:0.98;"/>
    </g>
    <g transform="matrix(1,0,0,1,199,147)">
        <path d="M379,336C381,347 379,364 378,365C369,375 363,362 363,362L363,114C362,114 300,118 294,116C285,112 271,96 274,86C275,82 274,20 272,19L45,22C27,24 15,45 19,57L20,230L21,452C29,489 44,483 98,483C221,483 223,482 228,489C229,490 238,502 213,500C198,499 46,503 34,498C-10,478 10,417 4,402L2,117C1,46 3,40 6,34C12,19 26,10 33,8C58,0 92,8 108,4C111,4 258,4 274,2C291,0 288,11 295,15L378,100C384,106 377,245 380,291L379,336ZM291,34L340,84L353,97C353,99 320,99 317,99C305,99 303,104 292,91C291,90 288,38 291,34" style="fill:rgb(255,254,251);fill-opacity:0.95;"/>
    </g>
    <g transform="matrix(1,0,0,1,199,147)">
        <path d="M203,150C201,152 200.667,154 202,156C202,172 201,178 207,181C218,188 219,199 207,196C207.667,195.333 206.667,194.333 204,193C204,192 202,189 203,193L205,273C205,291 206,291 207,291C220,292 248,277 252,276C276,263 268,256 272,231C272,230 274,218 281,222C286,224 282,226 282,258L277,300L273,315C268,330 291,316 292,315C294,314 303,302 302,310C300,326 270,326 267,326C235,326 232,316 205,334C183,349 178,336 180,335C181,335 188,339 203,330C216,322 136,347 129,311C126,293 130,340 116,329C112,326 131,264 136,262C138,262 144,261 139,277C133,296 134,297 136,297C154,298 198,296 198,291L195,184C193,180 167,165 167,158C167,154 173,154 177,158C179,161 194,149 194,147C195,136 200,142 201,144L203,150ZM194,171L193,171C185,163 177,163 184,159C187,156 194,150 194,153L194,171Z" style="fill:rgb(255,254,251);fill-opacity:0.98;"/>
    </g>
    <g transform="matrix(1,0,0,1,199,147)">
        <path d="M153,202C157,220 149,225 155,234L156,274C156,279 154,281 159,281C160,281 169,280 166,289C165,292 146,293 146,283C146,264 147,236 142,234C130,230 144,224 144,220C145,189 136,161 150,156C168,150 164,161 163,161C162,164 153,162 153,168L153,202Z" style="fill:rgb(255,254,251);fill-opacity:0.96;"/>
    </g>
    <g transform="matrix(1,0,0,1,199,147)">
        <path d="M203,150C215,174 221,192 222,192C245,194 235,205 237,227C237,231 247,237 242,243C232,254 244,273 232,279C213,289 218,275 219,275C219,274 228,273 228,267C228,254 226,253 230,242C232,237 227,236 227,234C227,209 232,206 222,201C215,199 221,195 215,183C203,157 204,156 202,156C200.667,154 201,152 203,150" style="fill:rgb(255,254,251);fill-opacity:0.94;"/>
    </g>
    <g transform="matrix(1,0,0,1,199,147)">
        <path d="M202,124C201,140 192,130 192,126C192,125 192,118 196,116C203,115 201,118 202,124" style="fill:rgb(255,254,252);fill-opacity:0.95;"/>
    </g>
</svg>
