<?xml version="1.0" encoding="UTF-8" standalone="no"?>
<!DOCTYPE svg PUBLIC "-//W3C//DTD SVG 1.1//EN" "http://www.w3.org/Graphics/SVG/1.1/DTD/svg11.dtd">
<svg width="100%" height="100%" viewBox="0 0 800 800" version="1.1" xmlns="http://www.w3.org/2000/svg" xmlns:xlink="http://www.w3.org/1999/xlink" xml:space="preserve" xmlns:serif="http://www.serif.com/" style="fill-rule:evenodd;clip-rule:evenodd;stroke-linejoin:round;stroke-miterlimit:2;">
    <g transform="matrix(1,0,0,1,199,147)">
        <path d="M331,341L334,342L346,356C352,360 353,364 358,369L363,372C364,376 379,389 382,393C384,397 390,400 391,401C393.667,405 399.667,411.667 409,421C416,429 418,429 420,431C423,438 443,451 442,460C440,473 426,468 425,468C391,468 391,465 387,467L386,541C386,556 388,559 380,560L375,560C357,562 335,560 329,562L287,562L265,563C261,562.333 258.333,559.333 257,554L258,495L259,490C260,469 260,469 258,468C258.667,467.333 258.333,467 257,467L255,468L235,467L233,466C231.667,465.333 230,465.667 228,467C226,465.667 223.667,465.333 221,466C222.333,466 221,465.667 217,465L206,465C199,460 200,459 200,458C200,455.333 200.667,452.667 202,450L216,437L217,437L217,436L218,436L218,435L219,434L232,423L232,422L235,419C243.667,411.667 247.667,407.667 247,407L248,407L249,406L255,401C264,393 263,392 264,391C268,390 279,378 279,377C283,375 288.333,370.333 295,363L309,350C322,339 322,335 331,341M350,381L350,383L352,384C352,384 366.333,398.333 369,401C373,406 374,405 378,411L380,413C385,416 391,425 392,426C394,426 415,448 417,450L415,452L397,452L393,451C376,451 375,451 372,455C370,459 372,520 371,543C371,547 359,545 355,545C347,547 316,546 311,546L304,547L273,546C272,544 276,461 273,456C268,451 266,454 261,452L238,452L236,451L224,451C223.333,451 224,450.333 226,449C231,446 229,444 234,441C239,438 238,436 243,434L244,433L245,431L250,426C254,423 253,422 258,419L260,418L261,417C263,412 274,404 275,404L276,402L322,359C325.333,355 328.333,356 331,362L350,381ZM417,450L419,452C422,455 416,453 415,452L417,450ZM233,451L236,451L233,451Z" style="fill:rgb(251,200,61);fill-opacity:0.98;"/>
    </g>
    <g transform="matrix(1,0,0,1,199,147)">
        <path d="M379,334L379,351C379,353 381,366 375,369C371,370 364,366 363,362L363,114C362,113 361,115 346,115L333,116C329,117 311,115 306,117C296,120 287,111 286,110L281,105L275,94C272,90 274,89 274,72L273,42C272,38 275,20 272,19L241,19L236,20L158,20L153,21C115,21 76,20 72,22C64,24 43,16 28,31C25,34 25,33 23,38L20,42C18,53 17,53 19,57L19,184L20,192L20,236C20,261 19,325 21,330L21,435C21,439 17,466 36,480C42,484 42,483 106,483L216,484C219,484 225,482 229,491C230,491 232,500 222,500L42,500C36,499 25,493 23,490C19,485 13,484 6,464C6,459.333 5.333,454.667 4,450L5,433L4,402L4,265C5,262 2,262 3,257L3,130L2,124L2,83C2,51 1,44 5,35C5,33.667 6.333,31.333 9,28L12,22C14,20 16,21 18,16L23,13C24.333,12.333 26,11.333 28,10C33,7 53,3 59,4C64,6 105,6 108,4C112,3 185,5 190,3C194,2 268,4 273,2L283,3C288,6 289,6 292,11C294,16 295,14 298,18C300,22 302,20 304,24C307,29 308,27 311,32L338,58L344,64C344.667,66 346,67.667 348,69L353,74C356,79 357,77 360,81C362,85 364,83 366,87C368,91 369,90 372,94C376,97.333 378.667,100.667 380,104L380,219L379,231L380,290C381,295 378,312 380,317L380,328L379,334ZM291,34L306,50C317,60 316,61 317,62C321,64.667 323.333,67 324,69C329,71 328,74 331,76C336,78 335,81 338,82C340,83.333 341.667,85.333 343,88L351,95C351,95 356,98 351,98L335,99C302,99 302,102 297,98C287,88 292,83 291,77L290,51C290,36 289,35 291,34" style="fill:rgb(255,254,251);fill-opacity:0.95;"/>
    </g>
    <g transform="matrix(1,0,0,1,199,147)">
        <path d="M192,214C194,212 195.333,210.333 196,209L201,207C206,203 214,202 215,202C232,203 240,217 241,217C248,227 251,243 251,247C251,262 251,272 238,290C235,295 234,294 230,298C228,299 220,306 210,303L201,299C194,294 194,294 189,287C175,268 175,231 192,214M216,219C220,220 225,221 229,230C242,256 229,287 214,286C208.667,285.333 205.667,284 205,282L201,276C197.667,270 196.333,265.333 197,262C195,257 196,244 196,243C203,220 210,220 216,219" style="fill:rgb(255,254,251);fill-opacity:0.96;"/>
    </g>
    <g transform="matrix(1,0,0,1,199,147)">
        <path d="M278,236C276.667,238 277,240 279,242C276,253 280,289 276,294C276,295 270,302 263,296C259,292 262,281 261,268L262,242L262,218L263,206C263,201 274,193 280,206C294,234 307,252 310,262L310,264C310.667,265.333 311.333,265.667 312,265L312,251C313,243 309,204 316,200C318,200 320,195 327,201C331,205 328,221 329,233L328,257C328,268 329,268 327,278C326,285 329,290 325,296C321,300 321,299 316,299C310,299 308,293 307,291L301,279L290,259C290,259 282,247 280,240C280.667,237.333 280,236 278,236" style="fill:rgb(255,253,251);fill-opacity:0.96;"/>
    </g>
    <g transform="matrix(1,0,0,1,199,147)">
        <path d="M106,282C102,269 115,266 121,276L124,281C132,291 155,288 156,274C157,259 131,252 128,247C125,242 122,244 120,235C112,205 158,197 172,214C180,223 167,238 160,224C155,215 126,222 139,234L157,246C162,249 160,251 166,253L170,262C171,263 174,277 171,282L166,290C156,304 130,308 119,297C116,294 114,295 111,290L107,284L106,282ZM103,220C94.333,218.667 89.333,219.667 88,223L89,231C89,235 88,246 90,251C91,255 89,268 91,273L90,293C83,306 58,310 43,280C34,263 47,248 55,263C56,265 56,272 59,276C61,278 60,280 64,281C64.667,283 67.333,284.667 72,286C76,286 73,263 73,258C73,249 74,247 72,244C71,239 75,220 68,220C62,220 50,222 47,214C45,208 54,203 54,203C64,203 64,202 72,204C80,205 106,202 111,206C115,210 112,215 112,216C108.667,220 105.667,221.333 103,220" style="fill:rgb(255,254,251);fill-opacity:0.96;"/>
    </g>
    <g transform="matrix(1,0,0,1,199,147)">
        <path d="M312,262L312,265C311.333,265.667 310.667,265.333 310,264L310,262L312,262Z" style="fill:rgb(255,254,249);fill-opacity:0.22;"/>
    </g>
    <g transform="matrix(1,0,0,1,199,147)">
        <path d="M331,341L334,342L346,356C352,360 353,364 358,369L363,372C364,376 379,389 382,393C384,397 390,400 391,401C393.667,405 399.667,411.667 409,421C416,429 418,429 420,431C423,438 443,451 442,460C440,473 426,468 425,468C391,468 391,465 387,467L386,541C386,556 388,559 380,560L375,560C357,562 335,560 329,562L287,562L265,563C261,562.333 258.333,559.333 257,554L258,495L259,490C260,469 260,469 258,468C258.667,467.333 258.333,467 257,467L255,468L235,467L233,466C231.667,465.333 230,465.667 228,467C226,465.667 223.667,465.333 221,466C222.333,466 221,465.667 217,465L206,465C199,460 200,459 200,458C200,455.333 200.667,452.667 202,450L216,437L217,437L217,436L218,436L218,435L219,434L232,423L232,422L235,419C243.667,411.667 247.667,407.667 247,407L248,407L249,406L255,401C264,393 263,392 264,391C268,390 279,378 279,377C283,375 288.333,370.333 295,363L309,350C322,339 322,335 331,341" style="fill:rgb(251,200,61);fill-opacity:0.98;"/>
    </g>
</svg>
