<?xml version="1.0" encoding="UTF-8" standalone="no"?>
<!DOCTYPE svg PUBLIC "-//W3C//DTD SVG 1.1//EN" "http://www.w3.org/Graphics/SVG/1.1/DTD/svg11.dtd">
<svg width="100%" height="100%" viewBox="0 0 800 800" version="1.1" xmlns="http://www.w3.org/2000/svg" xmlns:xlink="http://www.w3.org/1999/xlink" xml:space="preserve" xmlns:serif="http://www.serif.com/" style="fill-rule:evenodd;clip-rule:evenodd;stroke-linejoin:round;stroke-miterlimit:2;">
    <g transform="matrix(1,0,0,1,200,148)">
        <path d="M267,338L273,339L276,338L285,339L326,339L327,340L368,340L370,341L376,341L380,342L381,343L382,343L382,344L384,344L384,345L385,346L385,432L403,432L404,433L434,433L438,434L439,435L439,436L440,436L440,437L441,440L440,446L440,447L437,450L436,450L436,451L435,451L435,452L433,454L431,455L431,456L429,456L429,457L428,457L428,458L427,459L426,459L426,460L425,460L425,461L424,461L424,462L423,462L423,463L422,463L422,464L421,464L421,465L420,465L420,466L419,466L419,467L418,467L416,469L414,473L413,474L412,474L411,475L411,476L407,478L407,480L406,480L406,481L405,481L403,484L402,485L401,485L395,491L395,493L394,493L393,494L392,494L389,497L385,502L384,504L384,505L382,505L382,506L377,510L377,512L376,512L376,513L375,513L374,514L374,515L372,515L371,517L371,518L370,518L370,519L366,523L365,525L363,525L360,528L360,530L359,530L359,531L358,531L358,532L357,533L356,533L356,534L355,534L354,535L354,536L353,536L353,537L348,541L348,543L347,543L347,544L346,544L342,547L341,548L341,550L340,550L340,551C338.667,551 338,551.667 338,553L337,554L336,554L335,556L330,561L329,561L328,562L327,562L325,564L323,564C323,563.333 322,562.667 320,562L318,562L318,560L317,560L317,559L312,555L312,554L311,554L311,553L310,553L304,547L303,547L303,545L302,545L298,540L296,540L296,538L295,538L295,537L294,537L294,536L291,533L289,533L289,532L288,532L287,531L287,530C287,530 285.667,528.333 283,525L281,525L281,524L280,524L280,523C280,523 278.667,521.333 276,518L274,518L274,517L273,516L272,516L272,515L269,511L267,511L267,510L266,510L265,509L265,508L264,508L264,507L261,503L259,503L259,502L258,502L257,501L257,500L256,500L256,499L254,496L252,496L252,495L251,495L250,494L250,493L249,493L248,492C247.333,489.333 246.333,488.333 245,489L245,488L244,488L243,487L243,486L242,486L242,485L241,485L241,484L239,481L238,480L236,480L236,479L235,478L233,477L232,476L231,474L230,474L230,473L229,473L228,472L228,471L227,471L224,468C224,466.667 223.333,466 222,466L222,465L221,465L221,464L220,464L219,463L219,462L218,462L218,461L217,459L215,459L215,458L214,458L214,457L213,457L212,456L212,455L211,455L211,454L210,454L207,451L207,450L206,450L203,445L203,437L204,437L205,435L214,434L244,434L247,433L256,433L258,434L258,431L257,430L257,375L256,375L256,343L257,342L258,342L259,341L259,339L260,339L261,338L267,338ZM272,493L270,492L267,488L266,487L265,487L265,486L264,486L264,485L260,482L259,480L258,480L257,478L253,475L252,473L251,473L251,472L250,472L248,469L246,468L244,465C242.667,465 242,464.333 242,463L241,463L241,462L240,462L239,461L239,460L238,460L238,459L237,459L237,458L236,458L236,457L235,457L235,456L234,456L234,455L233,454L232,454L232,453L230,453C230,453 229.333,451 230,451L254,451C257,449 257,450 264,450L273,449L273,448L274,445L274,422L273,416L273,365L272,359L272,356L314,356L318,357L356,357L360,358L368,358L368,377L369,382L370,442L371,448L375,449L381,450L413,450L413,451L412,452L411,452L411,453L410,453L410,455L406,457L406,458L405,459L404,459L404,461L399,466L398,466L398,467L396,468L395,470L393,471L393,472L389,476L389,477L388,477L387,478L386,478L385,479C384.333,481.667 383.333,483.333 382,484L381,484L380,486L379,486L379,487L378,487L378,488L377,488L377,489L376,489L376,490L374,491L374,493L371,496L369,496L369,497L368,497L368,498L367,498L367,499L363,503L363,504L362,504L362,505L361,507L359,507L359,508L358,509L357,509L357,510L356,510L356,512L351,516L350,516L349,517L349,519L348,519L346,521L346,522L345,522L345,523L344,523L344,524L343,526L341,526L341,527L340,528L339,528L339,529L338,529L338,531L334,535L333,535L333,536L332,536L332,537L331,537L331,538L330,538L330,539L328,540L326,544C324,547 322,543 321,543L321,541L320,541L319,540L319,539L318,539L318,538L317,538L313,534L312,534L312,533L311,532L311,531L310,530L307,529L306,528L305,526L305,525L304,525L304,524L303,524L303,523L302,523L297,518L296,518L296,516L295,516L295,515L294,515L290,511L290,510L289,510L289,509L288,509L282,503L282,502L280,501L274,495L273,495L272,493Z" style="fill:rgb(251,200,61);fill-opacity:0.98;"/>
    </g>
    <g transform="matrix(1,0,0,1,200,148)">
        <path d="M178,484L225,484L228,486L230,490C230,494 229,496.667 227,498L223,499L218,500L204,500L195,499L171,499L166,500L164,499L106,499L98,500L62,500L58,499L44,499C43.333,499.667 41,499.333 37,498L34,497L33,497L32,496L30,496C29.333,494.667 28.333,494 27,494L25,493L22,490L20,487L16,484L15,483L13,479L12,478L10,474L9,470L7,468L7,464L6,460C5.333,456.667 5,453.333 5,450L5,404L4,398L5,396L4,393L4,269L3,265L4,262L3,259L3,130L2,123L2,48L3,44L3,39L5,36L5,35L8,29L8,28L9,26L11,24L14,20C19,18 18,16 19,15C20.333,15.667 21.333,15 22,13L24,12C25.333,12.667 26.667,12 28,10L29,9L30,9L32,8L38,6L40,6L41,5L48,5L54,4L59,5L108,5L118,4L188,4L193,3L271,3L275,2L283,2L287,3L292,7L301,16L301,18L302,18L302,19L306,23L311,27L311,29L312,29L312,30L313,30L313,31L314,31L314,32L322,40L326,43L326,45L327,45L327,46L336,55L338,56L338,58L339,58L339,59L341,61L350,69L350,71L351,71L351,72L353,74L365,85L367,87C368.333,90.333 369.667,91.667 371,91L371,92L372,92L372,94L379,100L379,101L380,102L380,115L379,127L379,186L380,198L380,279L381,283L381,319L380,325L376,327L370,327C368,327 366.667,325.667 366,323C364,321 366,306 365,303L364,295L364,210L363,206L363,116C362.333,114.667 361.333,114 360,114L360,115L335,115L331,116L309,116L304,117L297,117L294,115L293,115L292,114L290,114C290,112.667 288.333,111.333 285,110L278,103L276,99L274,94L273,90L274,84L274,55L273,50L273,21C273,19 272,19 259,19L238,19L228,20L157,20L153,21L74,21L70,22L46,22L42,23L39,24C37,24 35.667,24.667 35,26L32,27L27,32C25.667,32 24.667,32.667 24,34L24,35L23,36L23,38L21,40L21,42L19,47L18,54L18,57C19.333,59 19.333,60.333 18,61L19,68L19,189L20,194L19,196L20,201L20,328L21,335L21,369L20,373L21,379L21,454L23,460C23,462.667 23.667,464 25,464L25,467L26,467L27,468L29,473C35,479 38,481.333 38,480L42,483L55,483L68,484L80,484L84,483L91,484C93,483.333 96,483 100,483L105,484L167,484L172,483L178,484ZM291,34L292,36L306,50L311,54L311,55L317,61C317.667,61.667 319.333,63.667 322,67C324,69 326,68 328,73L329,74L331,75L333,77L336,81L338,82C338.667,82 339.667,83.333 341,86L344,88L347,92L351,96L353,97L352,98L345,98L340,99L317,99L312,100L301,100L296,97L294,93C292.667,93 291.667,91.333 291,88L290,77L290,36L291,34Z" style="fill:rgb(255,254,251);fill-opacity:0.95;"/>
    </g>
    <g transform="matrix(1,0,0,1,200,148)">
        <path d="M202,149L200,152L200,154L201,155C202,172 200,176 202,177L204,178L206,180L207,180L213,186L214,190L214,193C214,195 212.333,196 209,196L207,195L205,193L205,192L203,192L203,189C201,189 200.667,190 202,192L202,206L203,211L203,235L204,243L204,268L205,276L205,290L208,290L213,288L217,287L224,286L237,281L238,280L243,279L245,277L253,273L256,272L258,270L262,268C264,266 265.333,264.333 266,263C268,262.333 268.667,260.667 268,258C270,254 269,254 269,250L270,246L270,235L271,231L272,224L272,222L275,221L276,220C279.333,219.333 281.667,220.667 283,224L282,230L282,240L281,257L280,260L280,269L279,279L278,284L278,286L277,291L277,292L276,297L276,298L272,313C270.667,314.333 270.333,315.667 271,317L271,318L280,318L285,317C288.333,316.333 290,315.333 290,314L294,312L296,310C296,308 297.333,306.667 300,306C300.667,307.333 300.667,309 300,311L296,316L293,319L290,320L284,324L280,325L254,325C251.333,323.667 248.333,323.333 245,324C243,322.667 240.667,322.333 238,323L231,322L226,323L218,325C214.667,326.333 213,327.333 213,328L208,331L205,333L202,334L199,337L195,339L189,340L180,339L178,338C178,336 179.333,334.667 182,334C184,335.333 186,335.333 188,334L193,334L198,331L199,330L201,330L202,328C202,326 196,329 195,329L186,329L181,330L156,330L151,329L148,329L141,326L139,326L137,325L133,321L132,319L131,318L128,310L128,308C126,308 128,310 125,320L123,324C123.667,326 123,327.667 121,329L117,329L115,328L114,319L115,319L116,315L118,306L119,303L119,300L120,298L121,294L122,291C123.333,291 124,289.667 124,287L127,278L130,270L132,265L133,262L139,262L140,264L141,269L140,271L136,283L134,286L133,290L133,295L159,296L168,295C171.333,295 175,294.667 179,294L187,294L190,293L194,292C196.667,292.667 197.667,291.667 197,289L197,274L196,270L196,241L195,237L195,206L194,197L193,183L191,181L191,180L190,179L188,179L184,175L183,175L179,171L178,171L171,164L170,164L168,162C166.667,162 166,161 166,159C166,155.667 167.667,154 171,154L175,156L175,157L178,157L183,154L187,151C190.333,149 192.333,147.333 193,146L194,141L195,140C197,138.667 198.667,139 200,141L200,145L202,149ZM193,170L191,170L190,168L188,166L184,164L181,162L180,160L181,159L183,158L189,154L192,151L193,152L193,170" style="fill:rgb(255,254,251);fill-opacity:0.98;"/>
    </g>
    <g transform="matrix(1,0,0,1,200,148)">
        <path d="M152,201L152,204L153,218L152,224L152,230L154,235L154,255L155,260L155,278L156,280C158.667,280 161.333,280.333 164,281L164,282L165,283C165.667,283.667 165.667,285 165,287L165,288C165,290 164.333,290.667 163,290L152,290L149,288L147,288L146,285L145,284L145,258L144,246C144,237 145,237 142,235C140,233 138.333,232 137,232L137,227L138,225C140,223.667 141.667,222.667 143,222L143,206L142,201L142,178L141,173L142,164L142,162L144,160L145,156L148,155L155,153L162,154L163,155L162,160L161,161L156,163L152,164L152,201" style="fill:rgb(255,254,251);fill-opacity:0.96;"/>
    </g>
    <g transform="matrix(1,0,0,1,200,148)">
        <path d="M202,149L206,158L218,184L221,190L221,191L224,191L225,192L229,193L233,196C235,196.667 235.667,197.667 235,199L236,212L236,228L238,231L239,232L241,233L242,235L241,241L241,242L240,244C238.667,244 237.667,246 237,250L237,273L235,277L227,281L226,281L223,282L218,281L216,279L218,273L221,273L225,270C227,268.667 227.667,267.333 227,266L227,244L228,242C229.333,242 229.667,240 229,236C227.667,235.333 226.667,234 226,232L226,204C226,202 225,201 223,201L221,200L220,200L218,199L217,193C219,189 217,189 215,184L203,158L201,154L201,155L200,154L200,152L202,149Z" style="fill:rgb(255,254,251);fill-opacity:0.94;"/>
    </g>
    <g transform="matrix(1,0,0,1,200,148)">
        <path d="M201,123L200,131C199,131 193,132 192,130L192,128L191,125L192,117L194,116L198,115C202,117 201,123 201,123" style="fill:rgb(255,254,252);fill-opacity:0.95;"/>
    </g>
    <g transform="matrix(1,0,0,1,200,148)">
        <path d="M438,433L442,442L441,443L440,445L440,447L438,448C436,449 427,458 422,465L421,467C416,469 334,558 327,564L322,564L320,563L319,561L286,530C282,525 244,487 234,479L233,477L210,456L208,454L207,452C204,449 194,442 206,435L256,433C262,433 255,346 258,341C261,336 263,339 332,339C381,339 382,342 382,346C386,362 383,433 386,433C404,435 430,430 438,433" style="fill:rgb(251,201,62);fill-opacity:0.98;"/>
    </g>
</svg>
