<?xml version="1.0" encoding="UTF-8" standalone="no"?>
<!DOCTYPE svg PUBLIC "-//W3C//DTD SVG 1.1//EN" "http://www.w3.org/Graphics/SVG/1.1/DTD/svg11.dtd">
<svg width="100%" height="100%" viewBox="0 0 800 800" version="1.1" xmlns="http://www.w3.org/2000/svg" xmlns:xlink="http://www.w3.org/1999/xlink" xml:space="preserve" xmlns:serif="http://www.serif.com/" style="fill-rule:evenodd;clip-rule:evenodd;stroke-linejoin:round;stroke-miterlimit:2;">
    <g transform="matrix(1,0,0,1,118,111)">
        <path d="M86,572C58,572 59,567 46,562C40,560 23,546 18,538C13,529 11,530 6,514C3,505 4,505 3,498L2,495C1,461 17,443 19,438L24,434C29.333,428 34,423.667 38,421L51,414L63,409C65,409.667 67.667,409.333 71,408C74.333,406.667 85,406 87,407C91,408 104,405 128,418C136,423 136,426 138,423C140,421 142,422 144,417C146.667,416.333 149,414 151,410C152.333,410 154.333,408 157,404C159.667,403.333 162,401 164,397C166,395 168,396 170,391C172,388 175,389 176,385L183,379L191,371L196,365L224,337L239,323C242,319 243,320 245,315C247,314.333 249.333,312 252,308C254,306 256,307 258,302C260,300 262,301 264,296L271,290C274,286 275,288 277,283L282,279L327,234L335,224C341,222 339,220 344,217C347,214 346,213 350,211C353,208 352,207 356,204C361,202 359,200 363,197C368,194 366,193 370,190L375,184L419,141C421.667,138.333 421,135 417,131L414,126C412,124 405,106 405,105L403,92C402,88 405,68 406,64C414,40 417,42 420,34L425,30C429,23 447,11 455,8L472,3C478,2 479,4 484,2C485,2 505,3 514,7L532,16L543,25C559.435,40.658 568.747,62.393 568.747,85.092C568.747,130.625 531.279,168.092 485.747,168.092C473.378,168.092 461.163,165.327 450,160L438,153C434.667,150.333 432.667,149.333 432,150L424,158L416,168C414.667,168 412.667,170 410,174C408,174.667 405.667,177 403,181C401,183 399,182 397,187C395,189 393,188 391,193C389,196 386,195 384,200L378,205L370,214C367.333,215.333 365.333,217 364,219L356,228L318,265L305,278C302,281 303,282 299,285C294,287 296,289 292,292L287,298C285,298 240,344 230,354C227,357 228,358 224,360L217,367C214,370 215,371 211,373C208,376 209,377 205,380C201,382 202,384 198,387C193,390 195,391 191,394C187,396 189,398 184,401L179,406C174,410 158,429 151,434C145,438 161,444 166,470C168,479 168,479 168,490C168,499 169,511 154,536C151,542 136,557 123,563C103,573 92,572 86,572" style="fill:rgb(248,247,245);fill-opacity:0.97;"/>
    </g>
</svg>
