<svg xmlns="http://www.w3.org/2000/svg" xml:space="preserve" style="fill-rule:evenodd;clip-rule:evenodd;stroke-linejoin:round;stroke-miterlimit:2" viewBox="0 0 800 800"><path d="M316 159c25-4 55 4 58 4l27 10 13 7 10 7c4 1 18 13 19 15 5 7 8 5 10 9q5 5 20 28l6 13 3 5q5 14 6 17c9 26 7 56 7 57q-2 8-1 12c-2 4-3 12-3 14l-6 21c-11 29-36 57-41 60l-11 10c-6 7-34 22-44 25-29 9-29 10-72 10l-4-1c-17-1-23-4-35-8-33-11-52-31-55-33-5-3-4-5-9-9l-18-22-5-7c-1-4-12-22-17-42l-4-25q0-11-1-14l1-13q2-18 3-22l2-8c4-19 19-44 20-45l8-11 5-7 4-6q6-4 7-6l6-5 6-6c22-18 56-32 85-34m30 16c5 0 32 5 45 12 9 5 10 3 16 8 5 5 8 1 31 24 3 3 20 23 26 40 3 6 8 9 13 42v1h-2c-18-9-58-19-60-19-6 0-24-5-32-5l-8-2-1-5c-1-4 1-4-1-9l-2-13c-2-13-2-16-10-41-3-7-7-21-15-31zm131 166-2 8-1 9c-6 19-8 23-16 37s-9 13-10 14c-2 5-14 17-16 18l-6 5-10 9q-16 11-22 12c-15 8-39 13-47 13v-2c14-24 26-79 27-94q0-4 4-3 7-2 11-1c8-2 8-1 9-1l20-3 10-3 15-3c18-6 23-10 28-12l4-2zm-289-1c7 4 14 6 30 11 10 4 29 8 29 8l14 2 6 1 6 1a294 294 0 0 0 33 100l1 1 1 2-26-8-10-4c-17-8-16-9-17-10-8-3-20-14-20-15-4-1-40-34-48-87zm117-163-1 2c-2 5-17 30-25 59q-7 34-6 37c0 3-7 3-11 4-13 3-14 0-47 11-8 2-7 3-14 6-7 2-7 3-13 6l-1-1c3-8 1-16 12-41q2-7 16-27l4-5 4-5 5-5 10-10c15-12 31-23 67-31m-22 130v-3l1-14c0-3 19-2 22-3h35c10 2 10-1 21 2 4 1 2 50 2 51-2 5 1 11-2 15h-41c-9-2-9 0-16-1l-8-1-6-1c-9 1-5-8-6-12-2-5 0-14-1-17zm52-121 1 2c7 9 17 36 17 38 7 25 7 34 7 38l1 3c0 7 3 10-2 9-13-3-15 0-22-1-7-2-26-1-27-1-5 2-17 0-20 1-8 3-3-3-2-12 1-11 8-39 16-54l10-18 11-14c1-1 2-2 10 9m-1 272c-5 7-7 13-11 5l-4-7c-5-7-16-23-27-70l-4-17c-1-6 3-3 13-3l4 1h12l15 1c27 0 30-1 29 2-1 5 0 5-2 9 0 3-2 18-5 25l-2 9c-8 31-17 43-18 45m141-137q-7 8-9 9c-17 12-51 19-52 19l-5 1c-11 2-11 1-12 1q-5 2-8 1c-5 2-6 1-11 2-3 1-2-15-2-16 2-4 1-40 1-41q-2-1-1-6h7l4 1c12 0 11 2 12 2 8 0 44 8 70 20q10 3 6 7m-280-6c13-10 43-20 57-21 6-1 19-6 19 0 1 15-1 37 1 47 1 4 0 10-1 9-6-2-7 0-12-3l-10-2-5-1c-1 0-9 0-16-4l-6-1-10-4-21-9c-1-2-7-2-3-5 3-4 3-3 7-6m140-129c-8-11-9-10-10-9l-11 14-1-1 8-11c7-9 8-2 11 1l4 5zm140 135 1 1q2 0-4 5l-5 4-1-1q2-1 9-9m-280-6c-4 3-4 2-7 6l-1-2 3-2 4-3zm281 23 1 3-2 1-4 2v-1zM346 175v2l-3-1c-1-2 3-1 3-1M187 301l1 1v2c-3 4-1-2-1-3m160 163v2h-3q1-2 3-2m130-162zq2 2 1 3l-2-1zM306 463q4-1 2 3l-1-2zm170-125c4-2 1 2 1 3z" style="fill:#f8f7f5;fill-opacity:.94" transform="translate(75 78)"/><path d="M68 159h-2c-5 9 3 0 3 0l14-5 26-10c5-1 12 2 11 10-1 2-1 5-27 14-39 13-42 18-49 16l-5-5c-2-4-2-4-2-47 0-11-3-29 1-34 8-7 12 0 14 2l1 40v13c1 1 2-3 2-3l5-8 11-15 15-17c3-4 4-3 6-8l6-5c3-4 21-18 26-23 7-7 40-28 41-29l17-8q32-15 35-15c9-5 41-13 43-13l18-3c13-3 28-3 29-3 5-2 43-1 44-1q7 2 12 1 6 2 8 1l9 2 11 2 21 4c9 4 10 3 11 3l14 5c27 10 59 28 75 40l9 6 8 6 14 12 16 15 11 13 8 8c0 2 13 18 14 19l5 9c1 2 4 5 10 18 4 6-2 6-6 10q-6 5-9-5-11-18-13-19c-3-9-10-16-13-20l-8-10-6-6c-22-23-23-22-25-24-6-7-33-26-34-26l-5-3-12-7-7-4c-14-5-18-9-39-16-11-4-48-18-106-18l-14 1c-12 0-12 1-23 2-6 0-5 1-10 2-16 1-57 14-62 17-10 5-10 3-19 8-17 8-17 9-18 10-11 5-25 15-33 20l-28 23c-1 1-22 21-23 24l-17 20c-9 13-9 12-9 14M283 637c-1-1-27-2-69-15a416 416 0 0 1-80-42c-3-2-25-17-28-22-1-2-9-6-11-10-3-5-4-3-7-7l-10-12c-11-14-14-15-18-22-3-6-6-7-12-19-2-3-20-30-30-65l-7-23c-7-27-8-48-9-51l1-58c2-5 1-16 10-51l5-16c4-8 4-18 9-16l12 4c2 1-7 19-8 28-1 4-3 3-3 11l-2 8-1 5s-3 9-3 16l-1 3v5l-1 8-1 3-1 11c-1 4 1 50 4 59 1 3-1 4 7 38a358 358 0 0 0 47 95l13 16 8 8c4 5 32 39 96 69 9 5 45 18 57 19l8 2 10 2 12 2q6 2 5 0-3 0-10-6l-29-23c-4-9 4-18 14-10l7 5 5 5q3 1 5 4l24 18 5 4c10 8 10 10 10 12 1 12-12 14-23 22l-11 7c-12 7-32 24-38 22-2-1-8-6-5-11 3-3 1-4 5-6l19-12 10-6 9-6 2-1 2-1q0-2-3 0M636 232l-2-3c-5-2 0 4 0 5 3 7 8 37 9 38q-1 3 1 9-1 4 1 12v41l-1 12-6 35a270 270 0 0 1-31 84c-3 5-1 6-6 12l-9 13-9 15-11 14-4 3c-4 3-4 8-10 12-1 0-10 12-15 15l-6 5-5 5-10 8-10 8-19 13-9 5c-2 2-29 17-53 26l-20 7-8 2c-2 0-55 13-56 8-1-14 0-15 1-15l3-1c17-1 35-6 36-6 6 0 5-2 10-2 4 0 56-18 67-26 0-1 1 1 10-5l14-9 7-5 9-6c3-2 33-27 36-31 1-1 9-8 10-12 1-2 3-1 4-5q3-1 8-9c1 0 10-10 13-18q3-2 9-14c1-1 2 0 9-14l5-10c1-1 13-29 15-37 17-54 14-77 16-82v-26l-1-4c0-2 0-17-2-20q1-2-1-8 1-3-2-12l-6-28q-2 0 0 3l-1 3-3 8-3 8-2 5-9 21q-6 8-12 0c-7-6 2-17 5-30q2 0 5-13l3-8q2-1 2-4l3-8c12-33 23-13 27-12 0 1-1 2 6 7q1 2 7 5 2 2 5 6c6 4 13 14 21 19l8 7c4 3 2 8 2 8l-4 6c-6 0-7 1-16-8l-3-2c-1-1-13-12-16-13z" style="fill:#f8f7f5;fill-opacity:.96" transform="translate(75 78)"/><path d="M636 232h-1l-1 2c0-1-5-7 0-5z" style="fill:#d5d3d2;fill-opacity:.36" transform="translate(75 78)"/><path d="M283 637q3-2 3 0l-2 1z" style="fill:#eaeae8;fill-opacity:.22" transform="translate(75 78)"/><path d="M344 466h3q-2 2-3 0" style="fill:#f7f7f6;fill-opacity:.27" transform="translate(75 78)"/><path d="M305 177q2-2 4-1z" style="fill:#f8f0f0;fill-opacity:.36" transform="translate(75 78)"/></svg>