<svg xmlns="http://www.w3.org/2000/svg" xml:space="preserve" width="800" height="800" style="fill-rule:evenodd;clip-rule:evenodd;stroke-linejoin:round;stroke-miterlimit:2" viewBox="0 0 800 800"><path d="m480 3 1 1 2 4c-3 15 5 18 7 18l2 1h3l3 1c15 3 65-6 69-8 11-4 12 1 23-4 27-10 45 40 14 42-25 1-25 3-49 4-8 0-50 6-61 18-12 11-9 13-9 65 0 37-23 82-27 88q-10 20-12 20l-1 2c-4 3-2 4-35 43-2 2-41 59-29 59 9 0 9-3 14 0q1 2 3 2c3 11 2 11 3 23l-1 3-1 2-5 5-3 1c-57 3-57 1-113 1-52 0-52 1-55-1l-2-1-2-5-1-2v-1l-1-2-1-5v-6l4-10c7-2 7-1 20-1v-2c-15-37-23-34-41-62-2-4-5-2-13-16-6-11-9-9-22-33-17-33-17-33-27-69-3-12-3-34-5-41-1-6 2-57 0-58-1-1-40-10-46-10-25-3-76-4-77-4l-5-4q0-3-2-4v-3c0-13 1-13 4-19l2-3v-1l2-2 1-1 4-1 4-2 3-1c111 7 114 11 115 4 1-5 0-19 8-20 21-1 127-1 134-3l92-1c24 0 88-4 109-1M357 29c0-1 4-4 8 0l2 2 2 1 2 2 2 2 2 1 2 2 1 1 2 1 3 3 1 1 2 1 3 3 1 1 2 1 3 3 1 1 2 1 3 3 2 2 4 3 2 2 1 1c3 11 8 9 8 15l2 27q2 4-3 6l-1 2c-1 8-4 6-61 26-65 21-70 23-69 18 4-19 0-29 8-36h1l2-2c4-8-1-11 3-16l3-4 1-2 4-5 1-3 5-5 1-1 2-3 1-2 1-1 2-2 1-2 1-1 1-2 1-1 1-3h1l1-1 1-3 4-4 1-3 5-5 1-1 2-3 1-2 1-1 3-4 1-1 1-2 1-1 1-1 2-3 1-1 2-3zm-63 150q-7-5 3-8c104-33 125-43 129-35 2 2 0 3 4 37 2 11-10 13-2 23 2 2-9 33-15 34s-3 9-6 9c-21 5-22 3-23 1-6-9-11-2-16-6l-3-2-1-1-1-1-2-1-5-4-1-1-3-2-2-1-2-2-1-1-3-2-1-1-2-1-1-1-2-1-2-2-4-3-2-1-1-1-5-4-2-1-2-2-3-1v-1l-1-1-2-1-1-1-1-1-2-1-5-4-1-1-2-1-1-1-2-2-2-1-1-1zM213 63q3-1 4 1l4 3 2 2 1 1 2 1 1 1 2 2 2 1 1 1 2 2 1 1 3 2 2 2 4 3 3 3 2 1 6 5 1 1 2 1 3 3 1 1 2 1 3 3 2 2h2l1 2 3 2c0 6-1 6 1 11q0 2 2 3c3 1 4 2-1 33 0 3-5 5-6 6-6 8-8 4-28 7-33 6-33 5-36 4-4-2-8 2-12-3l-1-1-2-1-1-1-5-4-7-13c-1-1-1-1 26-83l2-2c1-4 2-2 6-4m-21-40h36v-1h4c44-1 117-3 117-1l-1 1-1 2-1 1-1 3-5 5-1 1-1 2-1 1-1 2-1 1-2 2-1 2-1 1-1 2q-1 3-4 5l-3 4-1 2-1 1-1 1-1 2q-1 3-4 5l-1 1-2 3-1 2-4 5-1 1-1 2-4 5-1 1-2 3-3 4-1 3h-1l-1 1-1 2c-3 5-4 3-9 2l-1-1-2-1-3-3-1-1-3-2-2-2-4-3-2-1-1-2-8-6-1-1-2-1-3-3-1-1-2-1-2-2-1-1-2-1-1-2-2-1-1-1-2-1-3-3-1-1-2-1-3-3-1-1-6-5-2-6-2-1c-5-3-11 0-13-5l-1-2q-3-1-4-4l-2-4-1-1-2-2zm63 226c-3-4-3-4 0-8 1-2 22 2 36 3l56 6c16 1 17 3 18 4 5 11-3 10-7 23-5 17-12 18-13 19l-5 1-2 2c-2 5-1 6-5 8l-31 16c-3 1-3 0-8-2l-1-2c-2-1-15-27-20-36-5-7-13-24-14-26l-1-3-2-3zm14-67 2 1c9 4 11 0 15 4l1 1 1 1 7 5 1 1 3 2 2 1 2 2 1 1 3 2 2 1 2 2 2 1 5 4 1 1 2 1 1 1 5 4 2 1 2 2 2 1 5 4 1 1 2 1 5 4 1 1 2 1 1 1 2 2 2 1 3 1h1l2 1c16 6-26-2-45-3-15 0-15-2-29-3-3 0-2-2-28-3-10 0-9-5-19-5l-16-23-2-3-5-6-2-3c0-9 4-6 14-7 36-5 39-9 41-2M154 24c9-1 22-4 26 4l2 3 2 2 1 1 1 2 1 1 5 6 1 2 1 1c5 5 0 6 3 13 1 4 1 4-14 49-13 36-11 38-19 43l-2 2q-1 2-2 1c-8-6-12-4-10-8l-1-7-1-22 2-66c0-12 1-11 2-22zm83 235c2-5 4-15 8-6l16 31 1 2c2 1 12 22 15 27 8 13 6 14 6 17 0 15 6 11 10 13 1 0 13 16 10 16-44 1-45 2-46-2-11-31-17-28-24-44l-2-2c-18-16-13-19-11-22l14-25 1-2zm-40-62c4-6 12 4 12 5l1 2 3 3 1 2 14 19 2 4c1 0-1 1 1 11v3l-9 16-2 3q-9 24-13 17c-3-4-33-42-36-56l2-2 1-1 2-2 1-1 1-2 3-3 2-2 1-1 1-1 1-2 5-5 2-2 2-2 1-1zm243-74c5-4 15-15 24-9 5 2 7 2 6 8q-1 10 0 13 0 13-6 39c-4 19-6 19-7 26-5 17-28 52-30 52-5 1 6-5 2-19l-2-2 9-23c4-13 17-16 11-27l-1-2c-10-5-7-7-8-19-4-36 0-36 0-36zm-28 146-1 2c-2 4-22 24-39 58l-2-1c-10-14-9-18-9-20 3-6-4-7 3-20 10-22 6-25 17-29l5-7 19-3c7-2 25 4 7 20m-107 72c-8-7 5-10 26-21 10-5 10-3 21-2l8 12c6 13 5 13 2 26-1 4-47 3-47 1-8-13-9-12-9-14zM457 30c0-4 4-12 6-12 11-1 5 5 5 16 0 7-1 7 1 13l1 54q2 5-2 3c-5-2-4-3-5-8l-1-1-2-1-9-2-1-2-1-1-2-2-3-3-1-2-1-1-2-2-3-3-1-2-1-1V62l2-1 5-5 5-5 3-3c13-2 9-12 8-16zm29 11 5 1 12 2h12c5-2 21-3 23-3 25-1 62-14 65-7 5 11-7 8-8 8-4 2-5 2-66 7-13 1-40 14-43 16-3 5-2-7-2-23zM21 41c38 0 103 5 112 6 2 0 1 14 1 15l-11-2C71 48 21 50 19 51c-4 2-1-8 0-8zm353-19c-2-2 0-5 39-3 3 0 5 37 3 37q-3 1-4-3l-6-5-1-1-5-4h-1l-1-2-1-1-2-1-1-1-2-2-2-1-2-2-2-2-2-1-2-2-2-2-4-3zM235 377c1-2 15-2 17-2 131-1 135-3 133 0-3 8-6 3-14 3-133 0-134 3-136 0zM443 29l-2 2-1 3-1 2c2 7 0 6-1 7l-2 2-1 1-1 1-2 2-3 4-2-1-2-32c0-4 13-2 15-3 21-3 6 11 3 12M178 174l2 1 1 1 2 1 2 2 3 2 1 1 2 2 1 2-2 2-3 3-2 2-1 1-2 3-4 4-1 1-2 2q0 2-2 3h-1l-2 1 3-19c0-4-1-12 5-15m-24-13 5 5c2 2 1 5 5 8 2 1-2 36-3 34-10-35-10-42-10-45q1-2 3-2m275-78 1 2 1 2 2 2 2 2 2 2 3 4 2 2c1 0 6 5 2 8l-2 1q-4 5-5 4l-2 1-1 2-2-1c-2-2-5-34-5-34zm41 39 1 2v7l-1 4q-2-3 0-13m-2-88 1 13c-2-6-1-6-1-13M170 208l2-1h1v2c-5 7-3-1-3-1M503 44q10-2 12 0zm-97 4 6 5q-5 0-6-5m-257 91 1 7c-4-3-1-5-1-7m251-96 5 4h-2zM266 89l4 3v1q-3 0-4-4m-26-7q3 1 4 4zm84 119 5 4q-6-3-5-4m-2 13c5 0 5 4 5 4zM213 63q3-3 4 1-1-2-4-1m-27 102 5 4c-4 0-3-1-5-4m245-80 3 4h-1l-2-2zm-28-25q3 0 4 4zM189 22l3 1v2l-3-1zm158 20zl-3 4q0-3 3-5m90 51q3 0 3 4zm-283 68q-2 0-3 2c-5-9 2-2 3-2M427 52l2 1q-1 3-2 2zM195 198v2l-2 2h-1zM154 24l-2 5q-1-6 2-5m63 40q3-1 4 3zm-33 130h1l-3 3zM326 52q1 4-3 4zM195 28l2 4-2-2zm81 94q3 1 2 3-2-1-2-3m210-81-2 1q0-3 2-1m-36 7-3 3zm-85-19 4 2h-2zm-33 178 4 3q-5-1-4-3M273 96h2l1 1v1zm-39-19 3 2h-2zm116 158 4 2h-2zm-53-53h2l2 2zm38-142-2 4zm-14 37v2l-2 2zM185 209v2l-1 1h-1zM443 29q1 3-2 2zm-176 76q5 1 3 2h-1zm170-45zl-2 1v-1zM189 182q2 0 2 2z" style="fill:#fbc93e;fill-opacity:.97" transform="translate(90 209)"/><path d="m470 122 1 2v7l-1 4q-2-3 0-13" style="fill:#eca721;fill-opacity:.05" transform="translate(90 209)"/><path d="m220 361-4 10c0-2-1-9 4-10" style="fill:#e5be40;fill-opacity:.11" transform="translate(90 209)"/><path d="m468 34 1 13c-2-6-1-6-1-13" style="fill:#d8aa3a;fill-opacity:.11" transform="translate(90 209)"/><path d="m170 208 2-1h1v2c-5 7-3-1-3-1" style="fill:#f3cd2e;fill-opacity:.09" transform="translate(90 209)"/><path d="M503 44q10-2 12 0z" style="fill:#ceae1f;fill-opacity:.11" transform="translate(90 209)"/><path d="m4 61 5 4c-5 0-4-2-5-4" style="fill:#edc736;fill-opacity:.07" transform="translate(90 209)"/><path d="M399 387zq1 2-5 4z" style="fill:#eea222;fill-opacity:.11" transform="translate(90 209)"/><path d="m406 48 6 5q-5 0-6-5" style="fill:#d6b328;fill-opacity:.12" transform="translate(90 209)"/><path d="m149 139 1 7c-4-3-1-5-1-7" style="fill:#ddae25;fill-opacity:.06" transform="translate(90 209)"/><path d="m400 43 5 4h-2z" style="fill:#d4b523;fill-opacity:.12" transform="translate(90 209)"/><path d="m266 89 4 3v1q-3 0-4-4" style="fill:#e3c326;fill-opacity:.11" transform="translate(90 209)"/><path d="M240 82q3 1 4 4z" style="fill:#e0c327;fill-opacity:.12" transform="translate(90 209)"/><path d="m324 201 5 4q-6-3-5-4" style="fill:#cead2b;fill-opacity:.14" transform="translate(90 209)"/><path d="M322 214c5 0 5 4 5 4z" style="fill:#cba92a;fill-opacity:.15" transform="translate(90 209)"/><path d="M213 63q3-3 4 1-1-2-4-1" style="fill:#c09f29;fill-opacity:.09" transform="translate(90 209)"/><path d="m186 165 5 4c-4 0-3-1-5-4" style="fill:#d1ad2a;fill-opacity:.15" transform="translate(90 209)"/><path d="m431 85 3 4h-1l-2-2z" style="fill:#f6d830;fill-opacity:.11" transform="translate(90 209)"/><path d="M403 60q3 0 4 4z" style="fill:#e1b426;fill-opacity:.13" transform="translate(90 209)"/><path d="m189 22 3 1v2l-3-1z" style="fill:#dfc848;fill-opacity:.1" transform="translate(90 209)"/><path d="M347 42zl-3 4q0-3 3-5" style="fill:#d4b429;fill-opacity:.13" transform="translate(90 209)"/><path d="M437 93q3 0 3 4z" style="fill:#e0c221;fill-opacity:.08" transform="translate(90 209)"/><path d="M154 161q-2 0-3 2c-5-9 2-2 3-2" style="fill:#c88e1d;fill-opacity:.12" transform="translate(90 209)"/><path d="m427 52 2 1q-1 3-2 2z" style="fill:#e7ca20;fill-opacity:.08" transform="translate(90 209)"/><path d="M195 198v2l-2 2h-1z" style="fill:#f0cb39;fill-opacity:.13" transform="translate(90 209)"/><path d="m370 328 2 1c-2 6-2-1-2-1" style="fill:#efcb4b;fill-opacity:.08" transform="translate(90 209)"/><path d="m154 24-2 5q-1-6 2-5" style="fill:#d09829;fill-opacity:.11" transform="translate(90 209)"/><path d="M471 124v7z" style="fill:#fbbe34;fill-opacity:.31" transform="translate(90 209)"/><path d="M395 357q2 0 3 2-2 0-3-2" style="fill:#e4c52c;fill-opacity:.09" transform="translate(90 209)"/><path d="M217 64q3-1 4 3z" style="fill:#cbad23;fill-opacity:.11" transform="translate(90 209)"/><path d="M481 4zl1 4z" style="fill:#f7df30;fill-opacity:.08" transform="translate(90 209)"/><path d="M184 194h1l-3 3z" style="fill:#eec344;fill-opacity:.15" transform="translate(90 209)"/><path d="M326 52q1 4-3 4z" style="fill:#c9ac35;fill-opacity:.13" transform="translate(90 209)"/><path d="m195 28 2 4-2-2z" style="fill:#d1b720;fill-opacity:.08" transform="translate(90 209)"/><path d="M276 122q3 1 2 3-2-1-2-3" style="fill:#eccc28;fill-opacity:.09" transform="translate(90 209)"/><path d="m486 41-2 1q0-3 2-1" style="fill:#ea5a20;fill-opacity:.07" transform="translate(90 209)"/><path d="m450 48-3 3z" style="fill:#ebc423;fill-opacity:.15" transform="translate(90 209)"/><path d="m365 29 4 2h-2z" style="fill:#d5b041;fill-opacity:.13" transform="translate(90 209)"/><path d="m332 207 4 3q-5-1-4-3" style="fill:#c78d24;fill-opacity:.14" transform="translate(90 209)"/><path d="M273 96h2l1 1v1z" style="fill:#f4d725;fill-opacity:.11" transform="translate(90 209)"/><path d="m234 77 3 2h-2z" style="fill:#f1d438;fill-opacity:.11" transform="translate(90 209)"/><path d="m350 235 4 2h-2zM297 182h2l2 2z" style="fill:#d3a62d;fill-opacity:.14" transform="translate(90 209)"/><path d="m335 40-2 4z" style="fill:#d4a72e;fill-opacity:.15" transform="translate(90 209)"/><path d="M321 77v2l-2 2z" style="fill:#d0a42a;fill-opacity:.15" transform="translate(90 209)"/><path d="M185 209v2l-1 1h-1z" style="fill:#edd340;fill-opacity:.13" transform="translate(90 209)"/><path d="M443 29q0 2-2 2z" style="fill:#f9dd25;fill-opacity:.07" transform="translate(90 209)"/><path d="M267 105q5 1 3 2h-1z" style="fill:#d1af28;fill-opacity:.11" transform="translate(90 209)"/><path d="m228 228 2 4z" style="fill:#c6aa33;fill-opacity:.19" transform="translate(90 209)"/><path d="M216 373v4z" style="fill:#cb9a33;fill-opacity:.1" transform="translate(90 209)"/><path d="M437 60zl-2 1v-1z" style="fill:#ebd120;fill-opacity:.08" transform="translate(90 209)"/><path d="m401 382-1 3z" style="fill:#d39b23;fill-opacity:.08" transform="translate(90 209)"/><path d="m8 32-2 3q0-1 2-3" style="fill:#d8a725;fill-opacity:.22" transform="translate(90 209)"/><path d="m221 200 2 3q-2-1-2-3" style="fill:#d3ba1e;fill-opacity:.15" transform="translate(90 209)"/><path d="m394 392-3 1z" style="fill:#d09515;fill-opacity:.1" transform="translate(90 209)"/><path d="m400 385-1 3v-1z" style="fill:#c5973a;fill-opacity:.14" transform="translate(90 209)"/><path d="M185 179q2-1 3 2z" style="fill:#d1ab2c;fill-opacity:.16" transform="translate(90 209)"/><path d="m495 27 3 1z" style="fill:#cc9822;fill-opacity:.1" transform="translate(90 209)"/><path d="M189 182q2 0 2 2z" style="fill:#c8b134;fill-opacity:.11" transform="translate(90 209)"/><path d="m214 191 2 3q-2-1-2-3" style="fill:#cbb232;fill-opacity:.19" transform="translate(90 209)"/><path d="m21 41-2 2q0-2 2-2" style="fill:#d6b226;fill-opacity:.08" transform="translate(90 209)"/><path d="m10 29-2 2z" style="fill:#f39d45;fill-opacity:.13" transform="translate(90 209)"/><path d="m427 231 2 2z" style="fill:#dfb742;fill-opacity:.18" transform="translate(90 209)"/><path d="M314 68v2z" style="fill:#b09823;fill-opacity:.12" transform="translate(90 209)"/><path d="m317 84-2 3v-2z" style="fill:#b29420;fill-opacity:.12" transform="translate(90 209)"/><path d="m228 23 4-1z" style="fill:#a28b1c;fill-opacity:.09" transform="translate(90 209)"/><path d="M235 79h2l1 2z" style="fill:#b09421;fill-opacity:.12" transform="translate(90 209)"/><path d="m272 94 3 2h-2z" style="fill:#b19323;fill-opacity:.12" transform="translate(90 209)"/><path d="m192 186-2 2z" style="fill:#ecbf21;fill-opacity:.15" transform="translate(90 209)"/><path d="m303 103-2 3v-2z" style="fill:#b09723;fill-opacity:.13" transform="translate(90 209)"/><path d="M288 189h2l1 2z" style="fill:#b09621;fill-opacity:.13" transform="translate(90 209)"/><path d="m296 195 3 2z" style="fill:#ae9621;fill-opacity:.13" transform="translate(90 209)"/><path d="m344 216 3 2h-2z" style="fill:#ae9423;fill-opacity:.12" transform="translate(90 209)"/><path d="M150 51v3z" style="fill:#d1c60d;fill-opacity:.09" transform="translate(90 209)"/><path d="M180 28q3 1 2 3z" style="fill:#b19520;fill-opacity:.13" transform="translate(90 209)"/><path d="m352 222 3 2h-2z" style="fill:#ae9323;fill-opacity:.13" transform="translate(90 209)"/><path d="M304 201" style="fill:#af9122;fill-opacity:.12" transform="translate(90 209)"/><path d="M2 54v3z" style="fill:#d1993b;fill-opacity:.08" transform="translate(90 209)"/><path d="M222 262q1 2-2 3z" style="fill:#b19822;fill-opacity:.14" transform="translate(90 209)"/><path d="M300 87v2l-2 1z" style="fill:#ac9222;fill-opacity:.13" transform="translate(90 209)"/><path d="m342 50-2 3v-2z" style="fill:#b49921;fill-opacity:.13" transform="translate(90 209)"/><path d="m356 31-2 3v-2z" style="fill:#b19421;fill-opacity:.13" transform="translate(90 209)"/><path d="M345 218h2l1 1z" style="fill:#ccb340;fill-opacity:.13" transform="translate(90 209)"/><path d="m194 27 1 1v2l-1-1z" style="fill:#cdb140;fill-opacity:.13" transform="translate(90 209)"/><path d="M279 101h2l1 1z" style="fill:#cab120;fill-opacity:.1" transform="translate(90 209)"/><path d="m340 33-1 3v-2z" style="fill:#cdb31f;fill-opacity:.12" transform="translate(90 209)"/><path d="m301 86-1 3v-2z" style="fill:#cbb23f;fill-opacity:.13" transform="translate(90 209)"/><path d="m237 259-2 3v-1z" style="fill:#ab8e22;fill-opacity:.16" transform="translate(90 209)"/><path d="M162 153v2l-2-1q1 1 2-1" style="fill:#715f16;fill-opacity:.09" transform="translate(90 209)"/><path d="M303 200h2l1 1h-2z" style="fill:#cfb440;fill-opacity:.13" transform="translate(90 209)"/><path d="M353 224h2l1 1z" style="fill:#ccb442;fill-opacity:.13" transform="translate(90 209)"/><path d="m223 69 3 1h-2z" style="fill:#c7a520;fill-opacity:.09" transform="translate(90 209)"/><path d="M315 85v2l-1 1z" style="fill:#cbb11e;fill-opacity:.13" transform="translate(90 209)"/><path d="m315 67-1 3v-2z" style="fill:#c9b11f;fill-opacity:.13" transform="translate(90 209)"/><path d="m186 34 1 3-1-1z" style="fill:#c7af34;fill-opacity:.13" transform="translate(90 209)"/><path d="m287 188 3 1h-2z" style="fill:#c9b21f;fill-opacity:.13" transform="translate(90 209)"/><path d="M301 104v2l-1 1z" style="fill:#c9b11f;fill-opacity:.13" transform="translate(90 209)"/><path d="m295 194 3 1h-2z" style="fill:#cab220;fill-opacity:.13" transform="translate(90 209)"/><path d="m435 73 1 1v2z" style="fill:#c8ab3f;fill-opacity:.12" transform="translate(90 209)"/><path d="m332 44-1 3v-2z" style="fill:#c2ab31;fill-opacity:.15" transform="translate(90 209)"/><path d="M294 180h2l1 1z" style="fill:#c0a931;fill-opacity:.15" transform="translate(90 209)"/><path d="m221 392 2 1z" style="fill:#f0cc32;fill-opacity:.12" transform="translate(90 209)"/><path d="M403 47h2l1 1z" style="fill:#c9b134;fill-opacity:.14" transform="translate(90 209)"/><path d="m193 43 1 3-1-1z" style="fill:#c79a35;fill-opacity:.14" transform="translate(90 209)"/><path d="m316 210 3 1h-1z" style="fill:#b49c21;fill-opacity:.08" transform="translate(90 209)"/><path d="M339 34v2l-1 1v-1z" style="fill:#b69f1f;fill-opacity:.09" transform="translate(90 209)"/><path d="M354 32v2l-1 1z" style="fill:#c69933;fill-opacity:.15" transform="translate(90 209)"/><path d="M323 74v2l-1 1z" style="fill:#bf992b;fill-opacity:.16" transform="translate(90 209)"/><path d="M435 61zv1z" style="fill:#db6519;fill-opacity:.1" transform="translate(90 209)"/><path d="M302 186h2l1 1z" style="fill:#be9f31;fill-opacity:.16" transform="translate(90 209)"/><path d="m293 97-1 3v-2z" style="fill:#be982b;fill-opacity:.16" transform="translate(90 209)"/><path d="M310 192h2l1 1z" style="fill:#c3ab31;fill-opacity:.16" transform="translate(90 209)"/><path d="m307 78-1 3v-2z" style="fill:#bd9f30;fill-opacity:.16" transform="translate(90 209)"/><path d="M318 211h1l2 1h-2z" style="fill:#bb9532;fill-opacity:.17" transform="translate(90 209)"/><path d="m365 233 3 1z" style="fill:#c79a34;fill-opacity:.16" transform="translate(90 209)"/><path d="m346 232 3 1h-2z" style="fill:#c2a431;fill-opacity:.16" transform="translate(90 209)"/><path d="m19 25 3-1z" style="fill:#d8c715;fill-opacity:.12" transform="translate(90 209)"/><path d="M340 51v2l-1 1z" style="fill:#c79020;fill-opacity:.15" transform="translate(90 209)"/><path d="M231 243v3z" style="fill:#8a741c;fill-opacity:.09" transform="translate(90 209)"/><path d="M361 230h2l1 1z" style="fill:#c78f1e;fill-opacity:.15" transform="translate(90 209)"/><path d="M338 36v1l-1 2v-2z" style="fill:#b89331;fill-opacity:.18" transform="translate(90 209)"/><path d="m15 27-4 1z" style="fill:#b66d1c;fill-opacity:.16" transform="translate(90 209)"/><path d="m338 226 3 1h-2z" style="fill:#c59832;fill-opacity:.17" transform="translate(90 209)"/><path d="m354 238 3 1z" style="fill:#b8a333;fill-opacity:.11" transform="translate(90 209)"/><path d="M235 261zl-1 2z" style="fill:#af951d;fill-opacity:.13" transform="translate(90 209)"/><path d="m217 382 1 2z" style="fill:#cba728;fill-opacity:.09" transform="translate(90 209)"/><path d="M235 377v1z" style="fill:#c29b2a;fill-opacity:.16" transform="translate(90 209)"/><path d="m440 34-1 2z" style="fill:#d2a115;fill-opacity:.1" transform="translate(90 209)"/><path d="m438 43-1 2h-1z" style="fill:#b27517;fill-opacity:.07" transform="translate(90 209)"/><path d="m480 3 2 1h-1z" style="fill:#e78316;fill-opacity:.05" transform="translate(90 209)"/><path d="M240 358v2z" style="fill:#836e17;fill-opacity:.09" transform="translate(90 209)"/><path d="M221 67q2-1 2 2z" style="fill:#af892a;fill-opacity:.1" transform="translate(90 209)"/><path d="m238 81 2 1v1z" style="fill:#af892b;fill-opacity:.1" transform="translate(90 209)"/><path d="m270 92 2 2-2-1z" style="fill:#b08a2a;fill-opacity:.1" transform="translate(90 209)"/><path d="M440 97q2-1 2 2z" style="fill:#ae892b;fill-opacity:.1" transform="translate(90 209)"/><path d="M177 202v1q1 1-2 1z" style="fill:#b1892c;fill-opacity:.1" transform="translate(90 209)"/><path d="M371 34q3 0 2 2z" style="fill:#b38433;fill-opacity:.09" transform="translate(90 209)"/><path d="M227 72q3 0 2 2z" style="fill:#b38531;fill-opacity:.1" transform="translate(90 209)"/><path d="m407 64 2 1v1z" style="fill:#af882b;fill-opacity:.1" transform="translate(90 209)"/><path d="m392 36 2 2q-3 1-2-2" style="fill:#b18a2b;fill-opacity:.11" transform="translate(90 209)"/><path d="m440 58-2 2v-1q-1-1 2-1" style="fill:#b58532;fill-opacity:.1" transform="translate(90 209)"/><path d="m232 76 2 1v1z" style="fill:#ad8b27;fill-opacity:.11" transform="translate(90 209)"/><path d="m295 94-1 3z" style="fill:#bc7d1b;fill-opacity:.1" transform="translate(90 209)"/><path d="m317 197 3 1z" style="fill:#c07e1a;fill-opacity:.1" transform="translate(90 209)"/><path d="m176 221-2 2v-1z" style="fill:#b38432;fill-opacity:.1" transform="translate(90 209)"/><path d="m276 97 2 2-2-1z" style="fill:#ae882a;fill-opacity:.1" transform="translate(90 209)"/><path d="M433 89h1l1 2z" style="fill:#b0892c;fill-opacity:.11" transform="translate(90 209)"/><path d="m231 311 2 2q-3 1-2-2" style="fill:#b59128;fill-opacity:.13" transform="translate(90 209)"/><path d="m380 26 2 2q-3 1-2-2" style="fill:#b38a2d;fill-opacity:.11" transform="translate(90 209)"/><path d="M314 208q2-1 2 2z" style="fill:#b08a2b;fill-opacity:.11" transform="translate(90 209)"/><path d="m401 59 2 1v1z" style="fill:#b28a2c;fill-opacity:.11" transform="translate(90 209)"/><path d="M182 31q2 0 2 2z" style="fill:#ae892a;fill-opacity:.11" transform="translate(90 209)"/><path d="m346 25-1 3z" style="fill:#b68734;fill-opacity:.12" transform="translate(90 209)"/><path d="m440 79 2 2h-1z" style="fill:#b1892b;fill-opacity:.11" transform="translate(90 209)"/><path d="m329 66-1 3z" style="fill:#b88a34;fill-opacity:.11" transform="translate(90 209)"/><path d="m309 93-1 3z" style="fill:#b98933;fill-opacity:.12" transform="translate(90 209)"/><path d="M192 202zl-2 2z" style="fill:#b1882c;fill-opacity:.11" transform="translate(90 209)"/><path d="M434 47v1l-2 1z" style="fill:#ad8b27;fill-opacity:.13" transform="translate(90 209)"/><path d="M432 114" style="fill:#ad9918;fill-opacity:.07" transform="translate(90 209)"/><path d="m447 87 2 2h-1z" style="fill:#b1882b;fill-opacity:.11" transform="translate(90 209)"/><path d="m187 191-1 2h-1z" style="fill:#ad8b27;fill-opacity:.12" transform="translate(90 209)"/><path d="m442 56-2 2z" style="fill:#af8c28;fill-opacity:.13" transform="translate(90 209)"/><path d="m297 123-2 2q0-2 2-2" style="fill:#b5892f;fill-opacity:.14" transform="translate(90 209)"/><path d="m386 31 2 2q-2 1-2-2" style="fill:#b38b2c;fill-opacity:.12" transform="translate(90 209)"/><path d="m340 297-2 2z" style="fill:#b58a2f;fill-opacity:.15" transform="translate(90 209)"/><path d="m334 59-1 3z" style="fill:#b88a33;fill-opacity:.13" transform="translate(90 209)"/><path d="M182 213zl-2 2z" style="fill:#ac8c25;fill-opacity:.12" transform="translate(90 209)"/><path d="m490 26 2 1z" style="fill:#c5a623;fill-opacity:.13" transform="translate(90 209)"/><path d="m219 50 2 2q-3 0-2-2" style="fill:#a27f28;fill-opacity:.11" transform="translate(90 209)"/><path d="m326 70-1 3z" style="fill:#b97c1a;fill-opacity:.13" transform="translate(90 209)"/><path d="m218 385 1 2z" style="fill:#baa81f;fill-opacity:.14" transform="translate(90 209)"/><path d="M436 45h1l-2 1z" style="fill:#c5b44e;fill-opacity:.07" transform="translate(90 209)"/><path d="m229 74 2 1z" style="fill:#c2ad16;fill-opacity:.05" transform="translate(90 209)"/><path d="m279 100 2 1h-2z" style="fill:#beac17;fill-opacity:.05" transform="translate(90 209)"/><path d="m178 174 2 1z" style="fill:#ad5b18;fill-opacity:.07" transform="translate(90 209)"/><path d="m435 46-1 2v-1z" style="fill:#c3b13a;fill-opacity:.08" transform="translate(90 209)"/><path d="m377 39 2 1h-1z" style="fill:#c5b339;fill-opacity:.11" transform="translate(90 209)"/><path d="m446 253-1 2z" style="fill:#c5b34b;fill-opacity:.12" transform="translate(90 209)"/><path d="M342 215zl1 1z" style="fill:#c3b117;fill-opacity:.09" transform="translate(90 209)"/><path d="m361 229 2 1h-2z" style="fill:#cbb31a;fill-opacity:.06" transform="translate(90 209)"/><path d="m398 41 1 2z" style="fill:#c6b337;fill-opacity:.09" transform="translate(90 209)"/><path d="M367 31h2v1z" style="fill:#b9a719;fill-opacity:.06" transform="translate(90 209)"/><path d="m213 207 1 2z" style="fill:#c5b239;fill-opacity:.13" transform="translate(90 209)"/><path d="M396 40zl1 1z" style="fill:#c68218;fill-opacity:.06" transform="translate(90 209)"/><path d="M242 70zl1 1z" style="fill:#b79228;fill-opacity:.13" transform="translate(90 209)"/><path d="M192 43h1v2z" style="fill:#c1ad1b;fill-opacity:.07" transform="translate(90 209)"/><path d="m269 182 2 1z" style="fill:#ccb61a;fill-opacity:.09" transform="translate(90 209)"/><path d="M351 37zl-1 1z" style="fill:#c1ad47;fill-opacity:.11" transform="translate(90 209)"/><path d="M185 34h1v2z" style="fill:#bbaa19;fill-opacity:.07" transform="translate(90 209)"/><path d="M365 232v1z" style="fill:#c2ac1b;fill-opacity:.07" transform="translate(90 209)"/><path d="m373 36 2 1z" style="fill:#bfac1b;fill-opacity:.07" transform="translate(90 209)"/><path d="M441 81zl1 1z" style="fill:#c39139;fill-opacity:.08" transform="translate(90 209)"/><path d="m389 49 2 1h-1z" style="fill:#c59831;fill-opacity:.11" transform="translate(90 209)"/><path d="m294 179 2 1h-2z" style="fill:#bba91a;fill-opacity:.07" transform="translate(90 209)"/><path d="m446 179 1 2z" style="fill:#c5b039;fill-opacity:.1" transform="translate(90 209)"/><path d="M331 45v2h-1z" style="fill:#bda919;fill-opacity:.07" transform="translate(90 209)"/><path d="M195 198zl-1 1z" style="fill:#c48217;fill-opacity:.07" transform="translate(90 209)"/><path d="M348 41zl-1 1v-1z" style="fill:#b78f2d;fill-opacity:.13" transform="translate(90 209)"/><path d="M315 195zl1 1z" style="fill:#bb902e;fill-opacity:.13" transform="translate(90 209)"/><path d="M247 74zl1 1z" style="fill:#c49730;fill-opacity:.1" transform="translate(90 209)"/><path d="m178 218-1 2z" style="fill:#baa91b;fill-opacity:.06" transform="translate(90 209)"/><path d="m395 54 2 1h-1z" style="fill:#c39830;fill-opacity:.11" transform="translate(90 209)"/><path d="M461 95zl1 1z" style="fill:#c9a22d;fill-opacity:.12" transform="translate(90 209)"/><path d="m310 191 2 1h-2z" style="fill:#bca819;fill-opacity:.08" transform="translate(90 209)"/><path d="M185 193h1l-1 1h-1z" style="fill:#bf9532;fill-opacity:.09" transform="translate(90 209)"/><path d="M323 74zl-1 2z" style="fill:#c1ac19;fill-opacity:.08" transform="translate(90 209)"/><path d="m201 36 1 2z" style="fill:#c69139;fill-opacity:.12" transform="translate(90 209)"/><path d="M230 60zl1 1z" style="fill:#c49831;fill-opacity:.11" transform="translate(90 209)"/><path d="m321 59-1 2v-1z" style="fill:#beab37;fill-opacity:.13" transform="translate(90 209)"/><path d="m460 94 2 1h-1z" style="fill:#c39c2b;fill-opacity:.13" transform="translate(90 209)"/><path d="m330 206 2 1z" style="fill:#c1ab45;fill-opacity:.09" transform="translate(90 209)"/><path d="M430 85h1v2z" style="fill:#beaa1b;fill-opacity:.06" transform="translate(90 209)"/><path d="M319 212h2v1z" style="fill:#c0aa44;fill-opacity:.09" transform="translate(90 209)"/><path d="m255 95 2 1h-1z" style="fill:#c19a2a;fill-opacity:.11" transform="translate(90 209)"/><path d="M253 79zl1 1z" style="fill:#c19630;fill-opacity:.11" transform="translate(90 209)"/><path d="M292 98v2h-1z" style="fill:#c0a91a;fill-opacity:.08" transform="translate(90 209)"/><path d="m409 65 1 2z" style="fill:#c4b016;fill-opacity:.06" transform="translate(90 209)"/><path d="M337 37v2h-1z" style="fill:#bda843;fill-opacity:.09" transform="translate(90 209)"/><path d="m229 59 2 1h-1z" style="fill:#c3ae46;fill-opacity:.09" transform="translate(90 209)"/><path d="M339 227h2v1z" style="fill:#c3ae19;fill-opacity:.08" transform="translate(90 209)"/><path d="M438 59zl-1 1v-1z" style="fill:#c78216;fill-opacity:.08" transform="translate(90 209)"/><path d="M224 55zl1 1z" style="fill:#c39831;fill-opacity:.11" transform="translate(90 209)"/><path d="M185 209z" style="fill:#beaa19;fill-opacity:.07" transform="translate(90 209)"/><path d="m312 71-1 2z" style="fill:#bea945;fill-opacity:.09" transform="translate(90 209)"/><path d="M448 89zl1 1z" style="fill:#c8923b;fill-opacity:.09" transform="translate(90 209)"/><path d="m318 82-1 2z" style="fill:#bea844;fill-opacity:.09" transform="translate(90 209)"/><path d="M390 50h1l1 1z" style="fill:#c2ad47;fill-opacity:.09" transform="translate(90 209)"/><path d="m178 201-1 2v-1z" style="fill:#c0ae2f;fill-opacity:.11" transform="translate(90 209)"/><path d="M193 171zl1 1z" style="fill:#c39038;fill-opacity:.12" transform="translate(90 209)"/><path d="m417 115-1 2z" style="fill:#bfa91b;fill-opacity:.09" transform="translate(90 209)"/><path d="M396 55h1l1 1z" style="fill:#c3ac46;fill-opacity:.09" transform="translate(90 209)"/><path d="M183 212zh-1z" style="fill:#c09a2b;fill-opacity:.11" transform="translate(90 209)"/><path d="m252 78 2 1h-1z" style="fill:#c0ac45;fill-opacity:.09" transform="translate(90 209)"/><path d="m437 112-2 1z" style="fill:#bba71a;fill-opacity:.1" transform="translate(90 209)"/><path d="m383 44 2 1h-1z" style="fill:#c49731;fill-opacity:.12" transform="translate(90 209)"/><path d="m299 197 2 1z" style="fill:#bda844;fill-opacity:.1" transform="translate(90 209)"/><path d="m314 194 2 1h-1z" style="fill:#bea91a;fill-opacity:.09" transform="translate(90 209)"/><path d="m348 22-1 2z" style="fill:#bfa819;fill-opacity:.09" transform="translate(90 209)"/><path d="m246 73 2 1h-1z" style="fill:#c1ab18;fill-opacity:.09" transform="translate(90 209)"/><path d="M174 222zl-1 1z" style="fill:#c29a2a;fill-opacity:.11" transform="translate(90 209)"/><path d="m323 56-1 2z" style="fill:#bda918;fill-opacity:.1" transform="translate(90 209)"/><path d="m350 221 2 1z" style="fill:#bca743;fill-opacity:.11" transform="translate(90 209)"/><path d="M256 96h1l1 1z" style="fill:#c0ab46;fill-opacity:.1" transform="translate(90 209)"/><path d="m457 30 1 2z" style="fill:#b59f1b;fill-opacity:.1" transform="translate(90 209)"/><path d="m261 100 2 1h-1z" style="fill:#c2962f;fill-opacity:.11" transform="translate(90 209)"/><path d="m338 212 2 1z" style="fill:#bda743;fill-opacity:.11" transform="translate(90 209)"/><path d="M269 107h1l1 1v-1z" style="fill:#c65818;fill-opacity:.07" transform="translate(90 209)"/><path d="m305 341 1 2z" style="fill:#baa519;fill-opacity:.12" transform="translate(90 209)"/><path d="m357 29-1 2z" style="fill:#bca91a;fill-opacity:.11" transform="translate(90 209)"/><path d="m374 22 2 1z" style="fill:#c09530;fill-opacity:.13" transform="translate(90 209)"/><path d="m307 203 2 1z" style="fill:#bda71a;fill-opacity:.11" transform="translate(90 209)"/><path d="m444 107-2 1z" style="fill:#bfaa19;fill-opacity:.11" transform="translate(90 209)"/><path d="M271 107zl1 1z" style="fill:#d25b1b;fill-opacity:.08" transform="translate(90 209)"/><path d="m241 69 2 1h-1z" style="fill:#bca936;fill-opacity:.11" transform="translate(90 209)"/><path d="m247 89 2 1z" style="fill:#c75f19;fill-opacity:.07" transform="translate(90 209)"/><path d="M378 40h1l1 1z" style="fill:#bb8a36;fill-opacity:.1" transform="translate(90 209)"/><path d="m390 35 2 1z" style="fill:#bf8219;fill-opacity:.09" transform="translate(90 209)"/><path d="m264 88 2 1z" style="fill:#bda736;fill-opacity:.12" transform="translate(90 209)"/><path d="m412 269-1 2z" style="fill:#bca61a;fill-opacity:.12" transform="translate(90 209)"/><path d="m261 85 2 1z" style="fill:#c9621c;fill-opacity:.06" transform="translate(90 209)"/><path d="m238 66 2 1z" style="fill:#c9621f;fill-opacity:.06" transform="translate(90 209)"/><path d="m215 43 2 1z" style="fill:#cb611e;fill-opacity:.07" transform="translate(90 209)"/><path d="M384 45h1z" style="fill:#c08e35;fill-opacity:.11" transform="translate(90 209)"/><path d="m311 206 2 1z" style="fill:#bd8c36;fill-opacity:.11" transform="translate(90 209)"/><path d="m436 74 1 2h-1z" style="fill:#ba7f1b;fill-opacity:.08" transform="translate(90 209)"/><path d="M306 79v2h-1z" style="fill:#b97f1b;fill-opacity:.1" transform="translate(90 209)"/><path d="m443 82 1 2z" style="fill:#bb7d1b;fill-opacity:.09" transform="translate(90 209)"/><path d="M352 237h2v1z" style="fill:#c05a1a;fill-opacity:.07" transform="translate(90 209)"/><path d="m304 101-1 2z" style="fill:#bb8b35;fill-opacity:.12" transform="translate(90 209)"/><path d="m297 181 2 1h-2z" style="fill:#bb5a1a;fill-opacity:.07" transform="translate(90 209)"/><path d="m384 30 2 1z" style="fill:#c2811c;fill-opacity:.09" transform="translate(90 209)"/><path d="M347 233h2v1z" style="fill:#ba801c;fill-opacity:.1" transform="translate(90 209)"/><path d="M321 77zl-1 2z" style="fill:#bc581c;fill-opacity:.07" transform="translate(90 209)"/><path d="m302 185 2 1h-2z" style="fill:#ba7e1b;fill-opacity:.1" transform="translate(90 209)"/><path d="m192 170 2 1h-1z" style="fill:#c1811c;fill-opacity:.1" transform="translate(90 209)"/><path d="m343 48-1 2z" style="fill:#bc8b35;fill-opacity:.12" transform="translate(90 209)"/><path d="m378 25 2 1z" style="fill:#bf801b;fill-opacity:.1" transform="translate(90 209)"/><path d="m349 40-1 2v-1z" style="fill:#be811b;fill-opacity:.11" transform="translate(90 209)"/><path d="m395 39 2 1h-1z" style="fill:#c85d1c;fill-opacity:.09" transform="translate(90 209)"/><path d="m450 90 1 2z" style="fill:#c2841d;fill-opacity:.09" transform="translate(90 209)"/><path d="M320 60v1z" style="fill:#b87e1a;fill-opacity:.11" transform="translate(90 209)"/><path d="M333 42v2h-1z" style="fill:#bd601c;fill-opacity:.07" transform="translate(90 209)"/><path d="M224 70h2v1z" style="fill:#b85e1c;fill-opacity:.07" transform="translate(90 209)"/><path d="m327 218 2 1z" style="fill:#bd7f1a;fill-opacity:.12" transform="translate(90 209)"/><path d="m223 54 2 1h-1z" style="fill:#c0801b;fill-opacity:.11" transform="translate(90 209)"/><path d="m322 200 2 1z" style="fill:#bb801a;fill-opacity:.12" transform="translate(90 209)"/><path d="m197 197-1 2v-1z" style="fill:#c85a1c;fill-opacity:.09" transform="translate(90 209)"/><path d="m235 64 2 1z" style="fill:#be8e36;fill-opacity:.13" transform="translate(90 209)"/><path d="m331 221 2 1z" style="fill:#bd801b;fill-opacity:.13" transform="translate(90 209)"/><path d="M262 101h1l1 1z" style="fill:#bf811b;fill-opacity:.12" transform="translate(90 209)"/><path d="m181 176 2 1z" style="fill:#bc7f1b;fill-opacity:.12" transform="translate(90 209)"/><path d="m209 202 1 2z" style="fill:#be821b;fill-opacity:.13" transform="translate(90 209)"/><path d="m341 214 2 1h-1z" style="fill:#be5d1a;fill-opacity:.1" transform="translate(90 209)"/><path d="m255 249 1 2z" style="fill:#be5d1d;fill-opacity:.14" transform="translate(90 209)"/><path d="m261 284 1 2z" style="fill:#bc5e1c;fill-opacity:.15" transform="translate(90 209)"/><path d="m440 123-2 1z" style="fill:#b97d1a;fill-opacity:.11" transform="translate(90 209)"/><path d="m352 36-1 2v-1z" style="fill:#b75c1d;fill-opacity:.13" transform="translate(90 209)"/><path d="m358 239 2 1z" style="fill:#cda62d;fill-opacity:.31" transform="translate(90 209)"/><path d="m429 83 1 2z" style="fill:#c19f32;fill-opacity:.25" transform="translate(90 209)"/><path d="M293 319" style="fill:#b95a1a;fill-opacity:.13" transform="translate(90 209)"/></svg>