<svg xmlns="http://www.w3.org/2000/svg" xml:space="preserve" style="fill-rule:evenodd;clip-rule:evenodd;stroke-linejoin:round;stroke-miterlimit:2" viewBox="0 0 800 800"><path d="m534 10-1 2 8 7 2 3 3 2 2 3h1l1 1 1 2 6 5 9 9 1-1c14 18 33 32 38 40l4 4s1 9-1 13c-2 6-10 13-10 14l-1-1-22 20v1q-1 2 0 2l-3 3-1-1-15 15-7 6q-1 2 0 2l-4 4-1-1-7 6c-54-53-54-54-57-53-10 2 0 11 0 12l49 49h1c-6 3-5 4-9 8q-1 2 0 2l-3 3-1-1-9 9c-8 6-7 7-14 13q-1 2 0 2c-6 4-5 7-8 5l-51-49c-16-15-25-30-31-23-3 3 0 7 1 7l73 73-12 12-2 2 1 1-2 2-1-1-5 5-10 9-12 12v-1l-39-37c-4-4-14-16-18-8-3 4-1 5 34 39l14 14h1l-8 8q-2 2 0 2l-2 2q0-1-2 0l-14 14c-6 4-5 5-10 9q-1 2 0 2l-3 3-1-1-4 4-73-75c-3-1-13 2-3 11l68 71-1 2h-1l-6 7-3 3h-1q-1 2 0 2l-3 3q0-2-2 0l-1 1-3 3 1 1-2 2-1-1-14 13-3 3 1 1-4 2-27-26c-8-6-22-29-28-19-3 5 0 5 45 53l-2 4c-6 4-5 5-11 10q-1 2 0 2l-4 4q0-1-2 0l-23 22v-1c-42-42-41-43-48-48-10-8-24-31-30-21-4 5 0 5 57 64l13 14-1 3-1-1-5 5h-1l-6 7-4 3q-1 2 0 2l-5 5q0-1-2 0l-8 8-6 5q-3 2-1 4l-2-1c-10-9-9-10-24-22-22-20-21-27-29-23q-3 5 0 9l18 18 26 26q0 3-4 7l-1-1-18 17 1 1-9 9-1-1-8 7-3 3-68-68c-6-3-12 4-6 9l66 67c0 2-1 2-6 8l-1-1c-4 3-2 4-6 6l-9 8-4 4 1 1-8 8-1-1c-4 3-2 4-6 6l-8 7-5 5 1 1c-6 4-4 5-11 9-1 1-16 12-25 2q-3-1-5-4l-17-17 1-1-18-18-1 1q0-2-10-11l1-1-2-2-6-7-2-1-4-4q-2-4-5-3c-2-6-4-5-7-10-1 0-7-8-4-22 1-4 2-3 5-7l1-1 1 1 8-8h1v-1h1v-1h1l8-8q1-2 0-2l7-7 1 1 5-5 3-3 17-16 4-3v-1h1l1-2 6-5q2-2 0-2l3-3 1 1 10-10 2-1 10-10q2-2 0-2l3-3 1 1 4-4 6-5 1-2 7-5 23-23q1-2 0-2l8-8 1 1 7-6 10-10q2-2 0-2l3-3 1 1 5-5 4-4 5-4 1-1q1-2 0-2l3-3 1 1 5-5 17-16q2-2 0-2l7-7 1 1 4-4 1-1 2-1 4-5 2-1 1-2 1-1 5-4-1-1 2-2 1 1 2-2 10-10 3-2 1-1q2-2 0-2l7-7 1 1 18-17q2-2 0-2l6-6 1 1 3-3h1v-1h1l7-7q2-2 0-2l8-7 10-11 1 1 7-6q2-2 0-2l11-11 1 1 6-6-1-1q3-1 5-4l1 1v-1l2-2 1-1h1l-1-1 7-7 1 1 1-1 11-10v-2l20-20 3-3c2-2 3-1 15-14 9-8 10-8 18-17 10-9 9-10 16-14l26-25c7-5 9-12 26-24q3-5 5-5 5-2 18 1c1 1 1 3 8 6" style="fill:#fefdfb;fill-opacity:1" transform="translate(96 103)"/><path d="m383 319-8 7-68-71c-10-9 0-12 3-11zM486 219l-8 9v-1l-73-73c-1 0-4-4-1-7 6-7 15 8 31 23zM280 417l-6 7-2 2-13-14c-57-59-61-59-57-64 6-10 20 13 30 21 7 5 6 6 48 48M178 516l-8 8-66-67c-6-5 0-12 6-9zM537 170l-8 8-49-49c0-1-10-10 0-12 3-1 3 0 57 53M435 268c-4 5-4 5-9 8l-14-14c-35-34-37-35-34-39 4-8 14 4 18 8zM230 466l-9 8-26-26-18-18q-3-4 0-9c8-4 7 3 29 23 15 12 14 13 24 22M332 368l-9 9-1-1c-45-48-48-48-45-53 6-10 20 13 28 19z" style="fill:#041d31;fill-opacity:1" transform="translate(96 103)"/></svg>