<svg xmlns="http://www.w3.org/2000/svg" xml:space="preserve" style="fill-rule:evenodd;clip-rule:evenodd;stroke-linejoin:round;stroke-miterlimit:2" viewBox="0 0 800 800"><path d="M308 615c-11 0-69 1-135-32-44-22-68-46-71-48-4-3-2-4-7-7-6-4-5-7-9-9-4-3-3-3-6-7l-25-30c-3-9-53-71-53-169 0-30 1-30 2-42 9-88 61-149 61-150 6-9 28-32 29-33s9-9 35-28c43-32 81-42 95-47 13-4 43-9 46-9l18-1 3-1 40 1 7 1 8 1c16 1 46 10 48 10 29 10 29 11 31 12l50 26c11 7 38 29 38 30l7 6c36 37 52 68 55 74 27 51 38 93 38 154l-1 16c-1 29-13 71-17 82l-4 9c-9 27-35 66-41 72-8 8-6 9-13 17l-4 3-6 8c-6 3-5 5-8 7l-5 4-5 5-7 6-9 7-29 20c-45 25-88 42-156 42M19 285A288 288 0 0 1 162 57c7-4 29-18 73-29l30-6c1 0 25-7 12-1q-6 1-18 9c-1 1-2 0-15 10l-7 3-23 20-20 19-14 17c-6 6-40 52-55 95l-7 20-2 8-4 14c-2 7 0 12-8 13-7 1-41 11-60 21-13 6-15 9-21 12q-1 3-4 4zm2 51q1 2 13 10l17 10c49 19 53 14 53 19l1 6 1 9 6 26 8 23 11 27c5 13 12 22 12 23 3 7 4 6 6 10 5 9 27 37 29 38 4 2 3 5 9 9l5 5c9 6 9 9 12 11l6 4c4 4 27 18 31 21 14 7 15 5 20 8 11 5-24-5-25-6-33-6-73-29-78-33-25-14-42-31-44-32-4-3-3-3-6-7l-7-6-7-7-14-16-7-10-8-12c-15-25-20-32-31-62-13-39-13-57-15-66zM328 31l13 5 20 11c4 2 4 1 15 9 88 66 102 187 102 187-1 2-19-2-23-3-4 0-41-6-54-6-6 0-4-3-6-8l-4-30c-17-97-56-151-59-158l-5-6zm0 560c3-6 26-50 42-101 6-20 11-36 17-67l4-24s0-7 4-7l15-1 11-1 10-1 9-1c9-1 34-6 35-4l-4 19-13 40-6 13c-4 9-13 32-35 63l-15 17c-1 2 0 2-15 16l-5 6-31 23-14 7-5 3-6 3h-1zm-28-366c-1 7-4 4-17 4l-18 1-44 2q-8 2-7-1c0-12 15-85 34-120l2-4 3-6 8-14 9-14 6-8 8-10 13-14c1 0 2-4 3-1v185m-1 360-1 1c-45-54-59-104-62-113-2-3-14-45-15-55q-2-3-4-21-3-6 1-6c5 0 28 3 56 3l23 1c3 0 2 1 2 39v151m38-339c12 2 44 0 44 5 3 23 3 76 0 92 0 3 1 3-3 32 0 4-14 2-18 3-2 0-43 1-44-1V251q-2-5 3-5zm-144 39c-3 17 2 67 2 73v14l-67-10c-4-2-9 0-10-8 0-1-2-42-1-48l1-13 1-10 2-13 2-8c1 0 10-3 17-3 4 0 3-2 51-7h4l-1 12-1 5zm306 8c0-24-2-24-1-26 1-3 44 10 64 19l19 12c14 14 10 21 2 28-4 4-17 17-64 30-22 6-23 5-23 3l2-21c2-23 1-23 1-25q1-3 0-20M328 31l-1 1-2-2zM19 285v1zm2 51-2 2v-3z" style="fill:#f8f6f4;fill-opacity:.98" transform="translate(92 89)"/><path d="m597 290-1 1q-2 0-5-4c-36-30-94-35-96-40-1-1-14-135-114-206-30-21-46-21-36-21l27 5a292 292 0 0 1 224 260zM356 595c38-20 109-83 135-211q0-7 7-7c80-17 97-41 97-41 2 0 2 1-1 22a289 289 0 0 1-227 236c-10 2-11 3-11 1M208 305c0-4 1-52 3-55 1-3 62-5 86-5q5-1 4 6c-1 127 0 127-2 128-1 1-81-3-86-4-4-2-5-64-5-70M188 524c-8-8-48-52-65-128-3-17-4-20 0-20 69 14 70 10 76 12 3 2 6 75 50 155 21 38 34 46 26 43-37-17-53-25-87-62M473 367c-7 1-54 8-77 9-4 0-1-2 1-40 4-47-1-85 1-86 1-1 18 1 28 2 4 1 54 7 55 10 4 6 4 102-3 104zM282 34v2c-12 12-58 54-80 172-5 24-2 27-8 28-47 4-67 10-68 8 0 0 9-48 41-100C212 71 272 40 279 36zM324 57c42 69 52 137 56 174 1 4-3 0-60-1-6 0-5-1-5-6V44q2-2 6 7l1 2zM315 494v-78c0-18-3-22 3-22 31 0 57-2 58-1s-10 89-56 178c0 2-6 15-6 9zM27 302c6-7 8-11 27-20s50-17 52-17c1 1-3 23-4 41v49c-1 2-31-8-45-14-41-19-34-32-30-39" style="fill:#fbc93e;fill-opacity:1" transform="translate(92 89)"/><path d="M19 285v1z" style="fill:#faf1e9;fill-opacity:.24" transform="translate(92 89)"/><path d="M282 34h1l-1 2z" style="fill:#f8efd8" transform="translate(92 89)"/><path d="m328 591-3 3z" style="fill:#c4c2b7;fill-opacity:.45" transform="translate(92 89)"/></svg>