<svg xmlns="http://www.w3.org/2000/svg" xml:space="preserve" style="fill-rule:evenodd;clip-rule:evenodd;stroke-linejoin:round;stroke-miterlimit:2" viewBox="0 0 800 800"><path d="m351 6-2 2c-4 1-2 19 16 18l32-4c14 5 15-1 44 5l3-2 9 3c-2 3 0 2 5 6 7 6 10 10 19 16v2c3 5 2 6 6 11 7 9 6 10 7 34l-1 3c-4 8-3 209-3 254 0 19 3 21-2 25h-2c-5 4-5 4-11 5q-12 3-10 4l-30 1h-3c-49-2-59 1-70-2h-21c-3-1-8 4-14 1l-2 1c-10 2-10-1-20 3-3 1-9-2-40-1-3 0-3-2-47-2-10 0-10-3-12-3-13 1-50-2-55 1-10 6-10 2-13 2-4 1-6 2-36 41l-9 12 1 1c-1 3-43 53-49 60l-1-87c-1-2-4 4-23-13q0-5-5-5l-6-12c-3-7-3-8-3-98 0-173-2-173 0-188 3-4 1-13 1-14l-2-2v-3C2 23 12 13 49 4c16-4 188 1 211 1z" style="fill:#fefdfb;fill-opacity:.99" transform="translate(143 195)"/><path d="M323 319c-168-11-142-239 8-235 119 3 158 169 42 224-19 9-45 11-50 11" style="fill:#061f33" transform="translate(143 195)"/><path d="M351 6h54c15 5 66-6 88 7 1 1 11 9 13 16 1 1 5 12 7 22 2 11 2 267 2 291 0 40 4 43-10 60l-1-1q-3 2-5 6c-15 13-35 11-38 11-13 0-19-4-23-1H293c-14 0-13-2-27-2l-68 1c-8-2-26 1-33 1-17 0-21-5-30 9l-37 43c-9 8-44 57-51 55-9-4-6-18-6-21 6-7 48-57 49-60l-1-1 9-12c30-39 32-40 36-41 3 0 3 4 13-2 5-3 42 0 55-1 2 0 2 3 12 3 44 0 44 2 47 2 31-1 37 2 40 1 10-4 10-1 20-3l2-1c6 3 11-2 14-1h21c11 3 21 0 70 2h3l30-1q-2-1 10-4c6-1 6-1 11-5h2c5-4 2-6 2-25 0-45-1-246 3-254l1-3c-1-24 0-25-7-34 3-6-1-5-14-35l-11-4-15-1q-1-1-3 1c-17-5-18-4-43-2l-32 4c-18 1-20-17-16-18z" style="fill:#dcdddd;fill-opacity:.98" transform="translate(143 195)"/><path d="M129 327s-7-2-7-9V156c0-10 10-8 19-8 20 0 36-2 37 7l-1 142c0 26 2 31-7 30z" style="fill:#041d31" transform="translate(143 195)"/><path d="M156 317c-23 1-23 0-24-1l1-143c0-10-3-14 6-14 16 0 28-1 28 3 0 12 1 153-1 155z" style="fill:#f9c83d" transform="translate(143 195)"/><path d="M364 171c-9-2-10-1-11-3-12-75-29-77-23-77 94 4 111 104 103 101-28-12-27-14-69-21M333 311q-7 1-5-3c20-22 24-71 27-71 6-1 50-2 74-23 5-4 7-10 6-4-11 89-91 99-102 101M217 226c-2-10-2-11-1-11 1-2 1-1 13 3 36 13 55 11 56 17 14 74 31 76 24 75-78-12-90-79-92-84M283 163l-2 8c-64 12-66 26-66 21 3-34 29-82 81-96 1-1 16-5 13-2-20 23-22 44-26 69" style="fill:#fefdfb" transform="translate(143 195)"/><path d="M306 176c4 0 35-1 39 1 4 1 3 45 2 51-1 5-53-2-55-2-3-2-3-29-3-44 0-7 13-6 17-6" style="fill:#fdfcfb" transform="translate(143 195)"/><path d="m325 168-33 1c-5 1 5-60 28-73 2-2 18 20 25 71 0 1 0 2-20 1M370 228c-4 0-15 3-15-1 2-46-3-50 2-49 42 4 75 19 73 22-4 9-16 15-18 16-12 6-39 11-42 12" style="fill:#fdfdfb" transform="translate(143 195)"/><path d="M330 237c10 0 17-4 15 6-8 50-26 65-27 63-10-12-31-73-24-72z" style="fill:#fdfcfb" transform="translate(143 195)"/><path d="M159 85c48 15-3 71-27 37-10-13-2-37 23-37z" style="fill:#041d31" transform="translate(143 195)"/><path d="M277 179q4-1 4 2c1 38 3 38 2 42-1 3-70-15-67-19 7-13 56-24 61-25" style="fill:#fdfcfa" transform="translate(143 195)"/><path d="M168 108c-7 30-43 5-24-9q11-6 14-3c8 2 8 3 10 12" style="fill:#fac83d" transform="translate(143 195)"/><path d="M440 24q2-2 3-1l15 1 11 4c13 30 17 29 14 35-4-5-3-6-6-11v-2c-9-6-12-10-19-16-5-4-7-3-5-6l-9-3z" style="fill:#e8e8e7" transform="translate(143 195)"/><path d="M397 22c25-2 26-3 43 2l4 1-3 2c-29-6-30 0-44-5" style="fill:#ededec" transform="translate(143 195)"/><path d="M428 389h3z" style="fill:#ecebea" transform="translate(143 195)"/></svg>