<?xml version="1.0" encoding="UTF-8" standalone="no"?>
<!DOCTYPE svg PUBLIC "-//W3C//DTD SVG 1.1//EN" "http://www.w3.org/Graphics/SVG/1.1/DTD/svg11.dtd">
<svg width="100%" height="100%" viewBox="0 0 800 800" version="1.1" xmlns="http://www.w3.org/2000/svg" xmlns:xlink="http://www.w3.org/1999/xlink" xml:space="preserve" xmlns:serif="http://www.serif.com/" style="fill-rule:evenodd;clip-rule:evenodd;stroke-linejoin:round;stroke-miterlimit:2;">
    <g transform="matrix(1,0,0,1,200,148)">
        <path d="M267,338C272.333,339.333 275.333,339.333 276,338L284,338C288,340 323,339 326,339C330,341 346,340 365,340L369,340C375,343 376,340 382,343L384,344L384,346L385,430C385,434 400,431 403,432C406,434 424,433 435,433C439,433 444,442 438,448L429,457L414,471L408,478C404.667,482 400.667,486 396,490L390,497C387,501 386,500 384,505L382,505L382,506L366,522L361,528C350,541 349,540 348,541C345,546 344,545 340,550L330,561L325,564L319,562C315.667,557.333 313.333,555 312,555L312,554L311,554L311,553L310,553C306.667,549 304.333,547 303,547L302,545L296,539L296,538L295,537C291,532 289,534 286,529C284,524 282,526 279,522L272,515C269,511 268,512 264,508L212,456C208,451 199,445 203,439C206,433 212,434 214,434L256,433L258,434L257,430C258,367 255,346 257,342L258,342L259,340C263,337 263,338 267,338M272,493C268,490 233,453 230,452C228,450 231,450 231,450L254,449C260,448 273,452 274,445L274,419L273,416L273,366C273,358 269,354 274,355C278,355 311,354 315,356C317,356 367,355 368,358L368,375L369,393C369,444 368,447 373,448C406,452 418,445 411,451C408,454 409,455 405,457C404,458 405,459 393,471C392.333,472.333 390.333,474 387,476C386,477 387,478 375,490L369,496L367,497C364,504 362,502 355,512L351,515L349,516C346,523 344,521 337,531C333,534.333 329,538.333 325,543C323,547 323,540 316,536C311,534 313,532 309,529L304,524L303,522C302.333,522.667 300,520.667 296,516L295,514C291,512 289,510 289,508L287,507L274,494L272,493Z" style="fill:rgb(251,200,61);fill-opacity:0.98;"/>
    </g>
    <g transform="matrix(1,0,0,1,200,148)">
        <path d="M182,484C226,484 226,485 227,486C230,488 234,497 223,499L206,500L201,499L109,499L104,500L58,499C51,497 40,503 29,494L22,489C21,487 13,484 6,464C6,460 5.333,455.333 4,450L5,433L4,402L4,265C5,262 2,262 3,257L3,130L2,119L2,53C2,50 2,35 13,22C15,20 16,21 18,16L23,13C24.333,12.333 26,11.333 28,10C32,7 33,9 41,5C41.667,5.667 44,5.333 48,4C53,3 56,5 67,5L108,4C112,3 185,5 190,3C194,2 268,4 273,2C275,2 286,1 289,5C305,21 345,66 365,85C368,88 367,89 371,91L378,99C382,104 379,105 379,135L380,161L379,177C379,182 378,182 380,186C381,190 379,276 381,281C381,281 382,320 380,324C376,331 369,327 368,327C363,324 367,310 364,303C363,299 365,213 363,208L363,114C362,113 361,115 346,115L333,116C329,117 311,115 306,117C296,120 279,108 275,97C272,88 273,88 274,85L274,50C272,43 275,20 272,19L238,19C233,21 161,19 155,21C151,22 77,20 72,22C65,24 49,18 34,26L25,33C20.333,42.333 18,48 18,50L18,61L19,69L19,72L20,191L20,236C20,261 19,325 21,330C22.576,370.318 22.576,410.682 21,451C21,453 23,467 31,474C33.667,478.667 39,482 47,484C51,484 51,482 55,484L123,484C143,485 145,484 146,483L167,484C173,484 173,482 178,484L182,484ZM291,34L306,50C317,60 316,61 317,62C321,64.667 323.333,67 324,69C329,71 328,74 331,76C336,78 335,81 338,82C340,83.333 341.667,85.333 343,88L351,95C351,95 356,98 351,98L335,99C302,99 302,102 297,98C287,88 292,83 291,77L290,51C290,36 289,35 291,34" style="fill:rgb(255,254,251);fill-opacity:0.95;"/>
    </g>
    <g transform="matrix(1,0,0,1,200,148)">
        <path d="M213,208L212,210C212,211 215,208 229,221C231,222.333 234.333,227 239,235L239,237L240,239C240.667,241.667 241.333,242.667 242,242C242,256 242,256 240,262C240,260.667 239.667,260.667 239,262L231,275C226,282 224,280 221,285L218,287C216,287.667 214.667,289 214,291L213,290L206,294C205.333,294 204.333,294.667 203,296C196,299 190,299 173,299C170.333,299 168.333,296.333 167,291L169,287L168,278L166,278L166,254L167,253L167,245C168,231 169,231 166,226L166,224L168,220C168.667,218 168.333,215.667 167,213L169,206C171,204.667 173.667,203.667 177,203C179,201 190,202 191,202C195,204 199,202 213,208M200,228C201,228 215,233 219,242C220.333,249.333 220,254 218,256C217,258 211,270 196,274C188,277 188,275 188,275L187,268C187,250 188,250 186,233C186,228 185,223 192,226C194,226 196.667,226.667 200,228M218,256L219,257C220,259 213,268 210,269L209,269C209.667,269 208.667,270 206,272C204,273 189,281 186,279C183,275 187,268 187,268L188,275C188,275 188,277 196,274C211,270 217,258 218,256M186,233C188,250 187,250 187,268L187,260C186.333,259.333 185.667,258.333 185,257L184,237C184.667,234.333 185.333,233 186,233" style="fill:rgb(255,254,252);fill-opacity:0.95;"/>
    </g>
    <g transform="matrix(1,0,0,1,200,148)">
        <path d="M114,203C124,203 124,203 134,206L135,208L136,209L138,210C156,219 164,241 145,256C139,260 132,262 135,264L136,264L124,267C120,264 120,266 106,266C104.667,264.667 103.667,265.333 103,268L103,279C102.333,281.667 103,283.667 105,285C105,290 106,294 99,298L97,297L98,296L97,296L96,297L92,297L92,299L90,298L87,294C86.333,292.667 85.667,292.667 85,294C83,289 83,289 83,262C86,256 83,245 84,238L82,234L82,222L81,217C82,216 83,210 87,207C98,202 114,203 114,203M114,225L115,225C116,225 131,227 134,234C135,234 136,242 120,244L115,245C111,247 111,246 107,245L105,243C105,228 104,227 108,226C110,224.667 112,224.333 114,225M115,225C115,224.333 116.333,224 119,224L130,227C130,227 140,232 135,239C132,244 120,248 118,246L116,245L115,245L120,244C136,242 135,234 134,234C131,227 116,225 115,225M114,225C112,224.333 110,224.667 108,226C104,227 105,228 105,243L105,232C104.333,231.333 103.667,231 103,231L103,227C103.667,224.333 105,223.333 107,224L110,225L114,225ZM105,242L107,244L105,245L105,242Z" style="fill:rgb(255,254,252);fill-opacity:0.94;"/>
    </g>
    <g transform="matrix(1,0,0,1,200,148)">
        <path d="M256,214C257,202 261,204 290,204C315,204 317,203 318,209C318,209 319,215 315,219C312,223 307,221 307,221C304.333,221 303,221.333 303,222L302,221L285,221C279,221 276,219 278,224L278,236L276,239L277,240L279,240L280,241C289,242 301,239 303,246C307,264 290,259 288,259L280,259C274,258 276,265 276,288C276,297 272,295 268,298C265,301 258,294 256,292L255,290C256.333,287.333 256.667,285 256,283L255,278C254.333,241.333 254.667,220 256,214" style="fill:rgb(255,254,252);fill-opacity:0.95;"/>
    </g>
    <g transform="matrix(1,0,0,1,200,148)">
        <path d="M438,433L442,442L441,443L440,445L440,447L438,448C436,449 427,458 422,465L421,467C416,469 334,558 327,564L322,564L320,563L319,561L286,530C282,525 244,487 234,479L233,477L210,456L208,454L207,452C204,449 194,442 206,435L256,433C262,433 255,346 258,341C261,336 263,339 332,339C381,339 382,342 382,346C386,362 383,433 386,433C404,435 430,430 438,433" style="fill:rgb(251,201,62);fill-opacity:0.98;"/>
    </g>
</svg>
