<svg xmlns="http://www.w3.org/2000/svg" xml:space="preserve" style="fill-rule:evenodd;clip-rule:evenodd;stroke-linejoin:round;stroke-miterlimit:2" viewBox="0 0 800 800"><path d="M511 28q-1 3 2 2l7 7q1 3 1 2l8 9 6 10 2 6c8 14 9 32 10 34 3 3-4 7-5 8-5 7-7 5-9 9-4 6-7 4-10 11h-2v1l-3 2-15 15c-4 5-6 4-10 9-4 6-5 4-9 10h-1v1h-1v1l-2 1-16 16c-4 6-6 4-9 10h-2v1l-3 2-15 15c-3 5-5 4-9 8-4 6-5 4-9 10l-1 2-30 29-4 3-23 21c-4 6-6 4-9 11h-2v1l-3 2-24 23c-2 4-3 3-6 6l-14 14-48 46c-4 6-5 4-9 10h-1v1h-1v1l-2 1-16 16c-4 6-6 4-9 10h-2v1l-15 14-5 5c-9 8-8 9-9 10q-7 4-8 7l-2 2-2 1-15 15c-4 6-7 4-10 11h-2v1l-2 2c-1-2-11-32-39-63-40-46-53-39-61-43l2-3q5-3 15-13 3-2 5-6l7-5c11-11 12-10 14-15h1l1-1 3-2 14-13c4-6 19-17 22-23h1l1-1 18-16c4-6 18-17 20-21q3 1 2-2l4-3c14-13 15-13 15-15h1l1-1 3-2q14-13 16-17h2v-1l10-9c4-4 6-4 8-9h1l1-1 3-2q14-13 16-17h2v-1l9-8c4-6 7-4 10-11h2v-1l19-18 1-2 3-1 16-16q0 1 1-2l4-2 16-16 1-2 3-1 16-16 1-1v-1l2-1 8-7c3-5 5-4 10-10l1-2 3-1 16-16h1v-2l3-1 7-7c4-5 6-4 10-10h1v-1h1v-1l31-29c3-3 31 2 55 20z" style="fill:#fbc93e;fill-opacity:1" transform="translate(138 121)"/><path d="M43 388c8 4 21-3 61 43 28 31 38 61 39 63q0 2-4 5c-7 2-8 4-22 8l-2 1-46 16h-1c-2-2 1-13-11-28-4-5-7-10-18-16-16-8-21-5-23-4l5-23 1-3 1-5 1-2 1-7 1-3 1-4 2-10 1-3 4-15c3-6 0-10 9-13" style="fill:#9ea1a4;fill-opacity:1" transform="translate(138 121)"/><path d="M16 476c2-1 7-4 23 4 11 6 14 11 18 16 12 15 9 26 11 28h1l-4 2c-5 0-5 0-51 16l-2 1c-10-1-10-3-10-7l6-23c4-13 2-13 2-15 4-10 2-11 6-22" style="fill:#fac83e;fill-opacity:1" transform="translate(138 121)"/><path d="m12 543 2-1z" style="fill:#8f8c8a;fill-opacity:.32" transform="translate(138 121)"/></svg>