<svg xmlns="http://www.w3.org/2000/svg" xml:space="preserve" style="fill-rule:evenodd;clip-rule:evenodd;stroke-linejoin:round;stroke-miterlimit:2" viewBox="0 0 800 800"><path d="m52 278-2-2c-5-3-4-5-7-8-2-2-13-13-21-30-21-42-17-57-19-66l-1-14 1-10c0-9 1-9 2-15l4-19 12-27 2-4 3-5c5-9 20-26 20-27q4-2 7-6l13-12c2 0 8-6 27-15 27-14 49-15 52-15l25-1c37 0 74 20 91 34l14 12c6 4 4 5 10 10a166 166 0 0 1 38 92c0 23 2 47-17 85-5 11-8 14-10 17l-5 7-5 7-8 8c-3 5-4 4-8 8-9 9-28 21-31 22-39 20-62 19-83 19-12 0-27-3-29-4q-7-2-7-1c-11-5-12-4-28-12l-8-4-10-6q-14-9-15-12-4-2-7-6M220 46l10 5c2 2 14 8 22 17l6 6c13 12 23 32 25 37l2 6q3 7 2 7c6 19 5 20 5 22q2 6 1 9c3 7 0 19 0 21 0 7-2 7-2 12 0 4 0 5-5 21-5 13-7 13-11 21-1 4-2 3-4 6-6 12-7 10-8 11q1 2-6 9l-4 3c-9 6-10 10-25 18l-8 4-9 5-6 1-11 3c-12 4-23 4-25 4q-2 3-13 1c-5-2-5 0-10-1l-9-2-15-4-9-3-21-11-8-6-3-2-3-1-5-6-4-4q-1 1-5-5l-6-7-6-9a141 141 0 0 1-19-55q-1-6-1-11c-3-7 0-8 0-12 0-14 2-14 3-24l8-22c10-21 21-33 21-34 2-3 4-2 6-5 1-4 16-13 18-15 2-3 24-14 24-14l9-2 10-3c13-5 13-3 15-3q4-1 9-1c7-3 16 0 19 0l8 1 9 2 8 1 8 4c7 1 7 2 13 5m0 0c4-2 4 0 9 3l1 2zm8 231q1 2-6 5l-2-1zm24-209 1-1 6 6-1 1zm31 43 2 1 1 3v1l-1 1zM81 266l3 2-1 1-2-1q-1-2 0-2" style="fill:#f8f7f5;fill-opacity:.96" transform="translate(238 244)"/><path d="M134 150c1-9 11-16 12-17 2-1 1-2 11-6 3-1 18 0 23 6 1 0 15 7 14 24 0 8-1 8-3 15l-4 5-1-1-3 3 1 1-7 5-2-1-2 1h-2v2c-10 3-24-3-27-7q-1-1-5-6l-4-8-2-5c-1-4 0-4 1-11" style="fill:#f8f7f5;fill-opacity:.94" transform="translate(238 244)"/></svg>