<?xml version="1.0" encoding="UTF-8" standalone="no"?>
<!DOCTYPE svg PUBLIC "-//W3C//DTD SVG 1.1//EN" "http://www.w3.org/Graphics/SVG/1.1/DTD/svg11.dtd">
<svg width="100%" height="100%" viewBox="0 0 800 800" version="1.1" xmlns="http://www.w3.org/2000/svg" xmlns:xlink="http://www.w3.org/1999/xlink" xml:space="preserve" xmlns:serif="http://www.serif.com/" style="fill-rule:evenodd;clip-rule:evenodd;stroke-linejoin:round;stroke-miterlimit:2;">
    <g transform="matrix(1,0,0,1,202,126)">
        <path d="M71,9L70,10L71,10L78,17L79,17C87,28 85,38 88,38L102,39C105,40 209,38 213,40L284,40C284,39 285,30 290,23C289.333,22.333 293.667,18.333 303,11C324,0 348,9 355,20C358.333,22.667 361.333,30 364,42C364,43 365,45 362,59L393,88L405,99L411,105L412,104L416,108C415.333,108 415.333,108.667 416,110L421,115L422,115L423,114C427,117 432,112 437,114C437,114 438,113 448,115C449,116 464,120 468,127L470,129L469,130C469.667,132 470.333,133 471,133L473,133C486,159 474,185 459,193C441,202 435,196 435,202L432,215L431,220L427,235C426.333,235.667 425.667,239.333 425,246C424,249 426,248 435,252L438,255L438,257L445,264L447,265C448,267 460,286 448,310L446,310C446,310 447,311 440,319L439,319C438.333,320.333 438.333,321 439,321L433,325C432,326 416,335 396,329L388,325C386.667,323.667 385.333,324 384,326L383,328L383,330C378,334 379,334 375,339L365,349C365,347.667 364.333,347.667 363,349L354,359C352,360.333 353,362 357,364L357,365L359,364C360.333,364.667 362.333,369.333 365,378C371,398 364,409 361,416C356,418 357,419 353,423L348,427L347,427L347,429C328,438 323,431 321,436L314,475C315,478 324,479 328,483C330.667,484.333 333.667,487.333 337,492C341,498 341,501 344,509L343,530L339,539L337,539C336,539 338,541 327,551L326,553C324,555 318,557.333 308,560C294,562 280,555 278,554L275,550L267,542L265,541C263,537.667 261.333,533 260,527C260,525 258.667,523.667 256,523C253,523 228,523 214,521L206,521C200,519 196,523 178,520C176,519 156,521 153,519L83,516C78,516 81,519 73,527C47,553 19,536 14,528C5,517 -1,513 3,492C4,486 7,467 33,459C35.667,459.667 37.333,459 38,457C39,439 37,439 39,424C40,421 38,363 40,359C41,355 39,295 41,291C41,290 42,266 40,265C39.333,265 35,263.667 27,261L28,259L20,255L19,256C13,249 5,242 5,220C5,216 9,202 16,195C32,180 37,185 41,182L41,108L40,88C40,81 33,88 21,79L20,78C14,75 -3,53 11,22L18,14C26,8 29,5 41,3C43,3 52,0 68,8L69,8L71,9ZM78,70C86,58 84,51 89,51L161,51L247,52L271,53L282,52C286,51 284,54 284,56C287,72 301,80 303,81C306,82 320,90 337,85C348,81 350,76 356,72L357,72L366,80L373,87L390,103L395,108L402,114L406,118C408,118.667 409.333,120 410,122C405,124 397,136 395,142C392,155 393,160 396,172C399,181 402,181 404,186L412,192C414.667,194 417.667,195.333 421,196C424,197 417,221 417,221L415,229C415,234 412,242 412,243C412,248 409,246 404,246L400,247C395,248 387,252 386,253C378,257 375,265 374,266L372,271L368,283C367,303 376,313 376,316L374,319L372,320C362,330.667 356.667,337 356,339L343,352C339,352 336,351.333 334,350C310,349 302,356 300,357C297.333,359 295.667,360.333 295,361L292,364L290,367C283,382 278,393 289,415C290,416 293,423 299,426L303,428C306,431 308,430 308,433L301,473C300,476 296,471 276,481C273,484 272,483 270,487L266,493C260,501 261,506 259,510C259,512 247,511 245,511C240,509 224,511 220,510C216,508 198,510 194,509C190,507 172,509 168,508C163,506 151,509 140,506L116,506C112,504 85,507 84,503C82,495 87,494 78,478L73,472C70,467 70,468 65,465C58,459 49,461 50,456C52,450 50,394 51,390C53,386 51,327 52,324C54,309 53,309 53,273C53,267 52,265 58,264L70,259C74.667,256.333 79,252 83,246L85,241C90,231 90,211 81,198L78,194C76,193 73,188 59,183C52,182 54,180 54,174L53,168L53,87C53,84 60,84 65,81C72,78 77,71 78,70M291,48L292,41C293,32 304,20 309,18C330,7 340,19 342,21C349,24 363,42 348,64C332,85 296,81 291,48M284,493C285,492 291,487 301,486L312,489C314,488.333 316.667,490 320,494L323,497C326,499 337,513 330,528C325,536 325,537 318,543C305,553 287,547 280,539L277,534C263,516 276,501 278,499L284,493ZM420,132C423,129 435,122 447,128L453,132L459,138C465,144 471,161 463,172C461,174 451,187 438,187C431,187 420,183 416,178L412,173C400,157 408,143 412,140C414,136.667 416.667,134 420,132M392,266L399,260C404,257 419,257 427,264C437,272 446,284 438,300L433,308L428,312C420,320 403,322 392,311L388,307C379.007,296.876 378.583,281.607 387,271L392,266ZM342,368L346,371C350,373 360,388 353,402C353,403 349,411 346,413L343,415C337,421 319,428 304,412C293.242,401.475 292.795,384.062 303,373L306,370C316,360 334,359 342,368M32,199C47,188 64,198 68,204L71,208C82,222 74,240 67,244L62,248L61,249C49,259 32,250 28,245C24,242 25,242 23,239L20,235C15,227 17,213 23,208L24,207C26,202 28,202 32,199M62,20L65,22L71,29L73,33C77,41 72,56 67,61L61,67C54,74 41,77 31,69L28,67L25,64L23,61C13,48 19,32 25,27L31,21L38,16C49,11 60,17 62,20M45,529C44,529 41,532 25,521C23,520 12,505 15,494C18,485 18,484 27,476C34,469 53,468 60,476C62,478 67,479 71,495C73,504 67,515 62,519C53,529 48,528 45,529M376,316L377,317L348,350L344,353L343,352L356,339C356,337 361.333,330.667 372,320L374,319L376,316ZM373,87L374,86L391,102L390,103L373,87ZM386,253L387,255C386,255 385,254 379,261L376,265L374,266C375,265 378,257 386,253M83,246C79,252 74.667,256.333 70,259C70.667,257 72,255.667 74,255L77,252C79.667,248 81.667,246 83,246M78,70C77,71 72,78 65,81L66,79C73,74 72,73 78,70M356,71C356.667,69 359,70.667 363,76L365,78L366,78C367.333,79.333 367.333,80 366,80L356,71ZM289,415C289.667,414.333 290.667,415 292,417C292.667,419 295,421.333 299,424L300,425L299,426C293,423 290,416 289,415M32,199C28,202 26,202 24,207L23,208L22,207C21,206 30,198 31,198L32,199ZM420,132C416.667,134 414,136.667 412,140C410.667,139.333 410.667,138.333 412,137L419,131L420,132ZM395,108L396,107L403,113L402,114L395,108ZM276,481L277,483L272,487C270.667,487.667 270,487.667 270,487C272,483 273,484 276,481M67,61L67,64L63,68L61,67L67,61ZM404,186C404.667,184.667 405.333,184.667 406,186C409,189 410,188 412,192L404,186ZM284,493L278,499L277,498L278,496C278,496 281,492 283,492L284,493ZM453,132L454,131L460,137L459,138L453,132ZM31,21L25,27L24,26L30,20L31,21ZM392,266L387,271L386,270C387.333,267.333 388.333,266 389,266L392,266ZM433,308L434,309L433,309L429,313L428,312L433,308ZM67,244C68.333,244 68.333,244.667 67,246L63,249L62,248L67,244ZM23,239C25,242 24,242 28,245L27,246C26,246 21,242 22,240L23,239ZM277,534L280,539L277,538C276.333,535.333 276.333,534 277,534M412,173L416,178L415,179L415,178L411,174L412,173ZM342,368L343,367L347,370L346,371L342,368ZM300,357L300,359L297,361L295,361C295.667,360.333 297.333,359 300,357M68,204C68,203.333 68.667,203.333 70,204L72,207L71,208L68,204ZM388,307L392,311L391,312L387,308L388,307ZM406,118L407,117L411,121C411.667,121.667 411.333,122 410,122C409.333,120 408,118.667 406,118M62,20L65,20C65.667,21.333 65.667,22 65,22L62,20ZM346,413C347.333,413 347.333,413.667 346,415L344,416L343,415L346,413ZM28,67L31,69L30,70L29,69L27,68L28,67ZM23,61L25,64L24,65L23,64L22,62L23,61ZM78,194L81,198C79,198 77.667,197 77,195L78,194ZM306,370L303,373L302,372L305,369L306,370ZM320,494L321,493L324,496L323,497L320,494ZM292,364L292,366L291,367L291,368L290,367L292,364Z" style="fill:rgb(248,247,245);fill-opacity:0.95;"/>
    </g>
    <g transform="matrix(1.193548,0,0,1.193548,-144.096774,414.90891)">
        <circle cx="543" cy="192" r="31" style="fill:rgb(248,247,245);"/>
    </g>
    <g transform="matrix(1.193548,0,0,1.193548,-34.096774,184.830063)">
        <circle cx="543" cy="192" r="31" style="fill:rgb(248,247,245);"/>
    </g>
    <g transform="matrix(1.193548,0,0,1.193548,-121.096774,291.430098)">
        <circle cx="543" cy="192" r="31" style="fill:rgb(248,247,245);"/>
    </g>
    <g transform="matrix(1.193548,0,0,1.193548,-403.096774,396.90891)">
        <circle cx="543" cy="192" r="31" style="fill:rgb(248,247,245);"/>
    </g>
    <g transform="matrix(1.193548,0,0,1.193548,-122.096774,-58.16129)">
        <circle cx="543" cy="192" r="31" style="fill:rgb(248,247,245);"/>
    </g>
    <g transform="matrix(1.193548,0,0,1.193548,-10.096774,53.83871)">
        <circle cx="543" cy="192" r="31" style="fill:rgb(248,247,245);"/>
    </g>
    <g transform="matrix(1.193548,0,0,1.193548,-399.096774,121.83871)">
        <circle cx="543" cy="192" r="31" style="fill:rgb(248,247,245);"/>
    </g>
    <g transform="matrix(1.193548,0,0,1.193548,-401.096774,-59.16129)">
        <circle cx="543" cy="192" r="31" style="fill:rgb(248,247,245);"/>
    </g>
</svg>
