<?xml version="1.0" encoding="UTF-8" standalone="no"?>
<!DOCTYPE svg PUBLIC "-//W3C//DTD SVG 1.1//EN" "http://www.w3.org/Graphics/SVG/1.1/DTD/svg11.dtd">
<svg width="100%" height="100%" viewBox="0 0 800 800" version="1.1" xmlns="http://www.w3.org/2000/svg" xmlns:xlink="http://www.w3.org/1999/xlink" xml:space="preserve" xmlns:serif="http://www.serif.com/" style="fill-rule:evenodd;clip-rule:evenodd;stroke-linejoin:round;stroke-miterlimit:2;">
    <g transform="matrix(1,0,0,1,97,145)">
        <path d="M186,158L263,158C265,156 266,135 276,135C327,135 328,134 332,136C338,140 340,158 346,158C365,159 418,157 422,159C427,162 426,163 426,202L426,231L425,241L425,321L424,333C423,341 427,366 421,369C414,372 384,368 377,371C373,372 254,370 249,372C249,372 190,373 186,371C181,368 182,367 182,329L181,169L180,166L181,163L186,158ZM201,174L402,174C407,174 410,172 410,177L410,233L409,317L408,334L408,353C406,355 374,353 370,354C365,356 245,354 241,355C238,357 237,356 230,356C200,356 198,357 198,353L198,177C198.667,174.333 199.667,173.333 201,174M286,151L322,151C322,152 326,156 324,158L318,158C282,158 279,159 280,156C282,152 281,152 286,151" style="fill:rgb(255,254,251);fill-opacity:0.98;"/>
    </g>
    <g transform="matrix(1,0,0,1,97,145)">
        <path d="M330,218L337,223L338,224L340,223C340.667,224.333 341.667,225 343,225C341.667,225.667 342,226.667 344,228C351,234 352,240 357,242C359,246 360,246 364,258C368,272 367,296 356,311L354,311L353,314L352,315L353,316L345,324C343,327 342,326 339,329L338,328L335,330L334,330L334,332C329,334 306,348 273,334C273,332 271.667,330.667 269,330L265,328L264,329C263.333,327.667 262.333,327 261,327L262,325L260,324L254,318L253,316L251,316L250,315C251.333,314.333 251.333,313.667 250,313C249.333,311 248,309.667 246,309C245,307 238,293 238,285C238,262 238,260 246,243L249,240C256.333,231.333 260.667,226.667 262,226L261,225L264,223C273,216 290,212 292,212C306,213 312,210 330,218M273,234C280,229 284,226 298,225L303,224C308,224 326,229 332,235C332,235.667 333.667,237 337,239L338,240L341,244C346,248 361,272 349,296L341,308C337,314 336,313 331,317C331,317.667 326.333,320 317,324C316,325 316,327 296,327C293,327 276,322 271,316L262,307C255,301 252,288 252,286C251,283 248,278 253,259L259,247L262,245L270,236L273,234ZM341,308C341.667,308 341.667,308.667 341,310L336,315C335.333,316.333 334,317.333 332,318L331,317C336,313 337,314 341,308M262,307L271,316L270,317L261,308L262,307ZM268,238L262,245L261,243L266,238C267.333,237.333 268,237.333 268,238M332,235C332,234.333 332.667,234.333 334,235L336,236L336,237L337,237L337,239C333.667,237 332,235.667 332,235M338,240L339,239L340,240L342,243L341,244L338,240ZM273,234L270,236C268.667,236 268.667,235.333 270,234L272,233L273,234Z" style="fill:rgb(255,254,251);fill-opacity:0.91;"/>
    </g>
    <g transform="matrix(1,0,0,1,97,145)">
        <path d="M441,504C438,504 424,508 421,499C418,488 430,488 431,488L529,488C531.667,488.667 532.667,487.667 532,485C532,461 531.667,444.333 531,435C531,374 531,374 533,372C539,365 550,370 550,373L550,500C549,503 547,501 541,504C538,506 532,504 532,504L441,504Z" style="fill:rgb(255,254,251);fill-opacity:0.97;"/>
    </g>
    <g transform="matrix(1,0,0,1,97,145)">
        <path d="M70,31L69,107C67,115 75,127 57,127C50,127 53,118 53,107C53,57 52,57 54,48C55,41 52,10 56,6C60,3 61,3 99,3C184,3 184,3 185,5C186,5 189,13 183,17C178,21 178,20 175,20L171,21L132,21L127,22L85,23L72,23C70,24 70,30 70,31" style="fill:rgb(255,254,251);fill-opacity:0.98;"/>
    </g>
    <g transform="matrix(1,0,0,1,97,145)">
        <path d="M537,58L537,40C535.667,34 535.333,27.667 536,21L533,20L510,20C498,22 498,21 486,21L462,22C451,21 429,23 426,21C421,15 421,14 424,7C425,4 441,6 445,5L472,4L491,3L521,2C535,2 551,1 553,7C555,11 554,55 554,56L553,108C553,119 556,120 550,126C544,130 543,128 538,123C535,120 538,92 537,85C535,78 537,61 537,58" style="fill:rgb(255,254,252);fill-opacity:0.96;"/>
    </g>
    <g transform="matrix(1,0,0,1,97,145)">
        <path d="M144,502L62,502C62,502 56,501 54,496L54,375C54,370 55,370 60,367C62.667,365.667 65.667,367.333 69,372C71,374 70,467 70,481C70,486 81,483 84,484C89,486 114,484 118,485C123,487 149,485 153,486L168,487C171,487 193,484 187,501C186,503 163,504 144,502" style="fill:rgb(255,254,251);fill-opacity:0.98;"/>
    </g>
    <g transform="matrix(1,0,0,1,97,145)">
        <path d="M280,237C281,236 291,232 295,236C296,237 297,244 295,246C290,248 289,247 284,252L283,251L280,254L281,255C281,255 274,264 274,268C274,269 275,276 266,276C258,275 260,263 265,253L267,254L268,252C271.333,245.333 275,241 279,239L280,237Z" style="fill:rgb(255,254,251);fill-opacity:0.88;"/>
    </g>
    <g transform="matrix(1,0,0,1,97,145)">
        <path d="M369,207C367,207 362,208 359,202C356,198 361,191 365,191C381,190 382,188 388,194C393,199 388,205 384,206L369,207Z" style="fill:rgb(255,253,251);fill-opacity:0.95;"/>
    </g>
    <path d="M308.409,316.409C310.832,312.391 315.284,309.748 320.307,309.87C370.28,311.084 370.168,309.429 420.04,311.087C448.913,312.047 482.937,314.484 496.109,312.901C499.879,312.448 503.666,313.604 506.541,316.085C509.415,318.566 511.112,322.143 511.215,325.939C511.981,354.226 508.467,354.241 511.875,382.333C516.502,420.47 512.353,477.677 511.139,489.568C510.785,493.043 510.119,494.98 510.001,495.279C508.117,500.063 503.679,503.362 498.555,503.787C494.34,504.137 494.297,502.577 445.752,506.564C432.706,507.636 339.265,498.91 304.873,503.421C301.083,503.918 297.26,502.785 294.353,500.303C291.446,497.822 289.727,494.224 289.622,490.404C288.494,449.069 296.46,448.972 290.371,408.125C286.018,378.926 285.171,349.703 285.024,344.605C284.918,340.909 286.311,337.516 288.651,335.008C285.231,330.631 284.747,324.399 287.896,319.447C291.894,313.159 300.244,311.301 306.532,315.299C307.21,315.73 307.832,316.096 308.409,316.409ZM377.915,476.724C396.068,477.596 413.409,478.662 425.921,479.268C424.136,472.207 428.298,464.957 435.351,462.97C439.142,461.902 443.112,461.459 447.172,461.283C447.433,459.908 447.914,458.551 448.629,457.261C451.735,451.659 454.598,448.361 456.28,443.151C458.908,435.008 458.492,422.622 454.309,391.776C453.652,386.931 448.957,370.618 398.559,366.71C380.356,365.298 369.364,366.384 362.162,370.969C357.728,373.791 355.251,378.026 352.947,383.002C349.565,390.307 346.838,399.008 342.871,408.701C338.557,419.242 339.303,422.913 343.402,443.768C343.773,444.472 349.841,455.9 354.24,458.757C361.665,463.578 362.998,463.765 368.783,465.685C373.848,467.365 377.252,471.764 377.915,476.724Z" style="fill:rgb(255,254,251);"/>
</svg>
