<svg xmlns="http://www.w3.org/2000/svg" xml:space="preserve" style="fill-rule:evenodd;clip-rule:evenodd;stroke-linejoin:round;stroke-miterlimit:2" viewBox="0 0 800 800"><path d="m359 6 5 10a2793 2793 0 0 0 27 62l3 5c1 3 20 11 28 16 4 1 3-1 5-1l6-5q9-4 11-7 8-3 8-5c6-2 15-10 16-11 8-3 18-13 22-9 12 9 13 8 23 19l6 5q9 8 13 12l8 8 9 10q2 1 2 4l4 5 3 3-24 51c-9 20-11 21-9 27 9 17 8 17 8 18l2 6q0 1 2 4l4 9c1 2 33 6 36 8 5 3 31 8 36 11l1 4c6 37 2 48 5 61 0 3-2 3-2 14 0 9-2 8-2 17l-29 11c-7 3-8 1-14 4l-28 10c-5 2-4 11-10 18 0 1 1 2-5 14q0 2 1 2c-6 2 0 8 1 10l4 10 10 23 8 20 3 4 2 8c0 5-25 33-34 41-3 4-4 3-8 7l-8 7c-3 5-5 4-6 5-2 3-3 2-6 5q-1 2-3 2c-5 5-5 4-7 5l-61-35c-6-3-7-2-13 1-17 8-23 4-23 13l-7 16c-3 5-1 7-3 10-2 1-4 9-5 10-4 6-5 14-7 16q-4 10-7 17-2 4-15 4c-19 3-25 1-27 3-3 1-4-2-8-1h-8c-3 1-34-2-37-2q-4-1-10-1h1v-2l-5-17-5-17c1-3 0-3-9-33-1-6 0-8-5-9l-19-9q0-1-7 3l-1 1-1 1-5 2c-9 0-16 5-20 7l-12 4-35 14c-3 2-16-11-20-14-5-3-4-4-8-7-8-5-14-13-17-15v-1l-2-1-3-5-11-10q-4-9-8-10-1-4-5-7 3-1 2-3l23-51c7-16 10-20 9-21-7-15-6-16-8-16-6-3-6-4-13-5l-24-11-5-3-7-4c-5-1-23-10-25-11q-2 1-4-7l-1-7-1-17-1-9v-36l1-11v-10l2-1c1-6 10-6 15-9l16-7 8-1 27-11c4-2 5-13 7-16q3-4 4-10l2-8c5-4 1-5-28-62-2-4-1-4 2-8l11-15 4-5 5-8 9-8 10-10 1-1-1-1 3-2 11-9c2-4 5-4 14-12l5-4 8-6 4-3c8-6 19-11 21-12 5-2 5-4 9-1l29 16 15 8c10 5 10 10 13 5l8-23c3-2 6-22 8-29 2-5 3-4 9-5l22-4c14 0 13-2 15-2 5 1 24-1 30 1 4 1 4-2 7-1q6 2 8 1 7 2 7 0zm-31 161c-8 3-21 10-29 16-24 20-27 33-31 38-6 6-17 37-12 64l2 10c2 16 17 41 26 50 54 53 107 30 115 30 7 0 28-11 41-25l1 2-1 5c-2 8-11 23-12 25-9 16-10 15-13 18-4 3-10 15-17 16l-7 6a147 147 0 0 1-151 17l-6-4q-12-5-14-8c-3-4-4-2-8-6-3-4-16-12-21-23l-7-8-7-12q-14-30-15-34c-3-14-7-51 2-81l11-26 10-15c6-4 14-17 17-19 12-9 15-14 20-16l20-10 7-4a174 174 0 0 1 80-9zm0 0c7-2 7-1 24 4 6 1 6 2 8 3 0 1 14 6 22 12 2 2 5 1 6 5 1 1 12 8 14 13 1 2 7 5 8 9 2 3 4 1 9 13 1 0 10 12 13 20l4 10c2 4 3 3 3 7 0 3 3 3 3 8 1 8 5 10 5 26 0 23 1 23-2 31v5c-2 5 1 6-2 11-1 1 1 3-3 6a97 97 0 0 1-41 25c-8 0-61 23-115-30-9-9-24-34-26-50l-2-10c-5-27 6-58 12-64 4-5 7-18 31-38 8-6 21-13 29-16" style="fill:#f8f7f5;fill-opacity:.99" transform="translate(92 86)"/><path d="M328 167c-8 3-21 10-29 16-24 20-27 33-31 38-6 6-17 37-12 64l2 10c2 16 17 41 26 50 54 53 107 30 115 30 7 0 28-11 41-25l1 2-1 5c-2 8-11 23-12 25-9 16-10 15-13 18-4 3-10 15-17 16l-7 6a147 147 0 0 1-151 17l-6-4q-12-5-14-8c-3-4-4-2-8-6-3-4-16-12-21-23l-7-8-7-12q-14-30-15-34c-3-14-7-51 2-81l11-26 10-15c6-4 14-17 17-19 12-9 15-14 20-16l20-10 7-4a174 174 0 0 1 80-9z" style="fill:#fefefc;fill-opacity:.5" transform="translate(92 86)"/><path d="m359 6 22 4 16 3q4-1 5 5l10 34 13 46h2c-2 0-1 2-5 1-8-5-27-13-28-16l-3-5-27-62z" style="fill:#faf9f7;fill-opacity:.49" transform="translate(92 86)"/><path d="m558 127 4 3q3 8 8 12c4 8 5 7 8 16 1 2 3 0 3 3 1 6-4 9-4 10l-10 14c-1 4-2 3-4 6l-7 11c-3 7-4 7-8 13l-6 9c-4 6-5 6-5 9q-3-3-2-4l-2-6c0-1 1-1-8-18-2-6 0-7 9-27z" style="fill:#fbf9f7;fill-opacity:.49" transform="translate(92 86)"/><path d="M615 357v7l-5 23c-3 9 1 13-8 14l-13 3-9 2c-11 0-31 6-35 7l-15 3q-1 1-1-2c6-12 5-13 5-14 6-7 5-16 10-18l28-10c6-3 7-1 14-4z" style="fill:#faf9f7;fill-opacity:.5" transform="translate(92 86)"/><path d="m205 531 1-1q7-4 7-3l19 9c5 1 4 3 5 9 9 30 10 30 9 33l5 17 5 17v2h-1l-2-1q-3 1-25-5c-17-5-12-14-14-17q-1-2 0-5c-1 0-3-5-2-7 1-3-1-11-1-11q-1-3-1-10c-2-5-2-12-2-13q-1-2-1-6-2-3-1-7z" style="fill:#f9f7f5;fill-opacity:.49" transform="translate(92 86)"/><path d="M71 393c7 1 7 2 13 5 2 0 1 1 8 16 1 1-2 5-9 21l-23 51q0 2-2 3l-4-6c-12-16-11-17-12-18l-5-7c-4-6-2-7 3-13l6-7 16-30c5-9 10-11 9-15M389 542c0-9 6-5 23-13 6-3 7-4 13-1l61 35-8 7q-6 2-4 3c-11 4-12 7-16 8-6 1-9 8-19-4l-4-4c-4-4-13-10-15-10l-15-12c-5-2-4-3-8-6-6-4-6-4-8-3M85 204l-2 8q-1 6-4 10c-2 3-3 14-7 16l-27 11-8 1-16 7c-5 3-14 3-15 9l-2 1v1-5l4-26c4-11 0-15 3-16l8-2 12-2q13-4 17-3l13-4 17-4q4 0 7-2" style="fill:#faf9f7;fill-opacity:.49" transform="translate(92 86)"/></svg>