<?xml version="1.0" encoding="UTF-8" standalone="no"?>
<!DOCTYPE svg PUBLIC "-//W3C//DTD SVG 1.1//EN" "http://www.w3.org/Graphics/SVG/1.1/DTD/svg11.dtd">
<svg width="100%" height="100%" viewBox="0 0 800 800" version="1.1" xmlns="http://www.w3.org/2000/svg" xmlns:xlink="http://www.w3.org/1999/xlink" xml:space="preserve" xmlns:serif="http://www.serif.com/" style="fill-rule:evenodd;clip-rule:evenodd;stroke-linejoin:round;stroke-miterlimit:2;">
    <g transform="matrix(1,0,0,1,121,90)">
        <path d="M483,135C483,136 486,140 492,136C493.333,138 497.333,139.667 504,141C548,154 563,190 565,192C564.333,192.667 565.333,195 568,199C567,205 571,207 572,208C575,224 575,224 574,242C573.333,242 572.667,242.333 572,243L572,248C558,298 528,314 499,322C491,324 490,324 399,322L397,323L340,265C335,261 333,264 271,322L268,325C266,323 266,324 256,324L196,323C156,324 148,321 124,325C103,329 60,313 51,304C29,284 2,266 2,203L4,203L4,198L5,194L4,190C12,187 26,87 137,102C144,103 154,32 247,8C297,-6 351,24 366,38C428,92 420,153 420,156C420,157 421,158 429,151C435,149 439,146.333 441,143C463,134 471,135 483,135" style="fill:rgb(254,253,251);fill-opacity:0.99;"/>
    </g>
    <g transform="matrix(1,0,0,1,121,90)">
        <path d="M271,322C333,264 335,261 340,265L397,323L400,326C403,327 402,328 429,354C454,380 453,382 453,386C449,398 443,392 401,392C392,392 397,396 397,405L397,478C397,485 395,484 391,485L386,485C371,487 306,487 299,487C298,487 264,493 269,477L270,402C270,395 272,395 269,393C269.667,392.333 269,392 267,392L266,393C262,391 262,392 246,392C242,391 243,390 239,392C237,390.667 234.667,390.333 232,391C233.333,391 232,390.667 228,390L217,390C208,383 211,381 213,377L213,375L227,362L229,360L243,348L244,346C254,338.667 258.667,334 258,332L260,331L262,329L268,325L271,322Z" style="fill:rgb(251,201,62);fill-opacity:0.98;"/>
    </g>
    <g transform="matrix(1,0,0,1,121,90)">
        <path d="M397,323L399,322L402,325L400,326L397,323Z" style="fill:rgb(244,223,164);fill-opacity:0.21;"/>
    </g>
</svg>
