<?xml version="1.0" encoding="UTF-8" standalone="no"?>
<!DOCTYPE svg PUBLIC "-//W3C//DTD SVG 1.1//EN" "http://www.w3.org/Graphics/SVG/1.1/DTD/svg11.dtd">
<svg width="100%" height="100%" viewBox="0 0 800 800" version="1.1" xmlns="http://www.w3.org/2000/svg" xmlns:xlink="http://www.w3.org/1999/xlink" xml:space="preserve" xmlns:serif="http://www.serif.com/" style="fill-rule:evenodd;clip-rule:evenodd;stroke-linejoin:round;stroke-miterlimit:2;">
    <g transform="matrix(1,0,0,1,97,199)">
        <path d="M424,371C417,372 418,371 410,370C393,367 393,368 391,368C387,366.667 383.667,366.333 381,367C376.333,365.667 372.667,365.333 370,366C366,364 366,365 361,365L345,364L293,364L284,365L260,367L224,371L213,373L207,374C200,374 201,375 196,376C177,378 177,380 176,380L161,382L156,385L122,395L100,403C95,405 90,416 83,409C79,404 74,403 74,396L78,388C80,386 81,384.667 81,384C85,374.667 87,370 87,370C92,362 99,323 99,322C100.333,318.667 100.667,316.333 100,315C103,307 108,258 108,251L109,240L109,185C107,178 110,178 108,170C107,167 104,101 87,47L82,33C78,19 74,20 75,14C77,9 82,7 82,6C91,1 99,9 108,12L124,18C133,23 204,40 227,41L230,42C250,45 250,44 252,44C256.667,45.333 260.333,45.667 263,45C268.333,46.333 272.333,46.667 275,46C280,48 290,46 293,47L333,48L357,47L372,46L384,45L392,44L411,42L418,41L430,38C438,37 454,32 457,31L473,26C484,22 498,13 501,11C508,7 507,-3 521,5C522,5 531,10 531,18C531,21 527,20 518,53C510,80 509,88 509,91L507,103L504,122C502.667,126 502.333,128.667 503,130C501.667,133.333 501.333,136 502,138C500.667,142 500.333,145 501,147C499.667,151.667 499.333,155 500,157C498,163 501,163 499,170C497.667,176 497.333,181 498,185L497,223L498,247C497,257 499,257 499,261L500,273L503,297C504.333,309.667 505.333,316 506,316C506,327 508,326 509,332C510,342 519,372 522,377L527,387L530,392C534,401 530,401 523,408C514,417 503,402 501,401L490,394L468,384L459,381C450,379 437,373 424,371M231,59L236,60L243,61L278,64C284,65 285,63 290,65L364,64C369,64 375,60 372,67C355,101 352,144 349,151C349,153 349,164 347,165L341,166L333,167C327,168 326,166 321,168C319.667,168.667 316.333,168.333 311,167C305,166 291,169 285,167C284,167 259,166 258,164L255,144C251,121 248,89 231,60L231,59ZM316,257L328,258L341,259C344,259 345,260 346,293L347,296L349,317L355,346C358,351 345,347 343,347L301,347L265,349C259,352 258,349 251,351C248.333,352.333 248.333,349.333 251,342C258,317 256,317 258,304L259,295C262,277 260,269 262,260C263,257 282,258 283,258C294,255 296,260 316,257M485,115L487,116L484,141L483,151L482,168L481,172L479,212C481,217 479,237 480,240C480.667,246 481,251 481,255C482.333,261 482.667,265.667 482,269C483.333,273.667 483.667,277 483,279L485,294C485,294 488,301 484,298C484,297 482,295 470,288C455,280 431,271 428,270C426,269 427,264 427,263C427,230 424,230 426,222C428,217 426,198 427,192L430,152C431,145 433,147 438,144C478,124 478,121 485,115M121,115C128,121 128,124 168,144C173,147 175,145 176,152L179,192C180,198 178,217 180,222C182,230 179,230 179,263C179,264 180,269 178,270C175,271 151,280 136,288C124,295 122,297 122,298C118,301 121,294 121,294L123,279C122.333,277 122.667,273.667 124,269C123.333,265.667 123.667,261 125,255C125,251 125.333,246 126,240C127,237 125,217 127,212L125,172L124,168L123,151L122,141L119,116L121,115ZM187,266C187,265 188,217 186,176L185,171L184,161C183,152 185,152 185,152C190,152 189,156 242,169C249.333,170.333 252.333,171.667 251,173C253,191 256,251 253,252C252,253 232,255 223,258C220.333,258 212.333,259.667 199,263C191,266.333 187,267.333 187,266M419,266C419,266.667 415,265.667 407,263C393.667,259.667 385.667,258 383,258C374,255 354,253 353,252C350,251 353,191 355,173C354.333,171.667 357.333,170.333 364,169C417,156 416,152 421,152C421,152 423,152 422,161L421,171L420,176C418,217 419,265 419,266M291,250L262,251L262,212L261,199L260,185C260,176 257,172 263,173C268,174 268,175 320,175L341,174C342,174 348,170 347,177L346,190C344,209 345,209 345,211C343,216 345,247 344,250C343,252 342,250 291,250M160,46L215,57C217,57.667 218.333,59 219,61C223,63 226,70 227,72C234.233,86.513 239.288,102.013 242,118C245,126 246,138 246,139C248,142 248,152 248,152C249.333,156 249.667,158.667 249,160C250.333,163.333 248.333,164 243,162L187,144C180,141 182,137 182,134C180,130 175,74 159,46L160,46ZM442,53L443,54C442,57 435,75 434,82L430,100L428,111C428,116 427,116 426,120C426,122 426,129 424,133C424,136 427,141 419,144C413,146 397,153 363,161C358.333,163.667 356,163.333 356,160C357,158 363,92 383,64C387,59 403,62 442,53M254,263C252,277 253,312 241,348C239,355 235,352 227,354C225,354 225,353 206,357L186,360C180,361 175,365 177,359L180,338C180,333 181,333 182,329L183,322C182.333,320.667 182.667,318 184,314C185,308 183,308 185,303C185,301 184,301 186,289C186,287 185,276 187,275C192,274 229,263 250,261L252,260C254,260 254.667,261 254,263M352,263C351.333,261 352,260 354,260L356,261C379,263 418,275 419,276L421,301L422,307C422,319 424,320 424,324L425,332L429,356C427,356 425.667,355.667 425,355L413,353L402,352C396,352 393,350 370,349C363,349 363,342 363,340C354,314 353,270 352,263M99,385C105,375 115,333 116,324L118,313C118,310 132,300 142,295C149,291 149,290 157,288C159,287 159,286 166,284C168,283 167,282 176,280C180,278 178,281 178,286C178,293 170,364 166,365L151,368L100,385L99,385ZM506,383L509,385L509,386C509,388 506,385 505,385C505.667,383.667 501.667,380.667 493,376L472,367C468,367 469,366 466,365C438,358 437,358 437,355L434,340L433,334L432,327L431,319L430,309L428,281C428,277 441,284 445,286L453,289C467,296 482,306 486,310C489,312 492,336 492,338C493,339 501,374 506,383M98,26L141,41C144.333,41.667 147.667,45 151,51C160,62 168,99 169,105L171,116C173.667,131.333 174.333,138.333 173,137C171,137 139,121 125,107L118,101C112,95 115,79 101,35L98,28L98,26ZM506,27L508,28C503,39 500,54 498,58C497,63 491,97 489,100C487,101 484,106 470,117L433,137C431.667,138.333 432.333,131.333 435,116L437,105C438,101 448,52 457,49C468,46 495,36 506,27M506,27L510,24C512,24 508,28 508,28L506,27ZM121,115L119,116C119,116 115,106 120,114L121,115ZM485,115L486,114C491,106 487,116 487,116L485,115ZM99,385L100,385C100,385 97,389 97,387L99,385ZM98,26L98,28L96,25C95,22 98,26 98,26M231,59L231,60C229,59.333 228.333,58.667 229,58L231,59ZM160,46L159,46C157.667,46 157.333,45.667 158,45L160,46ZM442,53L443,52C444.333,51.333 444.333,52 443,54L442,53Z" style="fill:rgb(251,201,62);fill-opacity:0.96;"/>
    </g>
    <g transform="matrix(1,0,0,1,97,199)">
        <path d="M506,383L509,385L506,383Z" style="fill:rgb(213,212,209);fill-opacity:0.46;"/>
    </g>
</svg>
