<svg xmlns="http://www.w3.org/2000/svg" xml:space="preserve" style="fill-rule:evenodd;clip-rule:evenodd;stroke-linejoin:round;stroke-miterlimit:2" viewBox="0 0 800 800"><path d="M299 348h-3c-2 0-10-7-12-8l-22-13-9-5-12-7-7-4-144-84-11-6-12-7q-7-3-9-5c-5-4-6-2-10-6-4-2-12-6-15-9L3 178c-4-5 4-8 5-9l14-8c14-6 13-7 14-8 14-6 13-7 14-8l16-8L257 29l7-4 7-4 7-4 7-4 7-4c6-2 11-12 21-3l13 7 7 4q4 4 7 5l9 5 40 24 15 9 10 6 15 9c9 5 8 6 15 9l10 6 5 3q19 11 24 14l23 14c12 6 24 15 25 15l5 3 32 19 21 12c4 2 4 3 9 4 2 1 3 7-2 9-10 3-26 14-34 18l-120 68-15 8c-18 9-36 21-37 22-8 3-76 42-77 43-8 3-7 5-14 6m31-152q5 7 3 6l-27 27-5 3q-3 2-28-23-7-7-3-9 10-11 11-14l3-5 9-11q9-14 10-8l6 7 5 6c1 1 10 12 10 14zm-63-61c12 3 13 6 24 13 7 5 2 7-3 14-3 4-6 4-10 12l-3 5c-13 17-14 16-15 15l-11-7-5-4-10-4c-4-2 2-3 7-13l6-10c3-4 5-4 10-12q10-10 10-9m71 3 7 5 11 15 12 20c0 1 0 2-9 7-15 7-17 12-19 9l-21-26-4-6q-8-8-5-9l7-5c6-2 4-5 21-10m47 44c12-5 12-5 25-8 7-1 8-4 13 1l4 4 8 9c6 6 7 5 13 10 2 2 11 3 4 4l-30 16c-2 0-27-17-29-22-1-2-9-9-9-13zm-123 29h1l3 4 9 7 3 4c5 7 14 12 14 13 3 0 0 1-1 2l-8 7-16 10c-2 0-7 5-7 5l-33-19v-1l7-7c7-5 25-24 28-25m77 0h1c2 1 15 19 21 24l6 6c3 3 4 2 5 5v1l-27 15c-4 3-35-21-36-22v-1l2-3c8-6 16-16 20-19zm73 13h1q1 1-2 1l-6 4-8 4c-14 7-14 9-16 7l-11-8-9-11-4-6-5-6c-8-7-2-9 8-14l11-7c9-6 3 8 28 26zm-222-3c4-5 7-3 22-19 14-14 14-18 17-15 4 3 5 1 9 4s5 2 14 9c0 1 5 1 0 6l-19 19-9 7-7 5c-2 2-23-13-27-15l-1-1zm-38-24 15-10c17-12 17-12 19-11q3 0 11 2c2 0 2-1 17 4l3 1-2 3c-1 1-20 20-25 22l-7 5q-3 4-7 1l-7-4-8-5-8-5-1-1zm117 71 1-1 7-4 7-5 5-3c9-6 10-12 17-6q4 5 4 3l4 4c7 6 12 7 18 11q2 0 3 2h-3l-1 1-14 8-7 4-7 4c-4 3-10-4-14-6l-14-7-7-4zm226-89c-7 1-30 18-33 17l-9-6s-1 1-20-19c-4-4 0-3 2-3 24-8 25-11 30-7l7 4 7 4 10 6zm-143-43 31 3c3 0 18 15 28 24q3 2-2 2c-8 3-8 2-9 2l-15 5c-9 5-9-1-12-4-6-8-5-10-22-30zm-178-9v2l-29 16c-5 3-5 0-8-2l-14-7-10-7h1c4-1 3-2 5-3 18-9 24-15 27-15zm-3 43q2 3-2 4l-4 3-5 4-8 5c-8 4-11 8-19 3-6-5-6-4-13-8-4-4-9-4-7-6l29-17c4-2 23 10 29 12m184-87 23-13c9-5 9 0 16 4l20 11c5 0-1 1-1 2l-5 3c-9 7-23 14-26 11l-27-16zm-137 21-33 18-10-5-10-5-7-4q-5-3-2-3c20-9 27-19 34-16l16 8 10 5s6 1 3 2zm316 53-8 4-20 11c-5 2-13-6-16-8l-9-4c-6-5-16-6-8-6l1-1 21-11c8-8 11-2 11-1q4 1 7 4l14 7zM315 61l-1-1 7-4 18-10c7-5 10 1 24 8l8 5q5 3 1 5c-11 3-25 18-32 12zM130 198l1 1-7 5-21 11c-4 0-22-12-29-15q-4-1 0-3c1-1 1-2 22-13 5-3 5-4 8-2l20 12zm-17 23 9-6c12-6 17-13 20-11 0 0 27 16 28 18l1 1-2 1-6 4-15 9c-6 5-9 0-13-3-6-2-6-3-11-6l-12-6zm378-89v1l-8 6-9 5-5 2q-8 3-8 2l-24-14c-3-3-9-4-4-4 5-1 12-6 13-6 14-7 15-14 22-6 1 0 20 10 23 14m-358 21q-8 3-20 11c-9 4-9 7-13 4l-11-5c-6-5-6-4-13-8q-3-3-4-2c-2-1 2-2 2-2l9-5 7-4q7-3 9-5c6-5 9 2 15 5l14 7zm61 15c2-5 22-20 24-23l11-8c1 0 22-4 24-3q1 1-2 2c0 2-1 1-13 18l-10 14c-5 5-4 8-11 6l-19-5h-3zm-160 6 16-9 11-6c3-3 24 13 29 15v2c-4 2-26 16-29 16l-28-17zm277 119c0-1 31-19 32-18l4 2c11 6 15 10 21 11 5 2-1 3-5 7l-13 6-11 6q-2 3-6 0l-10-6-11-6-1-1zm85-186c7-3 7-3 13-8l7-3c2-2 6-9 12-2l18 10c3 3 11 3 4 7-3 2-23 16-30 13l-16-10-7-4-1-1zM276 38l29-17c3 0 29 17 29 17 1 1-19 11-23 14-8 5-11 1-14-1l-15-8-7-4q1 0 0 0zm-83 230-1-1 6-4 6-4 13-8c1-1 1-1 12 5l13 8q10 4 3 8l-21 11c0 1-1 4-11-3-1-2-9-5-10-6zm39 22 5-3 4-2 17-9c2-3 8 2 10 4l8 5c10 4 10 5 10 6l5 1c2 1-2 2-2 2l-11 6c-14 7-14 9-18 7l-12-6q-8-6-10-6-7-5-7-4zm241-87c0-2 0-2 15-10l11-7c5-3 6-1 20 7l9 6c6 2-7 6-9 8l-9 5-7 4c-4 3-26-9-30-13M196 82l9-4 15-9c4-3 5-3 20 4l19 9-4 1-17 10-10 5-14-6c-5-4-19-9-19-9zm-36 167c-4-3-6-1-7-4-1-1 16-9 22-14 9-7 10 0 17 4q10 6 16 9c3 0-1 1-2 2l-4 4c-19 13-21 12-23 11zm75-188v-1l3-1 9-5 7-4 7-4c5-3 5-2 12 2l13 7c5 4 11 5 5 8-22 12-22 14-26 12zm98 69zc-4 2-7 2-15 8l-10 6c-7 5-7-2-13-6l-7-4-8-4c-1-1-10-3-4-3 3 0 5-5 14-7l8-3c12-4 13-3 16-1l7 4 5 4zm158 93c-9 3-25 16-31 15-5-2-10-2-26-10q-6-2 0-5c18-9 27-18 30-14 1 0 17 11 26 13zm-42 21 1 1-11 6c-7 4-16 11-20 10-3-1-16-5-28-12l1-2c5-2 26-17 30-16 2 0 6 7 27 13m65-65h-1c-2-1 2-1 2-2l3-1 21-12c6-4 9 2 18 7 10 4 10 5 10 6 4 1 0 3 0 3l-6 3-7 4-12 7c-4 1-21-12-28-15m-105 89-1 1-27 16-28-15 6-5c21-11 21-13 24-11 10 8 10 6 21 12zm-135 45 5-3c1-1 13-6 14-8 10-7 12 1 29 9l5 3v1h-1l-6 4c-17 8-18 14-27 8l-19-12zm-66-174 1 2-4 4c-17 12-21 22-26 18l-7-3c-15-8-24-9-18-9l33-18zm72-59c9-4 22-14 24-13 3 0 25 14 27 15v1l-1 1-4 1-23 7q-3 0-5-2c-9-2-8-3-18-8zm170 73-27 9-10-9-15-14c-10-1 1-1 2-1 16 0 16-5 21-2l7 4 9 4c9 7 20 9 13 9m-253-27c6-2 23-13 30-16 7-4 8 2 19 2 9 0-3 3-5 5l-18 12c-5 4-26-1-27-2zm116-28q1-2 5-1c22-6 22-9 28-6 5 2 14 10 23 13l1 1c-30 2-31 0-40-3l-13-3-2-1zm-73 4 25-14c6-3 17 7 22 7 0 0 7 2 2 2-13 2-24 10-32 8q-6 0-17-3m167 25 1 1-8 2c-1 0-12 2-16-2-3-2-10-4-13-8-1 0-4-4-8-4 0 0-13-4-2-3 15 2 17-5 26 2l13 8zm-45-1 1 2c-13-3-17 1-20-1-9-9-10-8-11-9-4-4-12-5-6-5q6 0 7 1c9 0 9 1 16 5 2 0 11 4 13 7m-62-21q-7 0-6-2l7-2 12 4q2 2-3 2zm62 21 3 1 2 1c1 2-3 1-4 0zm-210 71v2l-1 1c-1 0-5-3 1-3m93-72-1 2h1q-5 1-4-1zm-37 14c1 0 8-1 3 1h-1v1h-1zm66 174v2c-7 0-1-2 0-2m6-233v2h-2c-1 0-3-2 2-2M90 174h2s3 2-2 2zm306-67v2h-1l-2-1zm-4 140-1 2h-1s-3-2 2-2M355 83v2q-3 0-3-1zm-24-1q4 0 2 1h-2zm118 162q3 0 3 1h-2zm-40 24 1-1q3 1-2 2zM174 127h2c2 0-2 2-2 2zm233 0 3 1q1 2-2 0zm84 5 1-1s4 2-1 2zm-139 4-1 2-1-1c-6-3 1-1 2-1m-162 85h-1l1 1q-3 0-2-1t2 0m121 72v1c-4-1-1-2-1-2zm28-82q2-3 2-1l-1 1zm-112 32v1s-4-2-1-2zm-33-75q-2 2-2 0z" style="fill:#fdfcfa;fill-opacity:.94" transform="translate(102 229)"/><path d="m245 125-1 2h1q-5 1-4-1z" style="fill:#fffefe;fill-opacity:.21" transform="translate(102 229)"/><path d="m407 127 3 1q1 2-2 0z" style="fill:#e7e6e5;fill-opacity:.2" transform="translate(102 229)"/><path d="m369 104 1 1z" style="fill:#fcfce8;fill-opacity:.23" transform="translate(102 229)"/><path d="M250 270v-2q2 0 0 2" style="fill:#fffefd;fill-opacity:.2" transform="translate(102 229)"/><path d="M173 170q2 2 0 2z" style="fill:#fffefd;fill-opacity:.21" transform="translate(102 229)"/><path d="m393 108 2 1h-1zq-1 0 0 0" style="fill:#fffefc;fill-opacity:.38" transform="translate(102 229)"/></svg>