<svg xmlns="http://www.w3.org/2000/svg" xml:space="preserve" style="fill-rule:evenodd;clip-rule:evenodd;stroke-linejoin:round;stroke-miterlimit:2" viewBox="0 0 800 800"><path d="M294 2h25l4 1h10l4 1 14 1 6 1 15 3 2 1 31 8 2 1c2 0 11 5 17 6l4 2h1l4 2c3 1 2 2 5 2l6 3 8 4 2 1c4 3 3 3 8 4l1 1q1 2 13 8l10 7 5 3 1 1q1 3 8 5l1 2q0 3 4 2l1 2q-1 2 2 2l3 1c2 5 1 6 7 7v1l3 1 1 2 1 1 1 1 1 1 1 1 1 1 1 1 1 1 1 1 1 1 2 1 1 2 1 1c0 4 5 7 7 9 4 6 5 5 6 5q1 6 3 5c1 4 2 3 4 6l9 13 1 1 1 2h1q-1 3 7 13l1 2h1c1 5 1 4 4 8l1 1q0 2 2 3v2l1 1 1 3q1 4 5 11l2 4 1 2 1 3 2 5 1 3c0 4 6 17 6 19l1 2 4 17 1 2 4 27 1 3v6l1 3v53l-1 3-1 14-1 2-2 15-1 2-3 15-1 2-2 8-1 2-5 16-1 3q-3 3-2 5l-2 4v1l-2 4-1 2q-6 9-6 13l-1 2-1 2-7 12-1 2-1 2c-3 2-7 10-8 12-3 5-18 22-18 26l-2 1q-2-1-2 2l-1 3c-7 3-8 2-9 9l-1 1-2 2-1 1-1 2-4 3-1 1-1 1-2 1a28198 28198 0 0 0-12 12l-2 1-4 3q-8 4-14 12h-1l-2 1-3 1-12 9c-3 0-2 2-30 16l-23 10-3 1c-3 0-3 2-35 10l-2 1h-1l-3 1h-3l-2 1h-2l-13 2-3 1h-5l-4 1h-8l-4 1h-38l-4-1-17-1-2-1-34-6-2-1-9-2-2-1h-1l-2-1-3-1-4-1-3-1-8-3-3-1q-7-4-9-4l-3-1c-8-7-10-3-18-10l-27-16c-4-1-3-2-37-29l-19-19c-3-4-19-21-29-36l-6-8-1-2c0-1-5-11-7-12q1-2-2-3c-18-37-16-38-18-41l-1-3v-1l-1-2-7-25-1-2v-1l-1-3-4-24-1-3v-5l-1-4v-7l-1-4v-43l1-4v-7l1-3v-6l1-3v-4l1-2v-4l1-3v-2l1-2v-3l1-3v-1l1-2 1-6 1-2v-2l1-2 6-20 1-3 8-20 13-25 4-8c5-5 4-6 8-12l1-2 22-28 2-2 14-15 2-2c6-4 5-4 10-10l2-1 35-27 4-1 2-2 4-3 2-1q3 0 9-5l2-1c6-3 7-2 12-6l2-1 3-1c6-2 6-1 11-5l30-10 3-1 3-1 38-7 3-1 20-1z" style="fill:#9ea1a3;fill-opacity:1" transform="translate(92 89)"/><path d="M469 152c-9-16-36-82-106-122-14-8-33-13-17-10a292 292 0 0 1 244 229c-39 9-60-9-78-21-41-26-19-88-37-96-8-4-6 18-6 20M537 368c10-8 30-6 58-31 2-2 1 3 1 4-4 27-11 91-70 160-70 82-177 98-170 94 119-70 132-216 137-217l12-2q-5 26-9 36c-25 50-19 75-13 78 25 13 39-84 54-122" style="fill:#fac83e" transform="translate(92 89)"/><path d="m428 388 47-6c5-1-27 159-149 212-12 6 34-35 62-179l1-3v-1l1 2c0 3 5 31 23 19 19-12 15-39 15-44" style="fill:#fac83e" transform="translate(92 89)"/><path d="M220 31c17 9 21 9 23 9-48 36-58 56-69 67-8 0-20-3-44 11-47 27-23 106-32 118-5 8-8-16-21-26-16-12-19-15-38-11A288 288 0 0 1 220 31" style="fill:#f7f6f4" transform="translate(92 89)"/><path d="M363 101c-25-56-35-64-38-71-2-2 11 3 12 3 89 36 127 143 129 156-3 6-5 25-34 28-24 2-39-18-41-21-6-21-7-28-8-37 1-30 11-29 7-57-1-9-24-4-27-1" style="fill:#fac93e" transform="translate(92 89)"/><path d="M280 246h3l17 4v28l-4 3c-27 9-53 60-24 97-3 1-59-2-60-4-6-30-4-88-3-95 1-1 8 0 12-23q1-7-3-7c14-2 24-4 62-3" style="fill:#f7f6f4" transform="translate(92 89)"/><path d="M174 107c-31 44-49 77-64 139-2 8-41 5-86 37l-4-8c-1-9 7-50 19-76 19-4 22-1 38 11 13 10 16 34 21 26 9-12-15-91 32-118 24-14 36-11 44-11" style="fill:#fac93e" transform="translate(92 89)"/><path d="M146 381c51 8 53 6 54 10 8 49 13 57 13 64l-12 14a64 64 0 0 0-9 59c-9-7-22-25-25-32-3-3-2-12-13-21-8-8-28-59-30-81 2 0 12 1 22-13M483 320c-22-18-70 3-60 49l2 4c-30 4-31 4-31 2 1-30 8-31 3-124 0-7 76 8 83 9 6 2 3 55 3 60" style="fill:#f7f6f4" transform="translate(92 89)"/><path d="M315 494v-43c0-55-1-57 2-57 57-1 60-4 59 0-14 97-49 165-60 186-3 7-1-3-1-86M47 437c17-19 55-14 70 28 1 5 3 2 15 3l1 2c26 49 34 49 37 57-2 19-3 19-8 31-2 4-3 0-6-2C79 509 50 441 47 437" style="fill:#fac83e" transform="translate(92 89)"/><path d="M247 113c30-11 45 7 53 16l1 8c0 91 0 93-4 93h-40a39 39 0 0 1-1-55c8-9-10-4-26-19 4-16 15-40 17-43" style="fill:#fac93e" transform="translate(92 89)"/><path d="M316 276c0-1 7-7 32 6 29 15 33 37 35 42 1 9-2 53-6 54-61 2-62 1-62 0v-54z" style="fill:#fac83e" transform="translate(92 89)"/><path d="M64 360c-7 6 18 39 43 38 4 1 3 8 11 35l14 35c-12-1-14 2-15-3-15-42-53-47-70-28l-15-36c-9-26-14-65-14-67q0-3 5 3c14 12 37 21 41 23" style="fill:#f7f6f4" transform="translate(92 89)"/><path d="m193 283-5 3c-4 1-45 6-37 35 10 42 3 43 4 46-31-4-37-6-38-10-4-44 3-95 7-96 2-1 71-13 72-10zM227 450l14-2c21 1 44 35 59 31v109c-1 2-47-45-73-138" style="fill:#fac83e" transform="translate(92 89)"/><path d="M589 309c-27 3-39 28-45 39-6 4-35 11-39 12 2-2 2-14-7-28 1-50-1-50-1-66 0-4 84 18 92 43" style="fill:#f7f6f4" transform="translate(92 89)"/><path d="M189 113c10 17 13 17 10 48l-7 17c-8 20-24 32-20 32 2 1 21 3 27 8 2 12 3 17-9 18-61 7-65 13-64 8 8-37 32-94 63-131" style="fill:#fac93e" transform="translate(92 89)"/><path d="m279 394 21 30v55c-15 4-38-30-59-31l-14 2c-1-5-16-61-11-60zM273 44l-2 3c-52 59-66 145-72 171-6-5-25-7-27-8-4 0 12-12 20-32l7-17c3-31 0-31-10-48 0-1 33-44 76-69z" style="fill:#f7f6f4" transform="translate(92 89)"/><path d="m213 455 2 6c18 64 55 115 55 115l-25-5c-16-7-48-35-53-43-2-4-12-33 9-59z" style="fill:#fac83e" transform="translate(92 89)"/><path d="M349 107c4 9 26 65 31 124 1 3-31 0-32 0 14-14 25-59-32-73-2-3-1-48 0-50 2 1 15 4 33-1" style="fill:#f7f6f4" transform="translate(92 89)"/><path d="M34 295c21-18 73-32 72-29-11 84 1 92-6 90-25-7-31-10-36-13-4-14 16-26 3-30-12-4-17-5-32-18z" style="fill:#fac83e" transform="translate(92 89)"/><path d="M537 368c-15 38-29 135-54 122-6-3-12-28 13-78q4-10 9-36c16-4 15-5 32-8" style="fill:#f8f6f4" transform="translate(92 89)"/><path d="M300 278c0 2 1 100-1 101l-27-1c-29-37-3-88 24-97z" style="fill:#fbc83e" transform="translate(92 89)"/><path d="M193 283c1 7-4 7 4 88 0 3-2 4-42-4-1-3 6-4-4-46-8-29 33-34 37-35z" style="fill:#f7f6f4" transform="translate(92 89)"/><path d="M469 152c0-2-2-24 6-20 18 8-4 70 37 96 18 12 39 30 78 21 1 1 3 2 7 41l-1 1c-31-32-100-39-101-45-6-32-8-46-26-94" style="fill:#f7f6f3" transform="translate(92 89)"/><path d="M483 320c2 4-3 43-4 45 0 1-26 6-54 8l-2-4c-10-46 38-67 60-49" style="fill:#fac83e" transform="translate(92 89)"/><path d="M325 246c56-1 57 2 57 7 1 9 4 61 1 71-2-5-6-27-35-42-25-13-32-7-32-6-1-23-2-23 0-28l7-2z" style="fill:#f7f6f4" transform="translate(92 89)"/><path d="M316 158c57 14 46 59 32 73-1 0-32 1-33-2v-53c0-14-1-15 1-18" style="fill:#fac93e" transform="translate(92 89)"/><path d="M466 189c3 5 11 41 13 55 1 4-2 1-11-1-48-8-72-7-73-10 0-3-5-33-4-37 2 3 17 23 41 21 29-3 31-22 34-28M230 156c16 15 34 10 26 19a39 39 0 0 0 1 55c-42 5-44 5-44 1 1-12 11-60 17-75M286 53c0 30 1 31 14 47v29c-8-9-23-27-53-16 15-36 35-56 39-60M170 527l5 5c19 23 57 52 79 60 49 19-89-20-92-34 5-12 6-12 8-31M428 388c0 5 4 32-15 44-18 12-23-16-23-19l-1-2 2-18c1-3 20-3 37-5" style="fill:#f7f6f4" transform="translate(92 89)"/><path d="M34 295h1c15 13 20 14 32 18 13 4-7 16-3 30-64-25-32-47-30-48" style="fill:#f7f6f3" transform="translate(92 89)"/><path d="M349 107c-18 5-31 2-33 1-2-4 0-53-1-63 0-6 13 18 14 20 13 22 20 41 20 42" style="fill:#fac93e" transform="translate(92 89)"/><path d="M64 360c30 10 40 11 41 13 3 16 2 16 4 21q1 2-2 4c-25 1-50-32-43-38" style="fill:#fac83e" transform="translate(92 89)"/><path d="M363 101c3-3 26-8 27 1 4 28-6 27-7 57-6-12-3-13-20-58" style="fill:#f7f5f1" transform="translate(92 89)"/><path d="M589 309c11 17-38 39-45 39 6-11 18-36 45-39" style="fill:#fac83e" transform="translate(92 89)"/><path d="M286 53c1-2 15-24 15-10-1 44 1 44-1 57-13-16-14-17-14-47" style="fill:#fac93e" transform="translate(92 89)"/><path d="M220 31c25-8 25-7 52-11 19-3-4 4-29 20-2 0-6 0-23-9" style="fill:#fac83f" transform="translate(92 89)"/><path d="M279 394c18 0 21-3 21 3v27zM146 381c-10 14-20 13-22 13-3-6-5-18-1-18z" style="fill:#fac83e" transform="translate(92 89)"/><path d="M218 249q4 0 3 7c-4 23-11 22-12 23 0-3-1-30 3-31z" style="fill:#fac93e" transform="translate(92 89)"/><path d="M498 332c9 14 9 26 7 28l-9 2c-3 1-1-1 2-30" style="fill:#fac940" transform="translate(92 89)"/><path d="m245 571 25 5 7 9c3 4-29-10-32-14" style="fill:#f7f5f1" transform="translate(92 89)"/><path d="M154 475c11 9 10 18 13 21-3-1-12-15-13-21" style="fill:#fac840" transform="translate(92 89)"/><path d="M286 245c9 0 15-5 14 5l-17-4z" style="fill:#f5c747" transform="translate(92 89)"/><path d="M281 35zl-9 8h-8z" style="fill:#f4c748" transform="translate(92 89)"/><path d="m20 275 4 8-5 5c-2 2-2-8 1-13" style="fill:#f5f4f1" transform="translate(92 89)"/><path d="m320 245 2 1h1l-7 2q-1-4 4-3" style="fill:#f1cb63" transform="translate(92 89)"/><path d="m581 228 1-2c2 0 0 4-1 2" style="fill:#fbd264" transform="translate(92 89)"/><path d="m286 245-3 1h-3l3-1z" style="fill:#d5c186" transform="translate(92 89)"/><path d="m424 25 4 2z" style="fill:#8a8b8e;fill-opacity:.2" transform="translate(92 89)"/><path d="m3 340 1 4z" style="fill:#b2a04b;fill-opacity:.2" transform="translate(92 89)"/><path d="m2 329 1 4z" style="fill:#b49a4b;fill-opacity:.2" transform="translate(92 89)"/><path d="m320 245 5 1h-3z" style="fill:#d1be89" transform="translate(92 89)"/><path d="m332 614-4 1z" style="fill:#af9351;fill-opacity:.22" transform="translate(92 89)"/><path d="m4 272-1 3z" style="fill:#af8d50;fill-opacity:.21" transform="translate(92 89)"/><path d="M281 35s4-2 1 1z" style="fill:#b2a88d" transform="translate(92 89)"/><path d="M484 560zh-3z" style="fill:#99999b;fill-opacity:.2" transform="translate(92 89)"/><path d="M38 454q2 1 2 3 0-2-2-3" style="fill:#81826d;fill-opacity:.24" transform="translate(92 89)"/><path d="m581 166 2 3q-3-1-2-3" style="fill:#6d6f73;fill-opacity:.2" transform="translate(92 89)"/><path d="m389 412-1 3z" style="fill:#d0bb7d" transform="translate(92 89)"/><path d="m584 172 1 4v-1z" style="fill:#6e6f71;fill-opacity:.22" transform="translate(92 89)"/><path d="m4 349 1 3z" style="fill:#9a9149;fill-opacity:.2" transform="translate(92 89)"/><path d="m590 431-1 3v-1z" style="fill:#6c7879;fill-opacity:.22" transform="translate(92 89)"/><path d="m195 23-3 1z" style="fill:#8b8c55;fill-opacity:.2" transform="translate(92 89)"/><path d="m184 589 3 1z" style="fill:#888954;fill-opacity:.21" transform="translate(92 89)"/><path d="m196 594 3 1z" style="fill:#898654;fill-opacity:.2" transform="translate(92 89)"/><path d="m9 376 1 3z" style="fill:#888259;fill-opacity:.2" transform="translate(92 89)"/><path d="m181 29-3 1z" style="fill:#898751;fill-opacity:.21" transform="translate(92 89)"/><path d="m372 9 2 1z" style="fill:#969898;fill-opacity:.2" transform="translate(92 89)"/><path d="m18 407 1 2z" style="fill:#9fa057;fill-opacity:.21" transform="translate(92 89)"/><path d="m614 279 1 3z" style="fill:#768085;fill-opacity:.22" transform="translate(92 89)"/><path d="m10 237-1 2z" style="fill:#9f995e;fill-opacity:.21" transform="translate(92 89)"/><path d="m231 605 2 1z" style="fill:#9c9e58;fill-opacity:.22" transform="translate(92 89)"/><path d="m352 612-3 1z" style="fill:#a68854;fill-opacity:.24" transform="translate(92 89)"/><path d="m10 380 1 2z" style="fill:#9e9959;fill-opacity:.22" transform="translate(92 89)"/><path d="m367 610 2-1z" style="fill:#ad8953;fill-opacity:.22" transform="translate(92 89)"/><path d="m405 18 2 1z" style="fill:#838485;fill-opacity:.21" transform="translate(92 89)"/><path d="m12 229-1 2z" style="fill:#999a5a;fill-opacity:.23" transform="translate(92 89)"/><path d="m376 608 2-1z" style="fill:#97975b;fill-opacity:.24" transform="translate(92 89)"/><path d="M597 290q0 2-1 1z" style="fill:#cfcfce" transform="translate(92 89)"/><path d="m13 225-1 2z" style="fill:#997f5e;fill-opacity:.22" transform="translate(92 89)"/><path d="m608 241 1 2z" style="fill:#7a7c7d;fill-opacity:.2" transform="translate(92 89)"/><path d="m269 4-3 1z" style="fill:#7b7c7e;fill-opacity:.23" transform="translate(92 89)"/><path d="m8 246-1 2z" style="fill:#a3824e;fill-opacity:.23" transform="translate(92 89)"/><path d="m164 37-2 1z" style="fill:#999a4e;fill-opacity:.22" transform="translate(92 89)"/><path d="m6 257-1 2z" style="fill:#a96750;fill-opacity:.24" transform="translate(92 89)"/><path d="m178 30-2 1z" style="fill:#93714e;fill-opacity:.23" transform="translate(92 89)"/></svg>