<svg xmlns="http://www.w3.org/2000/svg" xml:space="preserve" style="fill-rule:evenodd;clip-rule:evenodd;stroke-linejoin:round;stroke-miterlimit:2" viewBox="0 0 800 800"><path d="m247 4 2-1q31-1 48 0l4 1h5l4 2h4l3-1h1c2 4 3 1 8 3l15 3 2-1h1q-1 1 2 3c7 1 6 1 31 10l14 7 13 8c12 8 11 10 19 13l2 1q0 3 5 4 2 3 6 5l2 2 1 1 16 16 1 2c11 14 13 37 15 46l3 10 1 3 3 15 1 2v1l1 3v1l1 3 5 22 1 3c2 12 10 14 13 23l10 17 15 26 10 20 1 3q1 5 2 5l1 3c2 10 5 9 5 39l-1 7-1 3c-5 20-7 19-16 37l-3 9c0 10-3 126-2 129q1 1-4 9 0 2-4 2l-5 1-8-7-6-4c-1-1-2 0-13-8-8-5-19 4-19 10-1 17 2 28-20 51q-2 0-3 2l-1 1-9 5-6 4c-7 0-11 4-13-4-2-9 1-14-24-34l-22-14c-5-6-19-8-21-25v-5l-1-1-4 2-1 1-4 1-2 2-6 4v15c1 25-7 27-15 39l-1 2c-4 3-5 2-8 6l-2 3-17 14-1 2-12 10-14 14-1 1-1 1q-4 1-5 4c-3 0-2 2-5 3l-5-1c-7-2-3-5-18-35-1-2-12-23-19-28q0-4-2-3l-1-4c-7-9-14-31-15-33l-1-3v-4l-1-3 1-4v-35q2-5-1-5l-1 2-1 3q-3 2-2 3c-5 3-5 4-8 8l-3 1-3 2c-6 6-13 8-36 25-8 6-5 15-13 27-15 23-55 36-66 44-14 12-21 8-22 5l-1-2c0-15-2-14-3-28l-1-4c0-6-1-31 4-58l1-3 3-13 1-3c5-11 3-12 7-24l1-3 2-8 1-1v-1h-2c-8-2-16-10-22-15l-2-2q-2-4-5-6 1-2-2-2l-2-6c-3-8-4-7-4-15l3-8c0-6 23-75 23-77l1-1v-1l1-2 2-7 17-43q8-20 7-21l6-17 1-5 1-2v-1l1-2v-1l1-2 2-5 1-4 1-2q3-3 3-10l1-5 1-3v-3l1-3v-7l1-4 1-7 1-2 8-23 2-4 9-15q1 1 1-2l1-1 1-2q2 1 2-2l1-2 2-2 1-2 4-4 1-2 3-3 3-3 2-1 1-2 1-1 1-1 1-2 2-1 1-1 1-1 1-2s1 1 12-7l3-4q3-1 3-3l7-3 4-4 11-7 1-1 1-1q5 0 6-3l1-1 3-1 1-1 3-1 1-1 5-2c25-11 25-10 44-16zm131 251s3 3 1 8q-1 2-1-7z" style="fill:#a7a9ac;fill-opacity:.99" transform="translate(121 88)"/><path d="m457 145 1 1c-4 16-22 22-25 23-5 0-6-30-19-30-12 0 4 23 0 22-32-7-46 18-43 32l-2 5c0 10 2 9 4 19 4 20 3 24 5 38v1c-7-3-24-17-54-6-7 2-6 3-19 12 0-1 0-12-7-12-14-2-5 18-8 32-1 3-10 22-19 32-8 9-53 26-75-15 0-1-3-13-11-10-7 3-7-3-15-3-42-1-60 29-67 38-1 2-14 15-30 8l-2-2 1-45c1-5 8 2 25-16 11-11 31-58 88-28 4 2 0 24 1 25 6 9 6-19 7-21v-6c-3-24 14-100 22-126 1-5 63-14 71-14 3 0 6 27 10 63 8 75-2 77 3 80 12 11 2-82 2-90-6-50-9-49-7-53 0-2 40-2 45-2 2 0 5 7 5 8 17 39 18 75 21 76 8 3-1-29-2-34 0-2 8-5 9-6 40-13 55 0 58 2 4 2 6-3 2-5-7-6-21-6-23-10l-9-21c-2-5 49 15 57 38" style="fill:#f7f6f5" transform="translate(121 88)"/><path d="m77 205 1-2c8-31 6-33 8-34 5 0 4-2 5-4 3-7 57-32 58-32 4 1-4 2-18 49-8 28-8 28-7 29 3 3 5-2 5-3 3-8 2-9 6-17 2-2 10-17 28-22 12-2 12 0 22 7 3 3 7-1 3-4-21-21-46 4-49 6-6 7 15-43 19-47 3-4 47-17 50-18v3c-28 99-18 121-22 119-21-9-32-15-61-2-22 10-30 40-50 44q-3 1-2-5c1-16-1-40-1-42q3-12 5-15c22-27 35-12 37-16 5-8-22-10-35 5z" style="fill:#f0f0ef" transform="translate(121 88)"/><path d="M249 437c42-2 48-24 52-24 1 0 5 51 3 53-49 60-88 12-92 7-15-20-16-20-15-45 0-8-1-18 2-14 18 19 24 22 50 23" style="fill:#e6e6e5" transform="translate(121 88)"/><path d="M293 293c3 54 4 54 2 58-8 13-14 23-26 28-43 20-69-17-72-22s-1-5-2-48c4 3 19 28 61 20 27-6 30-34 37-36" style="fill:#f4f3f2" transform="translate(121 88)"/><path d="M71 338c27 5 35-8 41-16 29-39 62-30 66-27 3 1 2 2 3 44q0 2-2 1c-26-16-61 11-66 27-4 5-3 5-4 11-3 1-22 13-40-8-2-6 1-6 2-32" style="fill:#fcfbf9" transform="translate(121 88)"/><path d="M405 465c7-5 9-24 8-35 0-9-2-13 6-12 6 1 16 1 16 6 7 45 8 45 26 67 3 3-8 3-13 18q-2 4-2 13l-3-2c-17-18-22-5-42-8-21-3-32-17-33-27l14-3c11-4 11-5 22-15z" style="fill:#888;fill-opacity:1" transform="translate(121 88)"/><path d="m197 462 2 2c25 46 71 50 103 13 4-5 4-1 4-1 1 22 5 37 1 40-22 13-53 54-109-8z" style="fill:#d6d7d7" transform="translate(121 88)"/><path d="M297 360c3 19 0 19 3 39 2 10-17 25-32 29-42 13-61-13-69-22-3-2-2-3-4-41 6 2 2 7 24 19 29 16 64 1 75-21l2-3z" style="fill:#ededec" transform="translate(121 88)"/><path d="m315 396 2-1c1-3 4-12 19-30 12-14 36-15 42-9 3 3 4 4 4 60-1 3-2 0-5-1-26-12-57 25-58 25l-1-1c0-12-4-35-3-43" style="fill:#f0f0ee;fill-opacity:1" transform="translate(121 88)"/><path d="m307 268 3-3c3-3 24-20 50-11 22 7 19 16 20 23 1 27 1 30-1 28-21-16-47-6-58 6-9 10-8 13-12 12-3-52-4-53-2-55" style="fill:#efefee" transform="translate(121 88)"/><path d="M349 423c2-1 25-11 30 0 8 21 17 16 17 26 1 24-63 27-69 35-9 11-8-19-8-25 0-1-8-13 30-36" style="fill:#d4d5d5" transform="translate(121 88)"/><path d="M311 334c2-5 11-19 20-25 9-7 25-6 27-6 14 0 23 10 23 17v29c0 3-4-1-9-2-33-4-49 25-49 26-8 10-7 12-10 12 0-16-3-41-2-51" style="fill:#f2f1f0;fill-opacity:1" transform="translate(121 88)"/><path d="M200 522q4-1 7 3c18 14 37 30 69 17 2-1 26-14 31-19q2-3 3 0c0 19-7 22-57 69q-9 9-9 6c-13-25-12-25-28-49-4-5-7-8-16-27" style="fill:#c4c6c7" transform="translate(121 88)"/><path d="M110 496c-2 12-3 22-14 35-3 4-15 13-18 14-37 18-38 23-39 20-5-33-2-43-1-61 9 4 14 21 52 3 16-7 14-11 20-11" style="fill:#c9cacb" transform="translate(121 88)"/><path d="M62 405c1 1 14 19 38 7l9-5c-1 41 1 41-1 44q-3 5-12 10c-5 4-15 6-18 6-21 1-22-18-23-21z" style="fill:#ecebea" transform="translate(121 88)"/><path d="m395 312-1-47c27-17 44-5 47-3 5 3 6 5 14 45 2 11-4-1-14-4-27-8-38 5-46 9" style="fill:#ebebe9" transform="translate(121 88)"/><path d="m51 454 2 4c3 10 16 16 27 14 18-2 29-13 30-14v2c-1 16 1 21-1 29-51 38-65 13-68 7 0 0-2 0 10-42" style="fill:#e7e7e6" transform="translate(121 88)"/><path d="M386 211c8-7 8-7 18-10h12c17 3 15 9 16 14l12 40c1 8-12-18-49 4l-2-1c-5-44-8-44-7-47" style="fill:#efeeed" transform="translate(121 88)"/><path d="M368 485c1 10 12 24 33 27 20 3 25-10 42 8l3 2c1 5 3 23-21 38-4 3 0-5-18-22-11-12-44-31-45-32-8-7-6-19 0-20z" style="fill:#95989a" transform="translate(121 88)"/><path d="m180 391 1 26c-41-14-59 34-58 19 0-4-3-32 1-39 2-4 11-19 34-20 15 0 18 13 22 14" style="fill:#f1f1ef" transform="translate(121 88)"/><path d="M180 424c4 7-6 27-20 38-34 26-36 30-36 27v-39c0-5 29-42 56-26" style="fill:#c9cacb" transform="translate(121 88)"/><path d="M235 63c10-4 41-11 42-9l7 39c-48 5-64 12-65 11-3-1 14-39 16-41" style="fill:#f4f4f2" transform="translate(121 88)"/><path d="M398 317c6-4 16-16 39-9 19 5 22 22 23 24l2 19c-2 0-21-16-51-5-11 4-15 10-15 7l-1-33z" style="fill:#e8e8e7" transform="translate(121 88)"/><path d="M461 359c3 3 2 4 6 25h-3c-6-5-31-14-61-2q-3 3-7 4l1-26c3-2 19-16 44-12 8 1 19 10 20 11" style="fill:#e8e8e7" transform="translate(121 88)"/><path d="M241 24c-1 5-8 6-19 17-28 27-26 30-40 38-38 19-62 42-66 47-13 12 13-21 33-41 14-14 53-50 79-57z" style="fill:#efeeed" transform="translate(121 88)"/><path d="M119 367c13-28 61-36 62-13v29l-2-1c-4-8-15-10-20-10-23-1-34 15-37 17 0-13 2-15-3-22" style="fill:#fbfaf8" transform="translate(121 88)"/><path d="M458 131c-5 2-3-3-19-13-20-15-43-17-45-20-6-11-18-24-20-26-5-7-17-15-10-12 42 15 47 19 76 41 4 3 5 3 18 30" style="fill:#e8e8e7" transform="translate(121 88)"/><path d="M466 392c4 4 2 8 5 22 2 10-12-7-51-11-17-2-24 6-24 3q0-8 2-13c10-9 42-21 68-1" style="fill:#ebebea" transform="translate(121 88)"/><path d="m463 154 13 50-3 5c-1 2-10 12-24 4l-14-37q-1-2 2-3c16-5 20-17 26-19" style="fill:#d2d3d3" transform="translate(121 88)"/><path d="M300 20c8 1 64 6 107 41 3 2 20 16 29 27 5 8-3 0-12-6-28-21-72-31-73-33-4-2-18-15-46-25q-6 0-5-4" style="fill:#d8d8d8" transform="translate(121 88)"/><path d="M310 52c10 8 25 34 26 37 3 4-2 2-24 2-10 0-20 2-20 0-9-36-12-38-8-38 5-1 22-2 26-1" style="fill:#f6f5f4" transform="translate(121 88)"/><path d="m478 212 6 28c4 24 4 25 2 26-3 2-8 9-22 5-3 0-2-1-12-40l-1-11c3-3 11 9 27-8" style="fill:#e5e5e4" transform="translate(121 88)"/><path d="M392 104c1 2 13 25 11 26-1 0-17 1-33 7q-9 5-9 2c-11-40-15-42-12-42 9 1 39 5 43 7" style="fill:#fafaf8" transform="translate(121 88)"/><path d="M193 79c7-4 25-11 30-12 8-4 1 4-6 23-5 13-3 16-10 18-42 11-43 15-43 12-1 0 19-31 29-41" style="fill:#f3f3f1" transform="translate(121 88)"/><path d="M350 56c20 17 18 19 36 39 5 5-3-1-39-3-7-1-7-14-27-38q-2-2 1-2z" style="fill:#faf9f7" transform="translate(121 88)"/><path d="M517 358q-1 1-1-1c-12-97-14-96-15-103 0-1-4-18-1-13l12 24c29 59 10 84 5 93" style="fill:#b8babc;fill-opacity:1" transform="translate(121 88)"/><path d="M376 193c-2-6 2-16 8-20 15-13 31-6 32-6 4 1 11 30 11 31-2 5-12-14-43 7-3-7-1-8-8-12" style="fill:#f4f4f2" transform="translate(121 88)"/><path d="M494 313c-4 8-7 10-21 11-3-3 0-3-9-45-1-6 6 4 24-7 2-2 1 1 6 31q1 10 0 10" style="fill:#e7e6e6" transform="translate(121 88)"/><path d="M97 150c23-28 94-74 83-62-2 2-11 10-23 33-5 8-13 6-43 23-14 7-15 10-17 6" style="fill:#f2f2f0" transform="translate(121 88)"/><path d="M505 473v27q1 4-15-6c-3-2-23-14-33-33q-3-8 8-8 2 1 6 7c11 13 20 13 34 13" style="fill:#b4b6b8" transform="translate(121 88)"/><path d="M67 378zc10 6 14 16 42 7 0 8 2 9-2 15l-3 4c-3 4-18 11-28 6-11-5-10-10-11-14z" style="fill:#f3f2f1" transform="translate(121 88)"/><path d="M34 336c-1-6 12-33 24-72 4-11 0 17-1 61-1 8 1 22-23 11" style="fill:#bbbdbf" transform="translate(121 88)"/><path d="M31 341c16 5 16 5 23 3 3-1-1 33-4 33-11 2-24-5-25-6-4-2-1-3 6-30" style="fill:#b2b4b6" transform="translate(121 88)"/><path d="M497 321c2 20 6 35 2 37-7 5-16 1-20 1q-1 1-2-3c-4-23-4-24-3-26 4-1 8 1 23-9" style="fill:#ddd" transform="translate(121 88)"/><path d="M507 388c-1 39 0 40-3 42-7 2-7 3-14 0q-5-13-7-37h7c9 1 12-4 17-5" style="fill:#d0d1d2" transform="translate(121 88)"/><path d="m187 42 2 1c0 2-24 13-65 61-20 23-31 47-31 40l14-28c25-44 71-68 80-74" style="fill:#cfd0d0" transform="translate(121 88)"/><path d="M506 435zc-1 29 0 29-2 31-10 1-17 2-29-10-1 0-5-5-3-6 9-2 19-1 17-14l1-1 5 1c6 0 6-1 11-2" style="fill:#bfc1c2" transform="translate(121 88)"/><path d="m290 282 2 2 1 9c-7 2-10 30-37 36-42 8-57-17-61-20v-6l1-4c22 41 67 24 75 15 9-10 18-29 19-32" style="fill:#bcbec0" transform="translate(121 88)"/><path d="m295 351 2 2v7h-1l-2 3a58 58 0 0 1-75 21c-22-12-18-17-24-19l1-5 1-3c3 5 29 42 72 22 12-5 18-15 26-28" style="fill:#babcbd" transform="translate(121 88)"/><path d="M257 24q9-10 13 8c5 15 5 16 3 16l-33 7q-6 3 17-31" style="fill:#f3f2f1" transform="translate(121 88)"/><path d="M478 364c17 3 17 1 21 0l2 3c4 1 5 12 4 14-7 6-7 9-22 5-1-1-2-2-5-22" style="fill:#dbdbdb;fill-opacity:1" transform="translate(121 88)"/><path d="m109 489 1 7c-6 0-4 4-20 11-38 18-43 1-52-3l3-8c3 6 17 31 68-7" style="fill:#b2b4b6" transform="translate(121 88)"/><path d="M220 177c47 2 56-23 61-16 7 8-60 32-74 17-1 0-4-7 5-3 2 2 2 1 8 2" style="fill:#c1c2c3" transform="translate(121 88)"/><path d="M467 384v5l-1 3c-26-20-58-8-68 1l-2-4v-3q4-1 7-4c30-12 55-3 61 2z" style="fill:#b8babb" transform="translate(121 88)"/><path d="M247 26c4 2 0 3-7 15-8 13-5 16-15 19-16 5-32 16-20 5l18-17c11-12 12-11 24-22" style="fill:#f6f5f4" transform="translate(121 88)"/><path d="m282 20 6 3c28 12 33 12 49 22 13 8-4 2-19 1-8 0-7-3-13-8-13-11-22-13-23-18" style="fill:#efeeed" transform="translate(121 88)"/><path d="M55 446c1 3 2 22 23 21 3 0 13-2 18-6q9-5 12-10l1 3 1 4c-1 1-12 12-30 14-11 2-24-4-27-14l-2-4 2-7z" style="fill:#b8babb" transform="translate(121 88)"/><path d="M453 424c3 1 31 18 20 21-2 0-2-2-15 2h-5c-5-22-5-22-3-23z" style="fill:#8a8a8a;fill-opacity:1" transform="translate(121 88)"/><path d="m181 383-1 8c-4-1-7-14-22-14-23 1-32 16-34 20l-2-4v-4c3-2 14-18 37-17 5 0 16 2 20 10z" style="fill:#bdbfc0" transform="translate(121 88)"/><path d="M274 22c15 11 16 9 29 22 4 3-1 1-20 3-5 0-2-3-11-23-1-5 2-2 2-2" style="fill:#f4f3f1" transform="translate(121 88)"/><path d="M65 395c1 4 0 9 11 14 10 5 25-2 28-6l3-4 2 2v6l-9 5c-24 12-37-6-38-7l2-8z" style="fill:#b9bbbd" transform="translate(121 88)"/><path d="M69 370c18 21 37 9 40 8v6c-28 9-32-1-42-7v1z" style="fill:#bcbebf" transform="translate(121 88)"/><path d="M331 138c2 0 18-1 18 3 2 5-7 2-9 2-19-1-30 8-32 7s-4-8 23-12" style="fill:#c2c4c5" transform="translate(121 88)"/><path d="M494 313c0 1 2 0 3 8-15 10-19 8-23 9q-2-3-1-6c14-1 17-3 21-11" style="fill:#b5b7b9" transform="translate(121 88)"/><path d="M505 381q2 0 2 7c-5 1-8 6-17 5h-7v-7c15 4 15 1 22-5" style="fill:#b4b6b8" transform="translate(121 88)"/><path d="M490 430c7 3 7 2 14 0l2 3v2c-5 1-5 2-11 2l-5-1-1 1q-2-4 1-7" style="fill:#abaeb0" transform="translate(121 88)"/><path d="M378 255s3 3 1 8q-1 2-1-7z" style="fill:#a0a3a6;fill-opacity:.94" transform="translate(121 88)"/><path d="m5 379-3 8z" style="fill:#6a727b;fill-opacity:.29" transform="translate(121 88)"/><path d="M513 523q-2 2-5 1z" style="fill:#7b8186;fill-opacity:.26" transform="translate(121 88)"/><path d="M182 466v5z" style="fill:#979899;fill-opacity:.25" transform="translate(121 88)"/><path d="m89 115-2 4z" style="fill:#8b8d8e;fill-opacity:.21" transform="translate(121 88)"/><path d="M343 497v4z" style="fill:#848587;fill-opacity:.25" transform="translate(121 88)"/><path d="M166 478q-1 3-3 2z" style="fill:#768085;fill-opacity:.2" transform="translate(121 88)"/><path d="M179 466zl-1 3q-1-1 2-3" style="fill:#71797d;fill-opacity:.21" transform="translate(121 88)"/><path d="m297 3 4 1z" style="fill:#7a7c80;fill-opacity:.2" transform="translate(121 88)"/><path d="m185 26-3 1z" style="fill:#88898a;fill-opacity:.2" transform="translate(121 88)"/><path d="m301 567-2 3z" style="fill:#757777;fill-opacity:.21" transform="translate(121 88)"/><path d="m478 156 1 2z" style="fill:#979899;fill-opacity:.2" transform="translate(121 88)"/><path d="m77 205 2-1z" style="fill:#c0c1c2" transform="translate(121 88)"/><path d="m30 298-1 2z" style="fill:#787997;fill-opacity:.22" transform="translate(121 88)"/><path d="m76 162-1 3z" style="fill:#71737a;fill-opacity:.24" transform="translate(121 88)"/><path d="M204 32v-1q2 0 0 1" style="fill:#a3a5a8" transform="translate(121 88)"/><path d="M269 596" style="fill:#767e87;fill-opacity:.24" transform="translate(121 88)"/><path d="m79 142-1 2z" style="fill:#777879;fill-opacity:.23" transform="translate(121 88)"/><path d="M310 6h4z" style="fill:#999b9f;fill-opacity:.44" transform="translate(121 88)"/><path d="m65 200-1 2z" style="fill:#656e70;fill-opacity:.2" transform="translate(121 88)"/><path d="M506 433v3-3" style="fill:#aaadaf" transform="translate(121 88)"/><path d="m64 203-1 2z" style="fill:#666d71;fill-opacity:.2" transform="translate(121 88)"/><path d="m282 584-1 2z" style="fill:#707275;fill-opacity:.24" transform="translate(121 88)"/><path d="M297 214v-1z" style="fill:#c5c6c7" transform="translate(121 88)"/></svg>