<svg xmlns="http://www.w3.org/2000/svg" xml:space="preserve" style="fill-rule:evenodd;clip-rule:evenodd;stroke-linejoin:round;stroke-miterlimit:2" viewBox="0 0 800 800"><path d="m247 4 2-1q32-1 48 0l4 1h5l4 2h4l3-1h1c2 5 5 2 7 2l3 1 5 1 9 2 1-1h1q2 3 3 3l6 2q14 2 42 18c17 10 21 16 28 18l2 1q0 3 5 4 2 3 6 5l1 1v1h1l1 1 6 6 5 6 5 4 1 2 7 13c1 3 2 3 6 21l2 11 4 14 3 15 1 2v1l1 3v1l1 3 5 22 1 3q-2 1 4 9c3 4 2 6 5 6q-1 1 1 3l22 36q16 30 16 32l1 3q1 5 2 5l1 3 3 7c2 11 2 31 1 33v6l-1 3c-3 20-14 29-16 38l-1 2-2 6-1 55-1 71-2 9q-1 4-6 5l-5 1-6-4-5-5c-17-9-17-13-24-11-19 7-9 17-12 27-3 13-3 13-9 24l-10 11h-2v1h-1v1l-1 1-4 2c0 1-1-1-8 5l-3 1-5 1c-6 3-7-1-7-1-2-19-10-25-25-37l-19-13-3-1c-4-5-19-9-21-25v-5l-1-1-4 2-1 1-4 1-1 1-1 1-2 1q-1-1-4 4c-2 2-1 9-1 10 2 24-1 25-10 37l-4 6-1 2-8 6q-2 2-2 3l-7 5-10 9-1 2-12 10-14 14-1 1-1 1q-4 1-5 4c-3 0-2 2-5 3l-5-1h-3l-5-14-9-18c-1-3-15-27-20-31q0-4-2-3l-4-9q-3-4-4-10l-8-18-1-3v-4l-1-3 1-4v-39c-1-2-3 3-3 4l-2 3-1 1-7 6v1l-3 1-3 2c-8 8-20 12-28 19q-6 6-9 6c-4 4-3 9-8 19q1 5-17 23l-9 5c-4 1-5 4-22 12l-18 9-10 8-4 1q-9 5-12-1l-1-2c0-16-2-15-3-28l-1-4c0-8-1-32 4-58l1-3 3-13 1-3c5-11 3-12 4-12l3-12 1-3 2-8 1-1v-2l-2 1c-7-1-19-13-22-15v-1h-1v-1h-1q-2-4-5-6v-1q-1-2-2-1c0-6-6-8-6-19v-2l3-8c2-12 16-55 19-61l2-7 3-11 1-2 2-7 23-60q0-3 2-5l3-10 1-2v-2l2-7 1-2v-1l1-2v-1l1-2 1-1 1-4 1-4 1-2q3-3 3-10l1-5 1-3v-3l1-3v-7l1-4 1-7 1-2 8-23q3-4 2-4l9-15q1 1 1-2l1-1 1-2h1q2-1 1-2h1v-2l2-2 1-2 4-4h1v-2l3-3 2-1 1-2 2-1 1-2 1-1 1-1 1-2 2-1 1-1 1-1 1-2c5 0 5-3 10-7l4-2 1-2q3-1 3-3 3 0 4-3h3l1-2 3-2 8-5 3-2 1-1 1-1q6-1 6-3l1-1 3-1 1-1 3-1 1-1q5-1 5-2l10-4c14-7 41-14 46-15m223 441q-3 2-7 2c-3 0-6 3-9 1z" style="fill:#a1a4a7;fill-opacity:.99" transform="translate(121 88)"/><path d="M451 410c-43-15-53-2-55-3-1-2 3-122-7-180-7-33-10-34-13-34-10-2-7 10-7 11 12 54 7 55 9 59 3 12 5 152 3 156-7 13 15 22 15 30 0 20-42 23-67 34q-2 1-5 3c-1 0-4 2-5-13-1-21-2-21-1-33l-7-88-7-94c-1-11-12-10-14-4-1 5 12 166 13 182 3 62 8 93 6 99-6 12-43 44-44 45-18 17-17 19-20 19-1 0-11-26-25-43-14-19-23-42-23-46v-12l-1-124c-2-59 3-82-6-85-13-3-10 17-9 23v74c-2 36 8 38-11 66l-27 24-17 14q-3 0-2-4c2-39-2-39-2-92v-17c0-11-7-10-10-7-8 7 0 107-3 128-4 35-24 44-41 52-26 12-28 20-29 15-3-22-7-50 9-100 10-32 8-33 15-66 10-44 9-115 10-118 3-38-2-45-1-51l6-29q10-45 13-48l4-8c6-22 25-52 48-72 123-104 297-42 318 76 1 7 3 6 5 13 11 48 13 47 13 52 1 15 14 68 18 108l8 55c3 8 2 8 2 17l-2 107c-1 1-1 0-16-8-3-2-23-13-32-32q-6-7 19-10c20-4 12-13 12-19q1 0-2-22a864 864 0 0 1-14-85c-2-17-3-27-20-96-10-41-30-85-30-85-6-11-16-4-12 4l16 44c13 44 13 44 21 82 6 22 5 22 10 45l10 70 4 27c1 2-1 1-20-6" style="fill:#ededec;fill-opacity:1" transform="translate(121 88)"/><path d="M427 419c9 2 8 4 9 9 5 30 5 40 23 60l3 5-8 5c-14 14 0 30-15 50-6 8-15 13-16 12l-4-9c-2-3-7-12-35-31-7-6-27-11-27-23q-2-10 7-12c7-1 36-3 47-29 6-15-2-38 4-38z" style="fill:#8b8c8d;fill-opacity:1" transform="translate(121 88)"/><path d="M60 262c1 3-1 3-2 43-1 33-5 62-6 67l-1 16c-1 1-5 18-6 28q0 6-9-2c-12-8-19-21-18-24a945 945 0 0 1 40-125q0-3 2-3" style="fill:#b2b5b6" transform="translate(121 88)"/><path d="m527 333-1 2q0 4-4 13l-5 10-3-10c-3-25-8-77-15-105q0-4 1-1c5 12 32 48 27 91" style="fill:#b8babc;fill-opacity:1" transform="translate(121 88)"/><path d="m470 445-16 3c-3-7-2-7-4-17q-3-6-1-6c1-2 3-4 21 10q11 9 0 10" style="fill:#898a8a" transform="translate(121 88)"/><path d="M470 445q-3 2-7 2c-3 0-6 3-9 1z" style="fill:#9da0a3;fill-opacity:.89" transform="translate(121 88)"/><path d="m5 379-3 8 2-6z" style="fill:#6a727b;fill-opacity:.29" transform="translate(121 88)"/><path d="M513 523q-2 3-5 1z" style="fill:#7b8186;fill-opacity:.26" transform="translate(121 88)"/><path d="M182 466v5z" style="fill:#979899;fill-opacity:.25" transform="translate(121 88)"/><path d="M89 115q1 0-2 4z" style="fill:#8b8d8e;fill-opacity:.21" transform="translate(121 88)"/><path d="M343 497v4z" style="fill:#848587;fill-opacity:.25" transform="translate(121 88)"/><path d="m166 478-1 1-2 1z" style="fill:#768085;fill-opacity:.2" transform="translate(121 88)"/><path d="M179 466zl-1 3z" style="fill:#71797d;fill-opacity:.21" transform="translate(121 88)"/><path d="m297 3 4 1z" style="fill:#7a7c80;fill-opacity:.2" transform="translate(121 88)"/><path d="m185 26-3 1z" style="fill:#88898a;fill-opacity:.2" transform="translate(121 88)"/><path d="m301 567-2 3q0-2 2-3" style="fill:#757777;fill-opacity:.21" transform="translate(121 88)"/><path d="m478 156 1 2z" style="fill:#979899;fill-opacity:.2" transform="translate(121 88)"/><path d="m527 333-1 2z" style="fill:#a8abac;fill-opacity:.92" transform="translate(121 88)"/><path d="m30 298-1 2z" style="fill:#787997;fill-opacity:.22" transform="translate(121 88)"/><path d="m76 162-1 3z" style="fill:#71737a;fill-opacity:.24" transform="translate(121 88)"/><path d="M269 596" style="fill:#767e87;fill-opacity:.24" transform="translate(121 88)"/><path d="m79 142-1 2z" style="fill:#777879;fill-opacity:.23" transform="translate(121 88)"/><path d="m527 333-1 2z" style="fill:#acaeb0;fill-opacity:.94" transform="translate(121 88)"/><path d="M310 6h4z" style="fill:#999b9f;fill-opacity:.44" transform="translate(121 88)"/><path d="m65 200-1 2z" style="fill:#656e70;fill-opacity:.2" transform="translate(121 88)"/><path d="m64 203-1 2z" style="fill:#666d71;fill-opacity:.2" transform="translate(121 88)"/><path d="m282 584-1 2z" style="fill:#707275;fill-opacity:.24" transform="translate(121 88)"/></svg>