<?xml version="1.0" encoding="UTF-8" standalone="no"?>
<!DOCTYPE svg PUBLIC "-//W3C//DTD SVG 1.1//EN" "http://www.w3.org/Graphics/SVG/1.1/DTD/svg11.dtd">
<svg width="100%" height="100%" viewBox="0 0 800 800" version="1.1" xmlns="http://www.w3.org/2000/svg" xmlns:xlink="http://www.w3.org/1999/xlink" xml:space="preserve" xmlns:serif="http://www.serif.com/" style="fill-rule:evenodd;clip-rule:evenodd;stroke-linejoin:round;stroke-miterlimit:2;">
    <g transform="matrix(1,0,0,1,199,147)">
        <path d="M331,341L334,342L346,356C352,360 353,364 358,369L363,372C364,376 379,389 382,393C384,397 390,400 391,401C393.667,405 399.667,411.667 409,421C416,429 418,429 420,431C423,438 443,451 442,460C440,473 426,468 425,468C391,468 391,465 387,467L386,541C386,556 388,559 380,560L375,560C357,562 335,560 329,562L287,562L265,563C261,562.333 258.333,559.333 257,554L258,495L259,490C260,469 260,469 258,468C258.667,467.333 258.333,467 257,467L255,468L235,467L233,466C231.667,465.333 230,465.667 228,467C226,465.667 223.667,465.333 221,466C222.333,466 221,465.667 217,465L206,465C199,460 200,459 200,458C200,455.333 200.667,452.667 202,450L216,437L217,437L217,436L218,436L218,435L219,434L232,423L232,422L235,419C243.667,411.667 247.667,407.667 247,407L248,407L249,406L255,401C264,393 263,392 264,391C268,390 279,378 279,377C283,375 288.333,370.333 295,363L309,350C322,339 322,335 331,341" style="fill:rgb(251,200,61);fill-opacity:0.98;"/>
    </g>
    <g transform="matrix(1,0,0,1,199,147)">
        <path d="M379,334L379,351C379,353 381,366 375,369C371,370 364,366 363,362L363,114C362,113 361,115 346,115L333,116C329,117 311,115 306,117C296,120 287,111 286,110L281,105L275,94C272,90 274,89 274,72L273,42C272,38 275,20 272,19L241,19L236,20L158,20L153,21C115,21 76,20 72,22C64,24 43,16 28,31C25,34 25,33 23,38L20,42C18,53 17,53 19,57L19,184L20,192L20,236C20,261 19,325 21,330L21,435C21,439 17,466 36,480C42,484 42,483 106,483L216,484C219,484 225,482 229,491C230,491 232,500 222,500L42,500C36,499 25,493 23,490C19,485 13,484 6,464C6,459.333 5.333,454.667 4,450L5,433L4,402L4,265C5,262 2,262 3,257L3,130L2,124L2,83C2,51 1,44 5,35C5,33.667 6.333,31.333 9,28L12,22C14,20 16,21 18,16L23,13C24.333,12.333 26,11.333 28,10C33,7 53,3 59,4C64,6 105,6 108,4C112,3 185,5 190,3C194,2 268,4 273,2L283,3C288,6 289,6 292,11C294,16 295,14 298,18C300,22 302,20 304,24C307,29 308,27 311,32L338,58L344,64C344.667,66 346,67.667 348,69L353,74C356,79 357,77 360,81C362,85 364,83 366,87C368,91 369,90 372,94C376,97.333 378.667,100.667 380,104L380,219L379,231L380,290C381,295 378,312 380,317L380,328L379,334ZM291,34L306,50C317,60 316,61 317,62C321,64.667 323.333,67 324,69C329,71 328,74 331,76C336,78 335,81 338,82C340,83.333 341.667,85.333 343,88L351,95C351,95 356,98 351,98L335,99C302,99 302,102 297,98C287,88 292,83 291,77L290,51C290,36 289,35 291,34" style="fill:rgb(255,254,251);fill-opacity:0.95;"/>
    </g>
</svg>
