<svg xmlns="http://www.w3.org/2000/svg" xml:space="preserve" style="fill-rule:evenodd;clip-rule:evenodd;stroke-linejoin:round;stroke-miterlimit:2" viewBox="0 0 800 800"><path d="M94 88c6-4 4-5 10-9 43-33 43-34 89-55 69-30 172-29 246 9a309 309 0 0 1 146 406l-19 35-1 2c-9 13-10 12-10 14l-1 2c-5 4-8 11-26 30l-1 2q-4 2-6 5l-1 2c-12 7-42 46-128 72-84 26-171 0-172-1l-21-7c-14-4-50-26-55-28-17-10-35-27-36-27a308 308 0 0 1-79-359c25-49 28-48 47-74l2-1 14-16zm152-51-2 1-3 3-3 1-2 2-2 1-4 3-2 2-1 1-2 1-1 1-2 2-10 9-1 2-1 1-2 1q-22 24-25 26l-1 2c-21 27-25 35-35 52-18 29-36 83-37 93-1 13-15 8-35 17l-25 9-26 14-2 2-2 5-1-3c9-61 8-64 35-118 20-40 55-71 57-72l2-2 26-21c16-12 17-10 34-21 36-22 120-37 104-30-26 10-24 15-31 16m189 55c-2-1-39-52-86-69-15-6 3-2 4-2 1 1 3 2 23 7 80 19 126 67 128 70l2 1c19 14 82 88 90 189 1 6-3 0-3 0a203 203 0 0 0-86-38c-15-1-11-6-14-21-3-11-17-84-57-135zm159 246 1 2-1 5c-1 25-10 49-11 53-16 49-40 81-43 83l-1 2c-11 16-15 20-17 21l-1 2-20 19-2 1c-2 4-2 3-25 21-36 28-100 44-109 47l-2-3 14-9 3-1 1-2 20-17 2-2 4-5c11-11 20-23 21-24l2-1c1-4 2-3 4-6l1-2c1-3 27-41 40-78 19-59 16-59 18-64 0-2 79-16 101-42m-573-2c3 3 10 11 42 24 36 15 37 11 40 13 2 0 5 44 29 96 21 43 39 58 44 67l2 1c4 3 3 3 6 7l18 16 1 2q11 6 12 9l2 1q7 2 8 5c12 10 37 18 37 19l-20-5c-39-10-39-11-75-29-53-27-98-86-104-100l-1-2-6-9c-26-52-29-62-36-113zM328 31c7 2 46 17 75 49l2 2 1 2c15 15 31 39 42 63 27 57 24 70 30 95 2 5-8-1-19-1l-31-4c-31-3-32-2-32-5a407 407 0 0 0-69-200q-1 0 0 0zm145 352h1l1 1c0 7-16 63-24 76-2 2 1 3-15 29-2 5-14 23-16 24l-1 2-2 2-1 2-15 18c-1 2-13 16-18 18l-1 2c-14 14-54 38-57 37l3-3 12-24c31-62 46-137 48-149l3-13c0-2 0-13 3-13s22-3 38-3zm-173-80-1 4v69q1 2-2 2c-31 0-31-1-61-2-2 0-23 0-23-3-4-17-3-34-3-38l-1-56q1-3 2-25c0-9 4-5 29-6 4-1 60-4 60 0zm-85 246-8-6c-7-7-49-43-70-105-15-43-10-44-16-60-2-4 2 2 57 9 13 1 21-2 22 10a479 479 0 0 0 43 136c5 14 24 40 24 41l1 2 1 1h1l1 3 1 1v2c-2 0-37-16-55-33zm71-496 12-13c3-5 2 4 2 5v183c0 2-22 2-24 2-29 0-29 2-59 2 0 0-4 3-3-3 11-69 25-97 26-100 1-2 15-40 46-76m-2 515a380 380 0 0 1-66-178c5 1 4 3 62 4 19 0 19 2 19 4v188c0 5-10-11-13-15zm115-253v-35c-1-29-1-31 1-30l13 2c18 0 66 9 67 9a411 411 0 0 1-2 103c-1 3-73 11-81 11-6 0 2-5 2-60M276 37l3 2c-3 1-65 57-82 194 0 2-42 6-44 6-3 2-18 3-24 5-3 1-4-2 10-41 5-13 7-12 11-26a312 312 0 0 1 93-116c4-5 33-24 33-24m61 209c8 2 44 0 44 4 1 23 2 23 2 59q-1 43-4 61c0 11-5 7-16 7l-42 1c-10 0-5-5-5-14 0-117-1-118 2-118zm-144 78c0 42 8 51-1 47-2 0-2 1-22-2-4 0-48-7-50-10-6-6-2-95 4-97 24-7 71-11 71-10 1 1-1 0-1 12 0 11-2 11-2 52zM315 44h2c8 19 10 18 19 36 22 41 38 107 39 123 1 8 9 31 0 29-18-3-42-1-58-3-3 0 0-81-2-185m41 440-1-1c-3-1 0 3 0 3-10 24-8 25-18 48l-13 29c-1 1-15 29-9 11 2-3-1-178 2-179l43-1c10 0 18-5 15 7-8 42-8 42-19 83m144-218c6 1 55 13 77 29 28 22 4 32-1 38-12 11-80 32-80 26l1-4c0-17 2-17 2-20 1-55-1-55-1-68zm-397 1h2l-2 18-2 35c0 18-1 17 1 34 1 4-113-29-67-60 5-3 32-21 68-27m260 324 2 3-8 2v-1zm-91-10 3 2c7 6-3 1-3 0zm4-544 5-2q2 1-2 4zM21 336l-1 2c-1-1-4-7 1-2M328 31l-3 1v-2c0-3 1 0 3 1m28 453-1 2s-3-4 0-3zm-57-169q2 3 0 7zm295 23c4-4 1 1 1 2zM230 48h2l-4 2zm69 328q1 4-2 2 3 0 2-2M19 285l1 3c-3 2-2-2-1-3m454 98q3-2 2 1l-1-1zM357 595z" style="fill:#fbc93e;fill-opacity:.97" transform="translate(92 89)"/><path d="m276 37 5-2q2 1-2 4z" style="fill:#facb3f;fill-opacity:.35" transform="translate(92 89)"/><path d="m328 31-3 1v-2c0-3 1 0 3 1" style="fill:#eeba3c;fill-opacity:.24" transform="translate(92 89)"/><path d="M594 338c4-4 1 1 1 2z" style="fill:#e5b737;fill-opacity:.23" transform="translate(92 89)"/><path d="m19 285 1 3c-3 2-2-2-1-3" style="fill:#fcc73d;fill-opacity:.29" transform="translate(92 89)"/><path d="M300 303" style="fill:#cf5a1c;fill-opacity:.24" transform="translate(92 89)"/><path d="M357 595z" style="fill:#fcc83e;fill-opacity:.63" transform="translate(92 89)"/><path d="M328 591" style="fill:#d1a732;fill-opacity:.47" transform="translate(92 89)"/></svg>